<svg xmlns="http://www.w3.org/2000/svg" viewBox="0 0 162 32" width="162" height="32">
  <title>Open in StackBlitz</title>
  <rect width="162" height="32" rx="4" fill="#1374EF"/>
  <path fill="#1269D3" d="M32 0h1v32h-1z"/>
  <path d="M49.102 16.151c0-2.837-1.699-4.557-3.995-4.557-2.305 0-3.999 1.72-3.999 4.557 0 2.834 1.694 4.558 4 4.558 2.295 0 3.994-1.72 3.994-4.558Zm-1.326 0c0 2.162-1.144 3.337-2.669 3.337-1.53 0-2.669-1.175-2.669-3.337 0-2.161 1.14-3.335 2.67-3.335 1.524 0 2.668 1.174 2.668 3.335Zm3.135 6.932h1.295v-3.53h.078c.234.424.71 1.165 1.924 1.165 1.611 0 2.78-1.291 2.78-3.444 0-2.158-1.186-3.427-2.793-3.427-1.235 0-1.681.754-1.911 1.165h-.108v-1.079H50.91v9.15Zm1.269-5.822c0-1.391.606-2.314 1.737-2.314 1.174 0 1.764.992 1.764 2.314 0 1.334-.607 2.352-1.764 2.352-1.113 0-1.737-.953-1.737-2.352Zm9.372 3.461c1.452 0 2.479-.715 2.773-1.798l-1.226-.22c-.234.627-.797.948-1.534.948-1.109 0-1.854-.72-1.889-2.002h4.731v-.459c0-2.404-1.438-3.344-2.946-3.344-1.854 0-3.076 1.412-3.076 3.457 0 2.067 1.205 3.418 3.167 3.418Zm-1.871-4.042c.052-.944.736-1.763 1.789-1.763 1.005 0 1.664.745 1.668 1.763h-3.457Zm7.703-.043c0-1.062.65-1.668 1.551-1.668.88 0 1.412.576 1.412 1.542v4.077h1.296v-4.233c0-1.646-.906-2.508-2.266-2.508-1 0-1.655.463-1.963 1.17h-.082v-1.084h-1.243v6.655h1.295v-3.951Zm9.713 3.95h1.295v-6.654h-1.295v6.655Zm.654-7.68c.446 0 .819-.347.819-.772 0-.424-.373-.775-.819-.775-.45 0-.819.35-.819.775 0 .425.368.772.819.772Zm3.923 3.73c0-1.062.65-1.668 1.551-1.668.88 0 1.413.576 1.413 1.542v4.077h1.295v-4.233c0-1.646-.906-2.508-2.266-2.508-1 0-1.655.463-1.962 1.17h-.083v-1.084H80.38v6.655h1.295v-3.951Zm14.656-2.591h1.291c-.039-1.421-1.295-2.452-3.097-2.452-1.781 0-3.146 1.018-3.146 2.547 0 1.235.884 1.958 2.31 2.344l1.048.286c.949.251 1.68.563 1.68 1.352 0 .866-.827 1.438-1.966 1.438-1.031 0-1.889-.46-1.967-1.425H91.14c.087 1.607 1.33 2.6 3.319 2.6 2.084 0 3.284-1.097 3.284-2.6 0-1.599-1.426-2.218-2.552-2.496l-.867-.225c-.693-.178-1.616-.502-1.611-1.352 0-.754.689-1.312 1.78-1.312 1.018 0 1.742.476 1.837 1.295Zm6.259-.113h-1.365V12.34h-1.295v1.594h-.975v1.04h.975v3.93c-.005 1.208.918 1.793 1.94 1.771.412-.004.689-.082.841-.138l-.234-1.07c-.087.017-.247.056-.455.056-.42 0-.797-.138-.797-.888v-3.66h1.365v-1.04Zm3.613 6.802c1.101 0 1.72-.559 1.967-1.057h.052v.91h1.265v-4.42c0-1.936-1.525-2.321-2.582-2.321-1.204 0-2.313.485-2.747 1.698l1.218.277c.19-.472.676-.927 1.546-.927.836 0 1.265.438 1.265 1.192v.03c0 .472-.485.463-1.681.602-1.26.147-2.551.477-2.551 1.989 0 1.308.983 2.027 2.248 2.027Zm.282-1.04c-.732 0-1.261-.329-1.261-.97 0-.693.615-.94 1.365-1.04.42-.056 1.416-.169 1.603-.355v.858c0 .788-.628 1.507-1.707 1.507Zm7.775 1.027c1.572 0 2.59-.944 2.733-2.24h-1.26c-.165.72-.724 1.144-1.465 1.144-1.096 0-1.802-.914-1.802-2.365 0-1.426.719-2.322 1.802-2.322.823 0 1.326.52 1.465 1.143h1.26c-.138-1.343-1.234-2.235-2.746-2.235-1.876 0-3.089 1.412-3.089 3.444 0 2.006 1.169 3.431 3.102 3.431Zm4.363-.134h1.295v-2.361l.645-.646 2.262 3.007h1.59l-2.877-3.8 2.695-2.855h-1.551l-2.651 2.816h-.113v-5.034h-1.295v8.873Zm7.139 0h3.4c2.063 0 2.994-1.027 2.994-2.387 0-1.374-.962-2.15-1.841-2.197v-.086c.814-.208 1.495-.763 1.495-1.872 0-1.313-.91-2.33-2.799-2.33h-3.249v8.872Zm1.338-1.148v-2.842h1.98c1.075 0 1.746.693 1.746 1.538 0 .745-.507 1.304-1.793 1.304h-1.933Zm0-3.886v-2.7h1.829c1.061 0 1.568.56 1.568 1.296 0 .858-.702 1.404-1.603 1.404h-1.794Zm8.079-3.839h-1.295v8.873h1.295v-8.873Zm1.987 8.873h1.295v-6.655h-1.295v6.655Zm.654-7.681c.447 0 .819-.347.819-.772 0-.424-.372-.775-.819-.775-.45 0-.819.35-.819.775 0 .425.369.772.819.772Zm5.734 1.026h-1.364V12.34h-1.296v1.594h-.974v1.04h.974v3.93c-.004 1.208.919 1.793 1.941 1.771.412-.004.689-.082.841-.138l-.234-1.07c-.087.017-.247.056-.455.056-.42 0-.797-.138-.797-.888v-3.66h1.364v-1.04Zm1.539 6.655h5.342V19.46h-3.588v-.06l3.466-4.523v-.945h-5.103v1.127h3.487v.06l-3.604 4.58v.888ZM10 17.588h5.165L12.127 25 22 14.412h-5.165L19.873 7 10 17.588Z" fill="#fff"/>
</svg>
