<?xml version="1.0" encoding="UTF-8" standalone="no"?>
<!DOCTYPE svg PUBLIC "-//W3C//DTD SVG 1.1//EN" "http://www.w3.org/Graphics/SVG/1.1/DTD/svg11.dtd">
<svg width="100%" height="100%" viewBox="0 0 1371 302" version="1.1" xmlns="http://www.w3.org/2000/svg" xmlns:xlink="http://www.w3.org/1999/xlink" xml:space="preserve" xmlns:serif="http://www.serif.com/" style="fill-rule:evenodd;clip-rule:evenodd;stroke-linejoin:round;stroke-miterlimit:2;">
    <style> path { fill: #fff; } </style>
    <g transform="matrix(1,0,0,1,-103,-108)">
        <g transform="matrix(1,0,0,1,-3144.66,-4351.08)">
            <path d="M4533.97,4753.32C4530.8,4751.05 4527.62,4748.77 4524.42,4746.54C4511.44,4737.47 4498.42,4728.44 4485.42,4719.4C4472.42,4710.35 4459.29,4701.49 4446.42,4692.26C4446.2,4692.11 4463.12,4678.63 4464.84,4676.9C4476.22,4665.5 4488.52,4650.83 4489.44,4633.74C4490.58,4612.86 4479.68,4595.39 4472.04,4576.84C4460.66,4549.19 4464.33,4519.66 4484.33,4496.95C4490.82,4489.58 4497.64,4482.42 4505.06,4475.97C4512.17,4469.79 4519.9,4464.32 4527.79,4459.16C4528.32,4458.82 4528.98,4459.65 4529.5,4460.02C4559,4480.65 4590.35,4498.91 4617.84,4522.16C4620.39,4524.31 4612.12,4525.61 4609.52,4527.7C4606.1,4530.46 4602.83,4533.43 4599.84,4536.66C4592.56,4544.54 4587.94,4555.52 4586.28,4566.01C4582.67,4588.86 4595.11,4612.76 4601.53,4633.27C4606.7,4649.8 4604.12,4667.05 4598.97,4683.21C4590.51,4709.73 4573.97,4731.78 4554.29,4751.14C4550.94,4754.43 4548.41,4759.89 4543.75,4760.48C4539.74,4760.99 4533.97,4753.32 4533.97,4753.32Z" style="fill-rule:nonzero;"/>
        </g>
        <g transform="matrix(1,0,0,1,-3144.66,-4351.08)">
            <path d="M4325.24,4741.43L4325.24,4477.12L4429.86,4477.12L4429.86,4741.43L4325.24,4741.43Z" style="fill-rule:nonzero;"/>
        </g>
        <g transform="matrix(1,0,0,1,-3144.66,-4351.08)">
            <path d="M4159.77,4758.14L4158.7,4755.96L4027.92,4478.11L4027.92,4477.26L4136.08,4477.3L4157.28,4521.7L4169.35,4546.44L4178.91,4525.63L4200.92,4477.64L4258.42,4477.44L4315.92,4477.24L4305.21,4497.42L4235.2,4628.91L4165.19,4760.4L4163.06,4760.42L4160.9,4760.44L4159.84,4758.28L4159.77,4758.14Z" style="fill-rule:nonzero;"/>
        </g>
        <g transform="matrix(1,0,0,1,-3122.73,-4351.08)">
            <path d="M3884.33,4751.19C3883.28,4751.14 3882.22,4751.09 3881.17,4750.97C3876.45,4750.45 3871.68,4750.16 3867.01,4749.27C3849.72,4745.97 3833.18,4738.67 3818.43,4729.22C3780.57,4704.95 3756.34,4662.76 3753.13,4617.98C3747.18,4534.92 3821.28,4459.65 3904.74,4467.62C3991.03,4475.85 4051.03,4568.87 4024.7,4651.24C4012.01,4690.94 3984.06,4723.07 3946.05,4740.3C3933.2,4746.12 3919.61,4750.03 3905.55,4751.3C3899.54,4751.84 3893.5,4751.97 3887.46,4752.15C3886.37,4752.19 3884.33,4751.19 3884.33,4751.19ZM3901.69,4631.79C3903.06,4631.23 3904.44,4630.67 3905.68,4629.87C3906.76,4629.16 3907.62,4628.15 3908.6,4627.29C3914,4622.53 3917.07,4616.7 3917.07,4609.2C3917.07,4591.82 3900.35,4581.41 3884.31,4585.66C3879.97,4586.81 3877.34,4589.97 3874.48,4592.93C3867.37,4600.27 3865.76,4610.06 3869.87,4619.53C3870.44,4620.84 3870.73,4622.32 3871.58,4623.47C3875.09,4628.26 3880.79,4633.1 3886.8,4634.26C3888.6,4634.61 3890.47,4634.28 3892.31,4634.29C3894.14,4634.3 3896.01,4634.67 3897.81,4634.32C3899.25,4634.03 3900.56,4633.2 3901.8,4632.4C3901.97,4632.28 3901.79,4631.97 3901.69,4631.79Z" style="fill-rule:nonzero;"/>
        </g>
        <g transform="matrix(1,0,0,1,-3122.73,-4351.08)">
            <path d="M3669.06,4709.98L3606.65,4661.23L3606.45,4701.33L3606.24,4741.43L3502.42,4741.43L3502.42,4464.45L3517.78,4476.31L3572.45,4519.03L3627.12,4561.75L3627.32,4519.43L3627.52,4477.11L3732.13,4477.11L3732.13,4758.73L3731.28,4758.73L3669.06,4709.98Z" style="fill-rule:nonzero;"/>
        </g>
        <g transform="matrix(1,0,0,1,-3122.73,-4351.08)">
            <path d="M3294.36,4747.65L3288.86,4747.01L3281.05,4745.3L3269.2,4740.57L3260.54,4735.66L3252.35,4729.69L3243.9,4721.41L3238.14,4712.37L3232.64,4701.41L3227.87,4684.48L3225.73,4666.65L3225.73,4477.15L3328.78,4477.15L3328.78,4625.59L3330.49,4630.92L3334.33,4636.3L3340.64,4639.28L3349.34,4639.32L3356.34,4635.9L3360.6,4629.63L3362.31,4621.1L3362.31,4477.41L3467.72,4477.41L3467.72,4741.72L3368.63,4741.72L3368.42,4723.93L3368.2,4706.15L3363.62,4712.91L3359.03,4719.65L3348.54,4729.84L3339.5,4736.28L3329.65,4741.87L3320.05,4745.28L3308.41,4747.84L3299.75,4748.27L3294.25,4747.63L3294.36,4747.65Z" style="fill-rule:nonzero;"/>
        </g>
    </g>
</svg>
