<svg clip-rule="evenodd" fill-rule="evenodd" height="24" stroke-linejoin="round" stroke-miterlimit="2" viewBox="0 0 96 96" width="24" xmlns="http://www.w3.org/2000/svg"><path d="m96 4.8c0-2.649-2.151-4.8-4.8-4.8h-86.4c-2.649 0-4.8 2.151-4.8 4.8v86.4c0 2.649 2.151 4.8 4.8 4.8h86.4c2.649 0 4.8-2.151 4.8-4.8z" fill="#e2203a"/><g fill="#fff" fill-rule="nonzero"><path d="m21.849 19.356c0 4.062-3.294 7.355-7.355 7.355-4.062 0-7.356-3.293-7.356-7.355s3.294-7.355 7.356-7.355c4.061 0 7.355 3.293 7.355 7.355"/><path d="m40.802 35.34c0 6.014-4.874 10.891-10.891 10.891-6.015 0-10.891-4.877-10.891-10.891 0-6.015 4.876-10.892 10.891-10.892 6.017 0 10.891 4.877 10.891 10.892"/><path d="m50.704 47.786c0 2.578-2.091 4.669-4.667 4.669-2.578 0-4.669-2.091-4.669-4.669s2.091-4.668 4.669-4.668c2.576 0 4.667 2.09 4.667 4.668"/><path d="m47.592 64.902c0 3.437-2.788 6.224-6.224 6.224-3.437 0-6.225-2.787-6.225-6.224s2.788-6.224 6.225-6.224c3.436 0 6.224 2.787 6.224 6.224"/><path d="m63.152 68.014c0 3.437-2.788 6.223-6.225 6.223-3.436 0-6.224-2.786-6.224-6.223 0-3.438 2.788-6.224 6.224-6.224 3.437 0 6.225 2.786 6.225 6.224"/><path d="m84.934 27.489c0 3.477-2.817 6.294-6.295 6.294-3.475 0-6.294-2.817-6.294-6.294 0-3.476 2.819-6.294 6.294-6.294 3.478 0 6.295 2.818 6.295 6.294"/><path d="m75.598 40.008c0 3.436-2.786 6.222-6.224 6.222-3.437 0-6.223-2.786-6.223-6.222 0-3.439 2.786-6.225 6.223-6.225 3.438 0 6.224 2.786 6.224 6.225"/><path d="m88.046 15.678c0 2.03-1.648 3.678-3.678 3.678s-3.678-1.648-3.678-3.678 1.648-3.677 3.678-3.677 3.678 1.647 3.678 3.677"/><path d="m76.164 15.678c0 2.03-1.648 3.678-3.678 3.678s-3.678-1.648-3.678-3.678 1.648-3.677 3.678-3.677 3.678 1.647 3.678 3.677"/><path d="m66.688 18.437c0 3.554-2.882 6.435-6.436 6.435-3.556 0-6.436-2.881-6.436-6.435 0-3.555 2.88-6.436 6.436-6.436 3.554 0 6.436 2.881 6.436 6.436"/><path d="m53.816 78.905c0 2.576-2.091 4.667-4.669 4.667-2.576 0-4.667-2.091-4.667-4.667 0-2.578 2.091-4.669 4.667-4.669 2.578 0 4.669 2.091 4.669 4.669"/><path d="m53.816 55.566c0 1.72-1.394 3.112-3.111 3.112-1.72 0-3.113-1.392-3.113-3.112 0-1.719 1.393-3.111 3.113-3.111 1.717 0 3.111 1.392 3.111 3.111"/><path d="m38.256 54.009c0 2.578-2.09 4.669-4.667 4.669-2.578 0-4.668-2.091-4.668-4.669 0-2.576 2.09-4.666 4.668-4.666 2.577 0 4.667 2.09 4.667 4.666"/><path d="m33.871 16.669c0 2.578-2.089 4.668-4.667 4.668s-4.667-2.09-4.667-4.668 2.089-4.669 4.667-4.669 4.667 2.091 4.667 4.669"/><path d="m66.264 29.398c0 1.72-1.394 3.112-3.111 3.112-1.72 0-3.114-1.392-3.114-3.112 0-1.719 1.394-3.111 3.114-3.111 1.717 0 3.111 1.392 3.111 3.111"/></g></svg>