<svg style="font-family: Inter, Arial, &quot;Helvetica Neue&quot;, Helvetica, sans-serif;" xmlns="http://www.w3.org/2000/svg" height="564" width="800" viewBox="0 0 800 564" role="img">
<title>Phone Brand Switching</title>
<g>
<text x="16" y="28" font-size="16" font-weight="600" fill="#1f2937">Phone Brand Switching</text>
</g>
<g transform="translate(16,56)">
<g transform="translate(0,0)">
<rect width="768" height="492" style="opacity: 0;"/>
<g transform="translate(384,246)">
<path d="M14.524882559359188,-239.5600713529632A240,240,0,0,1,108.82441783855658,-213.90943429895572Q0,0,48.4632127013928,235.05598697897392A240,240,0,0,1,-49.26050878500817,234.89019194986014Q0,0,14.524882559359188,-239.5600713529632Z" style="opacity: 1; transition: fill 0ms; fill: #cad5f6; fill-opacity: 0.5; stroke: #777777; stroke-opacity: 0.15;"/>
<path d="M108.82441783855658,-213.90943429895572A240,240,0,0,1,153.56044326031673,-184.442918719302Q0,0,-234.21796358490397,52.3635897751538A240,240,0,0,1,-239.9984035056607,-0.8753940450321468Q0,0,108.82441783855658,-213.90943429895572Z" style="opacity: 1; transition: fill 0ms; fill: #cad5f6; fill-opacity: 0.5; stroke: #777777; stroke-opacity: 0.15;"/>
<path d="M209.44790419481356,117.18180502279439A240,240,0,0,1,123.15030728377833,205.995149981525Q0,0,153.56044326031673,-184.442918719302A240,240,0,0,1,225.0668253353773,-83.33621141769508Q0,0,209.44790419481356,117.18180502279439Z" style="opacity: 1; transition: fill 0ms; fill: #cad5f6; fill-opacity: 0.5; stroke: #777777; stroke-opacity: 0.15;"/>
<path d="M123.15030728377833,205.995149981525A240,240,0,0,1,48.4632127013928,235.05598697897392Q0,0,-239.9984035056607,-0.8753940450321468A240,240,0,0,1,-226.33745721779098,-79.82077085686807Q0,0,123.15030728377833,205.995149981525Z" style="opacity: 1; transition: fill 0ms; fill: #cad5f6; fill-opacity: 0.5; stroke: #777777; stroke-opacity: 0.15;"/>
<path d="M-182.87791205089923,155.42094223078035A240,240,0,0,1,-220.4630929966938,94.84737543195985Q0,0,225.0668253353773,-83.33621141769508A240,240,0,0,1,239.61844023623948,-13.52786379114333Q0,0,-182.87791205089923,155.42094223078035Z" style="opacity: 1; transition: fill 0ms; fill: #cad5f6; fill-opacity: 0.5; stroke: #777777; stroke-opacity: 0.15;"/>
<path d="M-220.4630929966938,94.84737543195985A240,240,0,0,1,-234.21796358490397,52.3635897751538Q0,0,-49.26050878500817,234.89019194986014A240,240,0,0,1,-91.93455960561796,221.69356497228574Q0,0,-220.4630929966938,94.84737543195985Z" style="opacity: 1; transition: fill 0ms; fill: #cad5f6; fill-opacity: 0.5; stroke: #777777; stroke-opacity: 0.15;"/>
<path d="M-202.56771666491437,-128.71021779626886A240,240,0,0,1,-127.00604339451893,-203.6405287295964Q0,0,239.61844023623948,-13.52786379114333A240,240,0,0,1,221.89227699638073,91.45390866092845Q0,0,-202.56771666491437,-128.71021779626886Z" style="opacity: 1; transition: fill 0ms; fill: #cad5f6; fill-opacity: 0.5; stroke: #777777; stroke-opacity: 0.15;"/>
<path d="M-127.00604339451893,-203.6405287295964A240,240,0,0,1,-44.160406896183936,-235.902222250583Q0,0,-91.93455960561796,221.69356497228574A240,240,0,0,1,-166.36111588839606,172.9854881785396Q0,0,-127.00604339451893,-203.6405287295964Z" style="opacity: 1; transition: fill 0ms; fill: #cad5f6; fill-opacity: 0.5; stroke: #777777; stroke-opacity: 0.15;"/>
<path d="M-44.160406896183936,-235.902222250583A240,240,0,0,1,-8.642794831546043,-239.84432888334007Q0,0,-226.33745721779098,-79.82077085686807A240,240,0,0,1,-211.9729313419286,-112.54988395511579Q0,0,-44.160406896183936,-235.902222250583Z" style="opacity: 1; transition: fill 0ms; fill: #cad5f6; fill-opacity: 0.5; stroke: #777777; stroke-opacity: 0.15;"/>
</g>
<g transform="translate(384,246)">
<path style="opacity: 1; transition: fill 0ms; fill: #4D8CFD; stroke: #4D8CFD; stroke-width: 0;" id="snap-0" d="M14.403,-237.555A2,2,0,0,1,16.537,-239.43A240,240,0,0,1,222.653,89.586A2,2,0,0,1,220.035,90.689L209.865,86.497A2,2,0,0,1,208.771,83.902A225,225,0,0,0,15.595,-224.459A2,2,0,0,1,13.738,-226.575Z"/>
<path style="opacity: 1; transition: fill 0ms; fill: #FF6B7E; stroke: #FF6B7E; stroke-width: 0;" id="snap-1" d="M207.695,116.201A2,2,0,0,1,208.456,118.938A240,240,0,0,1,-164.902,174.377A2,2,0,0,1,-164.969,171.538L-157.344,163.609A2,2,0,0,1,-154.529,163.542A225,225,0,0,0,195.382,111.584A2,2,0,0,1,198.095,110.83Z"/>
<path style="opacity: 1; transition: fill 0ms; fill: #F4B83E; stroke: #F4B83E; stroke-width: 0;" id="snap-2" d="M-181.348,154.12A2,2,0,0,1,-184.178,153.879A240,240,0,0,1,-212.911,-110.765A2,2,0,0,1,-210.199,-111.608L-200.483,-106.449A2,2,0,0,1,-199.647,-103.761A225,225,0,0,0,-172.725,144.191A2,2,0,0,1,-172.965,146.997Z"/>
<path style="opacity: 1; transition: fill 0ms; fill: #A6CC74; stroke: #A6CC74; stroke-width: 0;" id="snap-3" d="M-200.873,-127.633A2,2,0,0,1,-201.479,-130.408A240,240,0,0,1,-10.658,-239.763A2,2,0,0,1,-8.57,-237.837L-8.174,-226.844A2,2,0,0,1,-10.083,-224.774A225,225,0,0,0,-188.837,-122.334A2,2,0,0,1,-191.588,-121.734Z"/>
</g>
<g transform="translate(384,246)">
<g style="opacity: 1;">
<text style="fill: #ffffff; transition: fill 0ms; dominant-baseline: middle; user-select: none; font-size: 1em;" dx="3" dy="7.5"><textPath href="#snap-0" style="dominant-baseline: central;">Apple</textPath></text>
</g>
<g style="opacity: 1;">
<text style="fill: #ffffff; transition: fill 0ms; dominant-baseline: middle; user-select: none; font-size: 1em;" dx="3" dy="7.5"><textPath href="#snap-1" style="dominant-baseline: central;">Samsung</textPath></text>
</g>
<g style="opacity: 1;">
<text style="fill: #ffffff; transition: fill 0ms; dominant-baseline: middle; user-select: none; font-size: 1em;" dx="3" dy="7.5"><textPath href="#snap-2" style="dominant-baseline: central;">Google</textPath></text>
</g>
<g style="opacity: 1;">
<text style="fill: #ffffff; transition: fill 0ms; dominant-baseline: middle; user-select: none; font-size: 1em;" dx="3" dy="7.5"><textPath href="#snap-3" style="dominant-baseline: central;">Other</textPath></text>
</g>
</g>
</g>
<defs/>
<defs/>
</g>
</svg>