<svg style="font-family: Inter, Arial, &quot;Helvetica Neue&quot;, Helvetica, sans-serif;" xmlns="http://www.w3.org/2000/svg" height="546" width="800" viewBox="0 0 800 546" role="img"><title>Website Traffic</title><g><text x="16" y="28" font-size="16" font-weight="600" fill="#1f2937">Website Traffic</text><rect x="16" y="46" width="10" height="10" rx="2" fill="#4D8CFD"/><text x="32" y="55" font-size="12" fill="#4b5563">Visits</text><rect x="78.56999969482422" y="46" width="10" height="10" rx="2" fill="#FF6B7E"/><text x="94.56999969482422" y="55" font-size="12" fill="#4b5563">Signups</text></g><g transform="translate(0,66)"><g axis-type="x" transform="translate(70.92999954223633,452.8)"><g fill="none" font-size="10" font-family="sans-serif" text-anchor="middle" style="user-select: none;"><path stroke="currentColor" d="M0.5, 0 V0.5 H729.5700004577636 V0" style="stroke: #e8e9ef; stroke-width: 1px; stroke-dasharray: none;"/><g opacity="1" transform="translate(151.34206906022695,0)" style="stroke: none; font-size: 12px; font-weight: 500;"><line stroke="currentColor" y2="6" style="stroke: #e8e9ef; stroke-width: 1px;"/><text fill="currentColor" style="fill: #6c778c; cursor: default; font-family: Inter, Arial, &quot;Helvetica Neue&quot;, Helvetica, sans-serif; text-decoration: none; stroke: none;"><tspan font-size="12" font-family="Inter,Arial,&quot;Helvetica Neue&quot;,Helvetica,sans-serif" y="20"><tspan x="0" dy="0em" dominant-baseline="central">Mar 7</tspan></tspan></text></g><g opacity="1" transform="translate(327.32448296382506,0)" style="stroke: none; font-size: 12px; font-weight: 500;"><line stroke="currentColor" y2="6" style="stroke: #e8e9ef; stroke-width: 1px;"/><text fill="currentColor" style="fill: #6c778c; cursor: default; font-family: Inter, Arial, &quot;Helvetica Neue&quot;, Helvetica, sans-serif; text-decoration: none; stroke: none;"><tspan font-size="12" font-family="Inter,Arial,&quot;Helvetica Neue&quot;,Helvetica,sans-serif" y="20"><tspan x="0" dy="0em" dominant-baseline="central">Mar 14</tspan></tspan></text></g><g opacity="1" transform="translate(503.30689686742323,0)" style="stroke: none; font-size: 12px; font-weight: 500;"><line stroke="currentColor" y2="6" style="stroke: #e8e9ef; stroke-width: 1px;"/><text fill="currentColor" style="fill: #6c778c; cursor: default; font-family: Inter, Arial, &quot;Helvetica Neue&quot;, Helvetica, sans-serif; text-decoration: none; stroke: none;"><tspan font-size="12" font-family="Inter,Arial,&quot;Helvetica Neue&quot;,Helvetica,sans-serif" y="20"><tspan x="0" dy="0em" dominant-baseline="central">Mar 21</tspan></tspan></text></g><g opacity="1" transform="translate(679.2893107710213,0)" style="stroke: none; font-size: 12px; font-weight: 500;"><line stroke="currentColor" y2="6" style="stroke: #e8e9ef; stroke-width: 1px;"/><text fill="currentColor" style="fill: #6c778c; cursor: default; font-family: Inter, Arial, &quot;Helvetica Neue&quot;, Helvetica, sans-serif; text-decoration: none; stroke: none;"><tspan font-size="12" font-family="Inter,Arial,&quot;Helvetica Neue&quot;,Helvetica,sans-serif" y="20"><tspan x="0" dy="0em" dominant-baseline="central">Mar 28</tspan></tspan></text></g></g><g fill="none" font-size="10" font-family="sans-serif" text-anchor="middle" style="opacity: 1;"><path stroke="currentColor" d="M0.5,0.5H729.5700004577636" style="opacity: 0;"/><g opacity="1" transform="translate(151.34206906022695,0)"><line stroke="currentColor" y2="-452.8" style="stroke: #e8e9ef; stroke-width: 1px; stroke-dasharray: none; opacity: 1; transition: none;"/><text fill="currentColor" y="3" dy="0.71em"/></g><g opacity="1" transform="translate(327.32448296382506,0)"><line stroke="currentColor" y2="-452.8" style="stroke: #e8e9ef; stroke-width: 1px; stroke-dasharray: none; opacity: 1; transition: none;"/><text fill="currentColor" y="3" dy="0.71em"/></g><g opacity="1" transform="translate(503.30689686742323,0)"><line stroke="currentColor" y2="-452.8" style="stroke: #e8e9ef; stroke-width: 1px; stroke-dasharray: none; opacity: 1; transition: none;"/><text fill="currentColor" y="3" dy="0.71em"/></g><g opacity="1" transform="translate(679.2893107710213,0)"><line stroke="currentColor" y2="-452.8" style="stroke: #e8e9ef; stroke-width: 1px; stroke-dasharray: none; opacity: 1; transition: none;"/><text fill="currentColor" y="3" dy="0.71em"/></g></g></g><g axis-type="y" transform="translate(70.92999954223633,0)"><g fill="none" font-size="10" font-family="sans-serif" text-anchor="end" style="user-select: none;"><path stroke="currentColor" d="M0, 453.3 H0.5 V0.5 H0" style="stroke: #e8e9ef; stroke-width: 1px; stroke-dasharray: none;"/><g opacity="1" transform="translate(0,431.97103672710364)" style="stroke: none; font-size: 12px; font-weight: 500;"><line stroke="currentColor" x2="-6" style="stroke: #e8e9ef; stroke-width: 1px;"/><text fill="currentColor" x="-14" style="fill: #6c778c; cursor: default; font-family: Inter, Arial, &quot;Helvetica Neue&quot;, Helvetica, sans-serif; text-decoration: none; stroke: none;"><tspan font-size="12" font-family="Inter,Arial,&quot;Helvetica Neue&quot;,Helvetica,sans-serif" y="-6"><tspan x="-14" dy="0em" dominant-baseline="hanging">200</tspan></tspan></text></g><g opacity="1" transform="translate(0,390.05564853556484)" style="stroke: none; font-size: 12px; font-weight: 500;"><line stroke="currentColor" x2="-6" style="stroke: #e8e9ef; stroke-width: 1px;"/><text fill="currentColor" x="-14" style="fill: #6c778c; cursor: default; font-family: Inter, Arial, &quot;Helvetica Neue&quot;, Helvetica, sans-serif; text-decoration: none; stroke: none;"><tspan font-size="12" font-family="Inter,Arial,&quot;Helvetica Neue&quot;,Helvetica,sans-serif" y="-6"><tspan x="-14" dy="0em" dominant-baseline="hanging">400</tspan></tspan></text></g><g opacity="1" transform="translate(0,348.14026034402605)" style="stroke: none; font-size: 12px; font-weight: 500;"><line stroke="currentColor" x2="-6" style="stroke: #e8e9ef; stroke-width: 1px;"/><text fill="currentColor" x="-14" style="fill: #6c778c; cursor: default; font-family: Inter, Arial, &quot;Helvetica Neue&quot;, Helvetica, sans-serif; text-decoration: none; stroke: none;"><tspan font-size="12" font-family="Inter,Arial,&quot;Helvetica Neue&quot;,Helvetica,sans-serif" y="-6"><tspan x="-14" dy="0em" dominant-baseline="hanging">600</tspan></tspan></text></g><g opacity="1" transform="translate(0,306.22487215248725)" style="stroke: none; font-size: 12px; font-weight: 500;"><line stroke="currentColor" x2="-6" style="stroke: #e8e9ef; stroke-width: 1px;"/><text fill="currentColor" x="-14" style="fill: #6c778c; cursor: default; font-family: Inter, Arial, &quot;Helvetica Neue&quot;, Helvetica, sans-serif; text-decoration: none; stroke: none;"><tspan font-size="12" font-family="Inter,Arial,&quot;Helvetica Neue&quot;,Helvetica,sans-serif" y="-6"><tspan x="-14" dy="0em" dominant-baseline="hanging">800</tspan></tspan></text></g><g opacity="1" transform="translate(0,264.30948396094846)" style="stroke: none; font-size: 12px; font-weight: 500;"><line stroke="currentColor" x2="-6" style="stroke: #e8e9ef; stroke-width: 1px;"/><text fill="currentColor" x="-14" style="fill: #6c778c; cursor: default; font-family: Inter, Arial, &quot;Helvetica Neue&quot;, Helvetica, sans-serif; text-decoration: none; stroke: none;"><tspan font-size="12" font-family="Inter,Arial,&quot;Helvetica Neue&quot;,Helvetica,sans-serif" y="-6"><tspan x="-14" dy="0em" dominant-baseline="hanging">1,000</tspan></tspan></text></g><g opacity="1" transform="translate(0,222.39409576940957)" style="stroke: none; font-size: 12px; font-weight: 500;"><line stroke="currentColor" x2="-6" style="stroke: #e8e9ef; stroke-width: 1px;"/><text fill="currentColor" x="-14" style="fill: #6c778c; cursor: default; font-family: Inter, Arial, &quot;Helvetica Neue&quot;, Helvetica, sans-serif; text-decoration: none; stroke: none;"><tspan font-size="12" font-family="Inter,Arial,&quot;Helvetica Neue&quot;,Helvetica,sans-serif" y="-6"><tspan x="-14" dy="0em" dominant-baseline="hanging">1,200</tspan></tspan></text></g><g opacity="1" transform="translate(0,180.47870757787075)" style="stroke: none; font-size: 12px; font-weight: 500;"><line stroke="currentColor" x2="-6" style="stroke: #e8e9ef; stroke-width: 1px;"/><text fill="currentColor" x="-14" style="fill: #6c778c; cursor: default; font-family: Inter, Arial, &quot;Helvetica Neue&quot;, Helvetica, sans-serif; text-decoration: none; stroke: none;"><tspan font-size="12" font-family="Inter,Arial,&quot;Helvetica Neue&quot;,Helvetica,sans-serif" y="-6"><tspan x="-14" dy="0em" dominant-baseline="hanging">1,400</tspan></tspan></text></g><g opacity="1" transform="translate(0,138.56331938633195)" style="stroke: none; font-size: 12px; font-weight: 500;"><line stroke="currentColor" x2="-6" style="stroke: #e8e9ef; stroke-width: 1px;"/><text fill="currentColor" x="-14" style="fill: #6c778c; cursor: default; font-family: Inter, Arial, &quot;Helvetica Neue&quot;, Helvetica, sans-serif; text-decoration: none; stroke: none;"><tspan font-size="12" font-family="Inter,Arial,&quot;Helvetica Neue&quot;,Helvetica,sans-serif" y="-6"><tspan x="-14" dy="0em" dominant-baseline="hanging">1,600</tspan></tspan></text></g><g opacity="1" transform="translate(0,96.6479311947931)" style="stroke: none; font-size: 12px; font-weight: 500;"><line stroke="currentColor" x2="-6" style="stroke: #e8e9ef; stroke-width: 1px;"/><text fill="currentColor" x="-14" style="fill: #6c778c; cursor: default; font-family: Inter, Arial, &quot;Helvetica Neue&quot;, Helvetica, sans-serif; text-decoration: none; stroke: none;"><tspan font-size="12" font-family="Inter,Arial,&quot;Helvetica Neue&quot;,Helvetica,sans-serif" y="-6"><tspan x="-14" dy="0em" dominant-baseline="hanging">1,800</tspan></tspan></text></g><g opacity="1" transform="translate(0,54.73254300325431)" style="stroke: none; font-size: 12px; font-weight: 500;"><line stroke="currentColor" x2="-6" style="stroke: #e8e9ef; stroke-width: 1px;"/><text fill="currentColor" x="-14" style="fill: #6c778c; cursor: default; font-family: Inter, Arial, &quot;Helvetica Neue&quot;, Helvetica, sans-serif; text-decoration: none; stroke: none;"><tspan font-size="12" font-family="Inter,Arial,&quot;Helvetica Neue&quot;,Helvetica,sans-serif" y="-6"><tspan x="-14" dy="0em" dominant-baseline="hanging">2,000</tspan></tspan></text></g><g opacity="1" transform="translate(0,12.817154811715461)" style="stroke: none; font-size: 12px; font-weight: 500;"><line stroke="currentColor" x2="-6" style="stroke: #e8e9ef; stroke-width: 1px;"/><text fill="currentColor" x="-14" style="fill: #6c778c; cursor: default; font-family: Inter, Arial, &quot;Helvetica Neue&quot;, Helvetica, sans-serif; text-decoration: none; stroke: none;"><tspan font-size="12" font-family="Inter,Arial,&quot;Helvetica Neue&quot;,Helvetica,sans-serif" y="-6"><tspan x="-14" dy="0em" dominant-baseline="hanging">2,200</tspan></tspan></text></g><text dy="-0.25em" transform="translate(-55.72999954223633,226.4) rotate(-90)" style="fill: #6c778c; font-size: 14px; font-weight: 500; font-family: Inter, Arial, &quot;Helvetica Neue&quot;, Helvetica, sans-serif; text-anchor: middle;">Count per day</text></g><g fill="none" font-size="10" font-family="sans-serif" text-anchor="end" style="opacity: 1;"><path stroke="currentColor" d="M0.5,452.3V1.5" style="opacity: 0;"/><g opacity="1" transform="translate(0,431.97103672710364)"><line stroke="currentColor" x2="729.0700004577636" style="stroke: #e8e9ef; stroke-width: 1px; stroke-dasharray: none; opacity: 1; transition: none;"/><text fill="currentColor" x="-3" dy="0.32em"/></g><g opacity="1" transform="translate(0,390.05564853556484)"><line stroke="currentColor" x2="729.0700004577636" style="stroke: #e8e9ef; stroke-width: 1px; stroke-dasharray: none; opacity: 1; transition: none;"/><text fill="currentColor" x="-3" dy="0.32em"/></g><g opacity="1" transform="translate(0,348.14026034402605)"><line stroke="currentColor" x2="729.0700004577636" style="stroke: #e8e9ef; stroke-width: 1px; stroke-dasharray: none; opacity: 1; transition: none;"/><text fill="currentColor" x="-3" dy="0.32em"/></g><g opacity="1" transform="translate(0,306.22487215248725)"><line stroke="currentColor" x2="729.0700004577636" style="stroke: #e8e9ef; stroke-width: 1px; stroke-dasharray: none; opacity: 1; transition: none;"/><text fill="currentColor" x="-3" dy="0.32em"/></g><g opacity="1" transform="translate(0,264.30948396094846)"><line stroke="currentColor" x2="729.0700004577636" style="stroke: #e8e9ef; stroke-width: 1px; stroke-dasharray: none; opacity: 1; transition: none;"/><text fill="currentColor" x="-3" dy="0.32em"/></g><g opacity="1" transform="translate(0,222.39409576940957)"><line stroke="currentColor" x2="729.0700004577636" style="stroke: #e8e9ef; stroke-width: 1px; stroke-dasharray: none; opacity: 1; transition: none;"/><text fill="currentColor" x="-3" dy="0.32em"/></g><g opacity="1" transform="translate(0,180.47870757787075)"><line stroke="currentColor" x2="729.0700004577636" style="stroke: #e8e9ef; stroke-width: 1px; stroke-dasharray: none; opacity: 1; transition: none;"/><text fill="currentColor" x="-3" dy="0.32em"/></g><g opacity="1" transform="translate(0,138.56331938633195)"><line stroke="currentColor" x2="729.0700004577636" style="stroke: #e8e9ef; stroke-width: 1px; stroke-dasharray: none; opacity: 1; transition: none;"/><text fill="currentColor" x="-3" dy="0.32em"/></g><g opacity="1" transform="translate(0,96.6479311947931)"><line stroke="currentColor" x2="729.0700004577636" style="stroke: #e8e9ef; stroke-width: 1px; stroke-dasharray: none; opacity: 1; transition: none;"/><text fill="currentColor" x="-3" dy="0.32em"/></g><g opacity="1" transform="translate(0,54.73254300325431)"><line stroke="currentColor" x2="729.0700004577636" style="stroke: #e8e9ef; stroke-width: 1px; stroke-dasharray: none; opacity: 1; transition: none;"/><text fill="currentColor" x="-3" dy="0.32em"/></g><g opacity="1" transform="translate(0,12.817154811715461)"><line stroke="currentColor" x2="729.0700004577636" style="stroke: #e8e9ef; stroke-width: 1px; stroke-dasharray: none; opacity: 1; transition: none;"/><text fill="currentColor" x="-3" dy="0.32em"/></g></g></g><g transform="translate(70.92999954223633,0)" style="clip-path: url(#snap-0);"><g style="transition: opacity 200ms; cursor: default;"><path unovis-pattern-index="0" stroke="#4D8CFD" stroke-opacity="1" stroke-width="2" d="M0,221.894C8.38,213.127,16.76,204.359,25.14,195.907C33.52,187.454,41.901,179.001,50.281,171.176C58.661,163.352,67.041,155.773,75.421,148.961C83.801,142.15,92.181,135.793,100.561,130.309C108.941,124.825,117.322,119.97,125.702,116.058C134.082,112.146,142.462,109.072,150.842,106.836C159.222,104.601,167.602,102.645,175.982,102.645C184.363,102.645,192.743,102.994,201.123,103.693C209.503,104.391,217.883,106.941,226.263,109.561C234.643,112.181,243.023,115.639,251.403,119.411C259.784,123.183,268.164,127.55,276.544,132.195C284.924,136.841,293.304,142.185,301.684,147.285C310.064,152.384,318.444,157.694,326.824,162.793C335.205,167.893,343.585,173.133,351.965,177.883C360.345,182.633,368.725,187.349,377.105,191.296C385.485,195.243,393.865,198.806,402.246,201.565C410.626,204.325,419.006,206.735,427.386,207.852C435.766,208.97,444.146,209.529,452.526,209.529C460.906,209.529,469.286,208.167,477.667,206.176C486.047,204.185,494.427,201.286,502.807,197.583C511.187,193.881,519.567,189.27,527.947,183.961C536.327,178.651,544.707,172.399,553.088,165.727C561.468,159.056,569.848,151.616,578.228,143.931C586.608,136.247,594.988,128.004,603.368,119.621C611.748,111.237,620.129,102.296,628.509,93.633C636.889,84.97,645.269,76.133,653.649,67.645C662.029,59.158,670.409,50.635,678.789,42.706C687.169,34.777,695.55,27.022,703.93,20.072C712.31,13.121,720.69,7.06,729.07,1" style="fill: none; stroke-dasharray: none; stroke-dashoffset: 0;"/><path d="M0,221.894C8.38,213.127,16.76,204.359,25.14,195.907C33.52,187.454,41.901,179.001,50.281,171.176C58.661,163.352,67.041,155.773,75.421,148.961C83.801,142.15,92.181,135.793,100.561,130.309C108.941,124.825,117.322,119.97,125.702,116.058C134.082,112.146,142.462,109.072,150.842,106.836C159.222,104.601,167.602,102.645,175.982,102.645C184.363,102.645,192.743,102.994,201.123,103.693C209.503,104.391,217.883,106.941,226.263,109.561C234.643,112.181,243.023,115.639,251.403,119.411C259.784,123.183,268.164,127.55,276.544,132.195C284.924,136.841,293.304,142.185,301.684,147.285C310.064,152.384,318.444,157.694,326.824,162.793C335.205,167.893,343.585,173.133,351.965,177.883C360.345,182.633,368.725,187.349,377.105,191.296C385.485,195.243,393.865,198.806,402.246,201.565C410.626,204.325,419.006,206.735,427.386,207.852C435.766,208.97,444.146,209.529,452.526,209.529C460.906,209.529,469.286,208.167,477.667,206.176C486.047,204.185,494.427,201.286,502.807,197.583C511.187,193.881,519.567,189.27,527.947,183.961C536.327,178.651,544.707,172.399,553.088,165.727C561.468,159.056,569.848,151.616,578.228,143.931C586.608,136.247,594.988,128.004,603.368,119.621C611.748,111.237,620.129,102.296,628.509,93.633C636.889,84.97,645.269,76.133,653.649,67.645C662.029,59.158,670.409,50.635,678.789,42.706C687.169,34.777,695.55,27.022,703.93,20.072C712.31,13.121,720.69,7.06,729.07,1" style="fill: none; stroke: rgba(0, 0, 0, 0); stroke-width: 8px;"/><path d="M0,451.8 L729.0700004577636,451.8" style="opacity: 0; fill: none; stroke-dasharray: 2 3; stroke-dashoffset: 0; stroke-opacity: 0.8;"/></g><g style="transition: opacity 200ms; cursor: default;"><path unovis-pattern-index="1" stroke="#FF6B7E" stroke-opacity="1" stroke-width="2" d="M0,448.237C8.38,448.097,16.76,447.958,25.14,447.818C33.52,447.678,41.901,447.399,50.281,447.399C58.661,447.399,67.041,447.399,75.421,447.399C83.801,447.399,92.181,447.504,100.561,447.608C108.941,447.713,117.322,447.888,125.702,448.028C134.082,448.167,142.462,448.272,150.842,448.447C159.222,448.621,167.602,448.866,175.982,449.075C184.363,449.285,192.743,449.495,201.123,449.704C209.503,449.914,217.883,450.158,226.263,450.333C234.643,450.508,243.023,450.577,251.403,450.752C259.784,450.927,268.164,451.241,276.544,451.381C284.924,451.521,293.304,451.521,301.684,451.59C310.064,451.66,318.444,451.8,326.824,451.8C335.205,451.8,343.585,451.66,351.965,451.59C360.345,451.521,368.725,451.521,377.105,451.381C385.485,451.241,393.865,450.997,402.246,450.752C410.626,450.508,419.006,450.228,427.386,449.914C435.766,449.599,444.146,449.25,452.526,448.866C460.906,448.482,469.286,448.063,477.667,447.608C486.047,447.154,494.427,446.665,502.807,446.141C511.187,445.617,519.567,445.059,527.947,444.465C536.327,443.871,544.707,443.207,553.088,442.579C561.468,441.95,569.848,441.321,578.228,440.692C586.608,440.064,594.988,439.435,603.368,438.806C611.748,438.177,620.129,437.514,628.509,436.92C636.889,436.326,645.269,435.802,653.649,435.243C662.029,434.685,670.409,434.091,678.789,433.567C687.169,433.043,695.55,432.589,703.93,432.1C712.31,431.611,720.69,431.122,729.07,430.633" style="fill: none; stroke-dasharray: none; stroke-dashoffset: 0;"/><path d="M0,448.237C8.38,448.097,16.76,447.958,25.14,447.818C33.52,447.678,41.901,447.399,50.281,447.399C58.661,447.399,67.041,447.399,75.421,447.399C83.801,447.399,92.181,447.504,100.561,447.608C108.941,447.713,117.322,447.888,125.702,448.028C134.082,448.167,142.462,448.272,150.842,448.447C159.222,448.621,167.602,448.866,175.982,449.075C184.363,449.285,192.743,449.495,201.123,449.704C209.503,449.914,217.883,450.158,226.263,450.333C234.643,450.508,243.023,450.577,251.403,450.752C259.784,450.927,268.164,451.241,276.544,451.381C284.924,451.521,293.304,451.521,301.684,451.59C310.064,451.66,318.444,451.8,326.824,451.8C335.205,451.8,343.585,451.66,351.965,451.59C360.345,451.521,368.725,451.521,377.105,451.381C385.485,451.241,393.865,450.997,402.246,450.752C410.626,450.508,419.006,450.228,427.386,449.914C435.766,449.599,444.146,449.25,452.526,448.866C460.906,448.482,469.286,448.063,477.667,447.608C486.047,447.154,494.427,446.665,502.807,446.141C511.187,445.617,519.567,445.059,527.947,444.465C536.327,443.871,544.707,443.207,553.088,442.579C561.468,441.95,569.848,441.321,578.228,440.692C586.608,440.064,594.988,439.435,603.368,438.806C611.748,438.177,620.129,437.514,628.509,436.92C636.889,436.326,645.269,435.802,653.649,435.243C662.029,434.685,670.409,434.091,678.789,433.567C687.169,433.043,695.55,432.589,703.93,432.1C712.31,431.611,720.69,431.122,729.07,430.633" style="fill: none; stroke: rgba(0, 0, 0, 0); stroke-width: 8px;"/><path d="M0,451.8 L729.0700004577636,451.8" style="opacity: 0; fill: none; stroke-dasharray: 2 3; stroke-dashoffset: 0; stroke-opacity: 0.8;"/></g></g><clipPath id="snap-0"><rect x="-2" y="-2" width="733.0700004577636" height="456.8"/></clipPath><defs><filter id="snap-1" filterUnits="objectBoundingBox"><feColorMatrix type="saturate" in="SourceGraphic" values="1.35"/></filter></defs><defs/></g></svg>