<svg style="font-family: Inter, Arial, &quot;Helvetica Neue&quot;, Helvetica, sans-serif;" xmlns="http://www.w3.org/2000/svg" height="460" width="520" viewBox="0 0 520 460" role="img"><g transform="translate(0,0)"><g transform="translate(260,230)"><path visibility="hidden" style="transition: fill 0ms; fill: #E7E9F3; stroke-width: 1px; stroke: #E7E9F3;" d="M0,-143.75A143.75,143.75,0,1,1,0,143.75A143.75,143.75,0,1,1,0,-143.75M0,-57.5A57.5,57.5,0,1,0,0,57.5A57.5,57.5,0,1,0,0,-57.5Z"/><path visibility="hidden" style="transition: fill 0ms; fill: #E7E9F3; stroke-width: 1px; stroke: #E7E9F3;" d="M0,-230A230,230,0,1,1,0,230A230,230,0,1,1,0,-230M0,-143.75A143.75,143.75,0,1,0,0,143.75A143.75,143.75,0,1,0,0,-143.75Z"/></g><g transform="translate(260,230)"><g><path unovis-pattern-index="0" style="fill: #4D8CFD; opacity: 1; transition: fill 0ms; stroke-width: 1px; stroke: #E7E9F3;" d="M0,-143.75A143.75,143.75,0,0,1,95.324,107.598L38.13,43.039A57.5,57.5,0,0,0,0,-57.5Z"/><text transform="translate(94.08600942021987,-35.682116758655134) rotate(-20.76923076923076)" style="opacity: 1; transition: fill 0ms; fill: #fff; text-anchor: middle; dominant-baseline: middle; user-select: none; font-size: 1em;" dy="0"><tspan x="0">Mobile App</tspan></text></g><g><path unovis-pattern-index="1" style="fill: #FF6B7E; opacity: 1; transition: fill 0ms; stroke-width: 1px; stroke: #E7E9F3;" d="M95.324,107.598A143.75,143.75,0,0,1,-142.702,-17.327L-57.081,-6.931A57.5,57.5,0,0,0,38.13,43.039Z"/><text transform="translate(-46.762769186904244,89.09901258135423) rotate(-62.30769230769229)" style="opacity: 1; transition: fill 0ms; fill: #fff; text-anchor: middle; dominant-baseline: middle; user-select: none; font-size: 1em;" dy="0"><tspan x="0">Web App</tspan></text></g><g><path unovis-pattern-index="2" style="fill: #F4B83E; opacity: 1; transition: fill 0ms; stroke-width: 1px; stroke: #E7E9F3;" d="M-142.702,-17.327A143.75,143.75,0,0,1,0,-143.75L0,-57.5A57.5,57.5,0,0,0,-57.081,-6.931Z"/><text transform="translate(-66.72671748548005,-75.31889403471702) rotate(48.46153846153845)" style="opacity: 1; transition: fill 0ms; fill: #5b5f6d; text-anchor: middle; dominant-baseline: middle; user-select: none; font-size: 1em;" dy="0"><tspan x="0">API</tspan></text></g><g><path unovis-pattern-index="0" style="fill: #4D8CFD; opacity: 1; transition: fill 0ms; fill-opacity: 0.75; stroke-width: 1px; stroke: #E7E9F3;" d="M0,-230A230,230,0,0,1,189.286,-130.655L118.304,-81.659A143.75,143.75,0,0,0,0,-143.75Z"/><text transform="translate(86.84514277567926,-165.4695947939436) rotate(-62.30769230769231)" style="opacity: 1; transition: fill 0ms; fill: #fff; text-anchor: middle; dominant-baseline: middle; user-select: none; font-size: 1em;" dy="0"><tspan x="0">High</tspan></text></g><g><path unovis-pattern-index="1" style="fill: #4D8CFD; opacity: 1; transition: fill 0ms; fill-opacity: 0.5; stroke-width: 1px; stroke: #E7E9F3;" d="M189.286,-130.655A230,230,0,0,1,228.323,-27.723L142.702,-17.327A143.75,143.75,0,0,0,118.304,-81.659Z"/><text transform="translate(174.7311603518369,-66.26678826607382) rotate(-20.76923076923076)" style="opacity: 1; transition: fill 0ms; fill: #5b5f6d; text-anchor: middle; dominant-baseline: middle; user-select: none; font-size: 1em;" dy="0"><tspan x="0">Medium</tspan></text></g><g><path unovis-pattern-index="2" style="fill: #4D8CFD; opacity: 1; transition: fill 0ms; fill-opacity: 0.25; stroke-width: 1px; stroke: #E7E9F3;" d="M228.323,-27.723A230,230,0,0,1,152.518,172.157L95.324,107.598A143.75,143.75,0,0,0,142.702,-17.327Z"/><text transform="translate(174.73116035183688,66.2667882660739) rotate(20.769230769230788)" style="opacity: 1; transition: fill 0ms; fill: #5b5f6d; text-anchor: middle; dominant-baseline: middle; user-select: none; font-size: 1em;" dy="0"><tspan x="0">Low</tspan></text></g><g><path unovis-pattern-index="0" style="fill: #FF6B7E; opacity: 1; transition: fill 0ms; fill-opacity: 0.75; stroke-width: 1px; stroke: #E7E9F3;" d="M152.518,172.157A230,230,0,0,1,55.043,223.317L34.402,139.573A143.75,143.75,0,0,0,95.324,107.598Z"/><text transform="translate(86.8451427756792,165.46959479394363) rotate(62.30769230769232)" style="opacity: 1; transition: fill 0ms; fill: #fff; text-anchor: middle; dominant-baseline: middle; user-select: none; font-size: 1em;" dy="0"><tspan x="0">High</tspan></text></g><g><path unovis-pattern-index="1" style="fill: #FF6B7E; opacity: 1; transition: fill 0ms; fill-opacity: 0.5; stroke-width: 1px; stroke: #E7E9F3;" d="M55.043,223.317A230,230,0,0,1,-215.054,81.559L-134.409,50.974A143.75,143.75,0,0,0,34.402,139.573Z"/><text transform="translate(-86.8451427756793,165.46959479394357) rotate(-62.30769230769229)" style="opacity: 1; transition: fill 0ms; fill: #5b5f6d; text-anchor: middle; dominant-baseline: middle; user-select: none; font-size: 1em;" dy="0"><tspan x="0">Medium</tspan></text></g><g><path unovis-pattern-index="2" style="fill: #FF6B7E; opacity: 1; transition: fill 0ms; fill-opacity: 0.25; stroke-width: 1px; stroke: #E7E9F3;" d="M-215.054,81.559A230,230,0,0,1,-228.323,-27.723L-142.702,-17.327A143.75,143.75,0,0,0,-134.409,50.974Z"/><text transform="translate(-185.51247084707387,22.525292122713417) rotate(-6.923076923076906)" style="opacity: 1; transition: fill 0ms; fill: #5b5f6d; text-anchor: middle; dominant-baseline: middle; user-select: none; font-size: 1em;" dy="0"><tspan x="0">Low</tspan></text></g><g><path unovis-pattern-index="0" style="fill: #F4B83E; opacity: 1; transition: fill 0ms; fill-opacity: 0.6666666666666667; stroke-width: 1px; stroke: #E7E9F3;" d="M-228.323,-27.723A230,230,0,0,1,-189.286,-130.655L-118.304,-81.659A143.75,143.75,0,0,0,-142.702,-17.327Z"/><text transform="translate(-174.7311603518369,-66.26678826607385) rotate(20.769230769230774)" style="opacity: 1; transition: fill 0ms; fill: #5b5f6d; text-anchor: middle; dominant-baseline: middle; user-select: none; font-size: 1em;" dy="0"><tspan x="0">High</tspan></text></g><g><path unovis-pattern-index="1" style="fill: #F4B83E; opacity: 1; transition: fill 0ms; fill-opacity: 0.33333333333333337; stroke-width: 1px; stroke: #E7E9F3;" d="M-189.286,-130.655A230,230,0,0,1,0,-230L0,-143.75A143.75,143.75,0,0,0,-118.304,-81.659Z"/><text transform="translate(-86.84514277567921,-165.46959479394363) rotate(62.30769230769232)" style="opacity: 1; transition: fill 0ms; fill: #5b5f6d; text-anchor: middle; dominant-baseline: middle; user-select: none; font-size: 1em;" dy="0"><tspan x="0">Low</tspan></text></g></g><text transform="translate(260,230)" style="text-anchor: middle; dominant-baseline: middle; font-size: 16px; font-family: Inter, Arial, &quot;Helvetica Neue&quot;, Helvetica, sans-serif; font-weight: 600; fill: #5b5f6d;"/><text transform="translate(260,230)" style="text-anchor: middle; dominant-baseline: middle; font-size: 12px; font-family: Inter, Arial, &quot;Helvetica Neue&quot;, Helvetica, sans-serif; font-weight: 500; fill: #5b5f6d;"/></g><defs/><defs/></svg>