<svg style="font-family: Inter, Arial, &quot;Helvetica Neue&quot;, Helvetica, sans-serif;" xmlns="http://www.w3.org/2000/svg" height="464" width="800" viewBox="0 0 800 464" role="img"><title>Monthly Budget Flow</title><g><text x="16" y="28" font-size="16" font-weight="600" fill="#1f2937">Monthly Budget Flow</text></g><g transform="translate(16,56)"><g transform="translate(0,0)"><rect style="pointer-events: all;" width="768" height="392" opacity="0"/><g transform="translate(96.19300117492676,14.333333333333334)"><g style="opacity: 1;"><path d="&#xA;    M 25, 3.641231222815577&#xA;&#xA;    C 150.27450008392333, 3.641231222815577&#xA;      150.27450008392333, 6.016581754608239&#xA;      275.54900016784666, 6.016581754608239&#xA;&#xA;    L 275.54900016784666, 267.0670868051133&#xA;&#xA;    C 150.27450008392333, 267.0670868051133&#xA;      150.27450008392333, 264.69173627332066&#xA;      25, 264.69173627332066&#xA;    z&#xA;  " style="cursor: default; fill: #d0e0fe; fill-opacity: 0.5;"/><path d="&#xA;    M 25, 3.641231222815577&#xA;&#xA;    C 150.27450008392333, 3.641231222815577&#xA;      150.27450008392333, 6.016581754608239&#xA;      275.54900016784666, 6.016581754608239&#xA;&#xA;    L 275.54900016784666, 267.0670868051133&#xA;&#xA;    C 150.27450008392333, 267.0670868051133&#xA;      150.27450008392333, 264.69173627332066&#xA;      25, 264.69173627332066&#xA;    z&#xA;  " style="cursor: default; fill: #d0e0fe; fill-opacity: 0.5; opacity: 0;"/></g><g style="opacity: 1;"><path d="&#xA;    M 25, 272.6917362689641&#xA;&#xA;    C 150.27450008392333, 272.6917362689641&#xA;      150.27450008392333, 267.0670868051133&#xA;      275.54900016784666, 267.0670868051133&#xA;&#xA;    L 275.54900016784666, 337.3499150879416&#xA;&#xA;    C 150.27450008392333, 337.3499150879416&#xA;      150.27450008392333, 342.9745645517924&#xA;      25, 342.9745645517924&#xA;    z&#xA;  " style="cursor: default; fill: #d0e0fe; fill-opacity: 0.5;"/><path d="&#xA;    M 25, 272.6917362689641&#xA;&#xA;    C 150.27450008392333, 272.6917362689641&#xA;      150.27450008392333, 267.0670868051133&#xA;      275.54900016784666, 267.0670868051133&#xA;&#xA;    L 275.54900016784666, 337.3499150879416&#xA;&#xA;    C 150.27450008392333, 337.3499150879416&#xA;      150.27450008392333, 342.9745645517924&#xA;      25, 342.9745645517924&#xA;    z&#xA;  " style="cursor: default; fill: #d0e0fe; fill-opacity: 0.5; opacity: 0;"/></g><g style="opacity: 1;"><path d="&#xA;    M 300.54900016784666, 129.01153124955775&#xA;&#xA;    C 425.82350025177, 129.01153124955775&#xA;      425.82350025177, 130.99494949494942&#xA;      551.0980003356933, 130.99494949494942&#xA;&#xA;    L 551.0980003356933, 236.41919191919186&#xA;&#xA;    C 425.82350025177, 236.41919191919186&#xA;      425.82350025177, 234.43577367380018&#xA;      300.54900016784666, 234.43577367380018&#xA;    z&#xA;  " style="cursor: default; fill: #d0e0fe; fill-opacity: 0.5;"/><path d="&#xA;    M 300.54900016784666, 129.01153124955775&#xA;&#xA;    C 425.82350025177, 129.01153124955775&#xA;      425.82350025177, 130.99494949494942&#xA;      551.0980003356933, 130.99494949494942&#xA;&#xA;    L 551.0980003356933, 236.41919191919186&#xA;&#xA;    C 425.82350025177, 236.41919191919186&#xA;      425.82350025177, 234.43577367380018&#xA;      300.54900016784666, 234.43577367380018&#xA;    z&#xA;  " style="cursor: default; fill: #d0e0fe; fill-opacity: 0.5; opacity: 0;"/></g><g style="opacity: 1;"><path d="&#xA;    M 300.54900016784666, 234.43577367380018&#xA;&#xA;    C 425.82350025177, 234.43577367380018&#xA;      425.82350025177, 244.41919191919177&#xA;      551.0980003356933, 244.41919191919177&#xA;&#xA;    L 551.0980003356933, 289.60101010100993&#xA;&#xA;    C 425.82350025177, 289.60101010100993&#xA;      425.82350025177, 279.61759185561834&#xA;      300.54900016784666, 279.61759185561834&#xA;    z&#xA;  " style="cursor: default; fill: #d0e0fe; fill-opacity: 0.5;"/><path d="&#xA;    M 300.54900016784666, 234.43577367380018&#xA;&#xA;    C 425.82350025177, 234.43577367380018&#xA;      425.82350025177, 244.41919191919177&#xA;      551.0980003356933, 244.41919191919177&#xA;&#xA;    L 551.0980003356933, 289.60101010100993&#xA;&#xA;    C 425.82350025177, 289.60101010100993&#xA;      425.82350025177, 279.61759185561834&#xA;      300.54900016784666, 279.61759185561834&#xA;    z&#xA;  " style="cursor: default; fill: #d0e0fe; fill-opacity: 0.5; opacity: 0;"/></g><g style="opacity: 1;"><path d="&#xA;    M 300.54900016784666, 319.7792080172345&#xA;&#xA;    C 425.82350025177, 319.7792080172345&#xA;      425.82350025177, 345.76262626262604&#xA;      551.0980003356933, 345.76262626262604&#xA;&#xA;    L 551.0980003356933, 363.3333333333331&#xA;&#xA;    C 425.82350025177, 363.3333333333331&#xA;      425.82350025177, 337.34991508794155&#xA;      300.54900016784666, 337.34991508794155&#xA;    z&#xA;  " style="cursor: default; fill: #d0e0fe; fill-opacity: 0.5;"/><path d="&#xA;    M 300.54900016784666, 319.7792080172345&#xA;&#xA;    C 425.82350025177, 319.7792080172345&#xA;      425.82350025177, 345.76262626262604&#xA;      551.0980003356933, 345.76262626262604&#xA;&#xA;    L 551.0980003356933, 363.3333333333331&#xA;&#xA;    C 425.82350025177, 363.3333333333331&#xA;      425.82350025177, 337.34991508794155&#xA;      300.54900016784666, 337.34991508794155&#xA;    z&#xA;  " style="cursor: default; fill: #d0e0fe; fill-opacity: 0.5; opacity: 0;"/></g><g style="opacity: 1;"><path d="&#xA;    M 300.54900016784666, 6.016581754608239&#xA;&#xA;    C 425.82350025177, 6.016581754608239&#xA;      425.82350025177, 0&#xA;      551.0980003356933, 0&#xA;&#xA;    L 551.0980003356933, 122.99494949494951&#xA;&#xA;    C 425.82350025177, 122.99494949494951&#xA;      425.82350025177, 129.01153124955775&#xA;      300.54900016784666, 129.01153124955775&#xA;    z&#xA;  " style="cursor: default; fill: #d0e0fe; fill-opacity: 0.5;"/><path d="&#xA;    M 300.54900016784666, 6.016581754608239&#xA;&#xA;    C 425.82350025177, 6.016581754608239&#xA;      425.82350025177, 0&#xA;      551.0980003356933, 0&#xA;&#xA;    L 551.0980003356933, 122.99494949494951&#xA;&#xA;    C 425.82350025177, 122.99494949494951&#xA;      425.82350025177, 129.01153124955775&#xA;      300.54900016784666, 129.01153124955775&#xA;    z&#xA;  " style="cursor: default; fill: #d0e0fe; fill-opacity: 0.5; opacity: 0;"/></g><g style="opacity: 1;"><path d="&#xA;    M 300.54900016784666, 279.61759185561834&#xA;&#xA;    C 425.82350025177, 279.61759185561834&#xA;      425.82350025177, 297.6010101010099&#xA;      551.0980003356933, 297.6010101010099&#xA;&#xA;    L 551.0980003356933, 337.76262626262604&#xA;&#xA;    C 425.82350025177, 337.76262626262604&#xA;      425.82350025177, 319.7792080172345&#xA;      300.54900016784666, 319.7792080172345&#xA;    z&#xA;  " style="cursor: default; fill: #d0e0fe; fill-opacity: 0.5;"/><path d="&#xA;    M 300.54900016784666, 279.61759185561834&#xA;&#xA;    C 425.82350025177, 279.61759185561834&#xA;      425.82350025177, 297.6010101010099&#xA;      551.0980003356933, 297.6010101010099&#xA;&#xA;    L 551.0980003356933, 337.76262626262604&#xA;&#xA;    C 425.82350025177, 337.76262626262604&#xA;      425.82350025177, 319.7792080172345&#xA;      300.54900016784666, 319.7792080172345&#xA;    z&#xA;  " style="cursor: default; fill: #d0e0fe; fill-opacity: 0.5; opacity: 0;"/></g></g><g transform="translate(96.19300117492676,14.333333333333334)"><g transform="translate(0,3.641231222815577)" style="opacity: 1;"><rect width="31" height="267.0505050505048" x="-3" y="-3" style="opacity: 0; fill: none; stroke: #4D8CFD; stroke-width: 1.5px; stroke-opacity: 0.6;"/><rect width="25" height="261.0505050505048" style="cursor: default; fill: #4D8CFD; opacity: 0.9;"/><g transform="translate(-10,118.50325252525239)" style="cursor: default;"><path style="stroke: #eaeaea; fill: #ffffff; opacity: 0.9;"/><text font-size="12" transform="translate(0,0)" text-anchor="end" style="dominant-baseline: hanging; fill: #575c65; text-decoration: none; font-weight: 600; user-select: none; font-family: Inter, Arial, &quot;Helvetica Neue&quot;, Helvetica, sans-serif;">Salary</text><text font-size="10" transform="translate(0,13.144)" text-anchor="end" style="dominant-baseline: hanging; fill: #575c65; user-select: none; font-family: Inter, Arial, &quot;Helvetica Neue&quot;, Helvetica, sans-serif; font-weight: 500;">5,200 USD</text></g><text text-anchor="middle" visibility="hidden" style="font-family: FontAwesome; text-anchor: middle; font-size: 22px; fill: #ffffff; stroke: #4D8CFD; stroke-opacity: 0.6; user-select: none; pointer-events: none; dominant-baseline: central;"/></g><g transform="translate(0,272.6917362689641)" style="opacity: 1;"><rect width="31" height="76.2828282828284" x="-3" y="-3" style="opacity: 0; fill: none; stroke: #4D8CFD; stroke-width: 1.5px; stroke-opacity: 0.6;"/><rect width="25" height="70.2828282828284" style="cursor: default; fill: #4D8CFD; opacity: 0.9;"/><g transform="translate(-10,23.119414141414204)" style="cursor: default;"><path style="stroke: #eaeaea; fill: #ffffff; opacity: 0.9;"/><text font-size="12" transform="translate(0,0)" text-anchor="end" style="dominant-baseline: hanging; fill: #575c65; text-decoration: none; font-weight: 600; user-select: none; font-family: Inter, Arial, &quot;Helvetica Neue&quot;, Helvetica, sans-serif;">Freelance</text><text font-size="10" transform="translate(0,13.144)" text-anchor="end" style="dominant-baseline: hanging; fill: #575c65; user-select: none; font-family: Inter, Arial, &quot;Helvetica Neue&quot;, Helvetica, sans-serif; font-weight: 500;">1,400 USD</text></g><text text-anchor="middle" visibility="hidden" style="font-family: FontAwesome; text-anchor: middle; font-size: 22px; fill: #ffffff; stroke: #4D8CFD; stroke-opacity: 0.6; user-select: none; pointer-events: none; dominant-baseline: central;"/></g><g transform="translate(275.54900016784666,6.016581754608239)" style="opacity: 1;"><rect width="31" height="337.3333333333336" x="-3" y="-3" style="opacity: 0; fill: none; stroke: #4D8CFD; stroke-width: 1.5px; stroke-opacity: 0.6;"/><rect width="25" height="331.3333333333336" style="cursor: default; fill: #4D8CFD; opacity: 0.9;"/><g transform="translate(-10,153.6446666666668)" style="cursor: default;"><path style="stroke: #eaeaea; fill: #ffffff; opacity: 0.9;"/><text font-size="12" transform="translate(0,0)" text-anchor="end" style="dominant-baseline: hanging; fill: #575c65; text-decoration: none; font-weight: 600; user-select: none; font-family: Inter, Arial, &quot;Helvetica Neue&quot;, Helvetica, sans-serif;">Budget</text><text font-size="10" transform="translate(0,13.144)" text-anchor="end" style="dominant-baseline: hanging; fill: #575c65; user-select: none; font-family: Inter, Arial, &quot;Helvetica Neue&quot;, Helvetica, sans-serif; font-weight: 500;">6,600 USD</text></g><text text-anchor="middle" visibility="hidden" style="font-family: FontAwesome; text-anchor: middle; font-size: 22px; fill: #ffffff; stroke: #4D8CFD; stroke-opacity: 0.6; user-select: none; pointer-events: none; dominant-baseline: central;"/></g><g transform="translate(551.0980003356933,130.99494949494942)" style="opacity: 1;"><rect width="31" height="111.42424242424238" x="-3" y="-3" style="opacity: 0; fill: none; stroke: #4D8CFD; stroke-width: 1.5px; stroke-opacity: 0.6;"/><rect width="25" height="105.42424242424238" style="cursor: default; fill: #4D8CFD; opacity: 0.9;"/><g transform="translate(35,40.69012121212119)" style="cursor: default;"><path style="stroke: #eaeaea; fill: #ffffff; opacity: 0.9;"/><text font-size="12" transform="translate(0,0)" text-anchor="start" style="dominant-baseline: hanging; fill: #575c65; text-decoration: none; font-weight: 600; user-select: none; font-family: Inter, Arial, &quot;Helvetica Neue&quot;, Helvetica, sans-serif;">Rent</text><text font-size="10" transform="translate(0,13.144)" text-anchor="start" style="dominant-baseline: hanging; fill: #575c65; user-select: none; font-family: Inter, Arial, &quot;Helvetica Neue&quot;, Helvetica, sans-serif; font-weight: 500;">2,100 USD</text></g><text text-anchor="middle" visibility="hidden" style="font-family: FontAwesome; text-anchor: middle; font-size: 22px; fill: #ffffff; stroke: #4D8CFD; stroke-opacity: 0.6; user-select: none; pointer-events: none; dominant-baseline: central;"/></g><g transform="translate(551.0980003356933,244.41919191919175)" style="opacity: 1;"><rect width="31" height="51.18181818181813" x="-3" y="-3" style="opacity: 0; fill: none; stroke: #4D8CFD; stroke-width: 1.5px; stroke-opacity: 0.6;"/><rect width="25" height="45.18181818181813" style="cursor: default; fill: #4D8CFD; opacity: 0.9;"/><g transform="translate(35,10.568909090909065)" style="cursor: default;"><path style="stroke: #eaeaea; fill: #ffffff; opacity: 0.9;"/><text font-size="12" transform="translate(0,0)" text-anchor="start" style="dominant-baseline: hanging; fill: #575c65; text-decoration: none; font-weight: 600; user-select: none; font-family: Inter, Arial, &quot;Helvetica Neue&quot;, Helvetica, sans-serif;">Groceries</text><text font-size="10" transform="translate(0,13.144)" text-anchor="start" style="dominant-baseline: hanging; fill: #575c65; user-select: none; font-family: Inter, Arial, &quot;Helvetica Neue&quot;, Helvetica, sans-serif; font-weight: 500;">900 USD</text></g><text text-anchor="middle" visibility="hidden" style="font-family: FontAwesome; text-anchor: middle; font-size: 22px; fill: #ffffff; stroke: #4D8CFD; stroke-opacity: 0.6; user-select: none; pointer-events: none; dominant-baseline: central;"/></g><g transform="translate(551.0980003356933,345.76262626262604)" style="opacity: 1;"><rect width="31" height="23.570707070707044" x="-3" y="-3" style="opacity: 0; fill: none; stroke: #4D8CFD; stroke-width: 1.5px; stroke-opacity: 0.6;"/><rect width="25" height="17.570707070707044" style="cursor: default; fill: #4D8CFD; opacity: 0.9;"/><g transform="translate(35,-3.236646464646478)" style="cursor: default;"><path style="stroke: #eaeaea; fill: #ffffff; opacity: 0.9;"/><text font-size="12" transform="translate(0,0)" text-anchor="start" style="dominant-baseline: hanging; fill: #575c65; text-decoration: none; font-weight: 600; user-select: none; font-family: Inter, Arial, &quot;Helvetica Neue&quot;, Helvetica, sans-serif;">Transport</text><text font-size="10" transform="translate(0,13.144)" text-anchor="start" style="dominant-baseline: hanging; fill: #575c65; user-select: none; font-family: Inter, Arial, &quot;Helvetica Neue&quot;, Helvetica, sans-serif; font-weight: 500;">350 USD</text></g><text text-anchor="middle" visibility="hidden" style="font-family: FontAwesome; text-anchor: middle; font-size: 22px; fill: #ffffff; stroke: #4D8CFD; stroke-opacity: 0.6; user-select: none; pointer-events: none; dominant-baseline: central;"/></g><g transform="translate(551.0980003356933,0)" style="opacity: 1;"><rect width="31" height="128.99494949494942" x="-3" y="-3" style="opacity: 0; fill: none; stroke: #4D8CFD; stroke-width: 1.5px; stroke-opacity: 0.6;"/><rect width="25" height="122.99494949494944" style="cursor: default; fill: #4D8CFD; opacity: 0.9;"/><g transform="translate(35,49.47547474747472)" style="cursor: default;"><path style="stroke: #eaeaea; fill: #ffffff; opacity: 0.9;"/><text font-size="12" transform="translate(0,0)" text-anchor="start" style="dominant-baseline: hanging; fill: #575c65; text-decoration: none; font-weight: 600; user-select: none; font-family: Inter, Arial, &quot;Helvetica Neue&quot;, Helvetica, sans-serif;">Savings</text><text font-size="10" transform="translate(0,13.144)" text-anchor="start" style="dominant-baseline: hanging; fill: #575c65; user-select: none; font-family: Inter, Arial, &quot;Helvetica Neue&quot;, Helvetica, sans-serif; font-weight: 500;">2,450 USD</text></g><text text-anchor="middle" visibility="hidden" style="font-family: FontAwesome; text-anchor: middle; font-size: 22px; fill: #ffffff; stroke: #4D8CFD; stroke-opacity: 0.6; user-select: none; pointer-events: none; dominant-baseline: central;"/></g><g transform="translate(551.0980003356933,297.6010101010099)" style="opacity: 1;"><rect width="31" height="46.161616161616166" x="-3" y="-3" style="opacity: 0; fill: none; stroke: #4D8CFD; stroke-width: 1.5px; stroke-opacity: 0.6;"/><rect width="25" height="40.161616161616166" style="cursor: default; fill: #4D8CFD; opacity: 0.9;"/><g transform="translate(35,8.058808080808083)" style="cursor: default;"><path style="stroke: #eaeaea; fill: #ffffff; opacity: 0.9;"/><text font-size="12" transform="translate(0,0)" text-anchor="start" style="dominant-baseline: hanging; fill: #575c65; text-decoration: none; font-weight: 600; user-select: none; font-family: Inter, Arial, &quot;Helvetica Neue&quot;, Helvetica, sans-serif;">Leisure</text><text font-size="10" transform="translate(0,13.144)" text-anchor="start" style="dominant-baseline: hanging; fill: #575c65; user-select: none; font-family: Inter, Arial, &quot;Helvetica Neue&quot;, Helvetica, sans-serif; font-weight: 500;">800 USD</text></g><text text-anchor="middle" visibility="hidden" style="font-family: FontAwesome; text-anchor: middle; font-size: 22px; fill: #ffffff; stroke: #4D8CFD; stroke-opacity: 0.6; user-select: none; pointer-events: none; dominant-baseline: central;"/></g></g></g><defs/><defs/></g></svg>