<svg xmlns="http://www.w3.org/2000/svg" width="130" height="36" viewBox="0 0 130 36" fill="none">
  <path fill="#fff" d="M37.341 26.015V10.517h8.977v2.226h-6.29v4.28h5.866v2.227h-5.866v4.538h6.382v2.227h-9.069"/>
  <path fill="#fff" d="M50.637 14.362l2.3 4.302 2.34-4.302h2.842l-3.437 5.827 3.497 5.826H55.35l-2.412-4.195-2.39 4.195h-2.85l3.473-5.826-3.385-5.827h2.85M63.438 26.25c-.723 0-1.373-.131-1.953-.395a3.205 3.205 0 0 1-1.365-1.183c-.332-.52-.498-1.163-.498-1.927 0-.657.12-1.201.357-1.63.237-.43.561-.775.972-1.033.41-.258.874-.452 1.388-.584.52-.136 1.057-.235 1.611-.296.668-.07 1.21-.134 1.626-.19.415-.06.717-.151.905-.272.193-.127.29-.321.29-.584v-.046c0-.572-.166-1.014-.498-1.328-.331-.313-.809-.47-1.432-.47-.658 0-1.18.147-1.566.44-.382.293-.639.64-.773 1.04l-2.509-.365c.198-.708.525-1.3.98-1.775a4.251 4.251 0 0 1 1.67-1.077c.659-.243 1.386-.364 2.183-.364.55 0 1.096.065 1.64.197a4.565 4.565 0 0 1 1.492.652c.45.299.812.706 1.084 1.222.277.516.416 1.16.416 1.934v7.799h-2.583v-1.6h-.09a3.345 3.345 0 0 1-.69.91c-.292.278-.66.503-1.106.675-.44.167-.957.25-1.551.25m.697-2.018c.54 0 1.008-.109 1.403-.326.396-.223.7-.516.913-.88.218-.364.327-.761.327-1.191v-1.373c-.084.07-.228.136-.43.197-.198.06-.421.114-.668.16-.248.045-.493.085-.735.12a164.8 164.8 0 0 1-.631.092c-.401.055-.76.146-1.077.273a1.788 1.788 0 0 0-.75.53c-.183.223-.274.512-.274.866 0 .505.18.887.542 1.145.361.258.821.387 1.38.387M77.935 14.362v2.125h-6.74v-2.125h6.74M72.88 26.015V13.262c0-.784.158-1.436.475-1.957.322-.52.752-.91 1.291-1.168a4.11 4.11 0 0 1 1.797-.387c.465 0 .878.038 1.24.114.36.076.628.144.801.205l-.534 2.124a4.568 4.568 0 0 0-.43-.106 2.547 2.547 0 0 0-.58-.061c-.5 0-.853.124-1.061.372-.203.242-.305.591-.305 1.047v12.57H72.88M84.584 26.242c-1.113 0-2.078-.25-2.895-.75-.816-.501-1.45-1.202-1.9-2.102-.446-.9-.668-1.952-.668-3.156 0-1.204.222-2.258.668-3.163.45-.906 1.084-1.609 1.9-2.11.817-.5 1.782-.75 2.895-.75 1.114 0 2.078.25 2.895.75.817.501 1.448 1.204 1.893 2.11.45.905.675 1.96.675 3.163 0 1.204-.225 2.256-.675 3.156-.445.9-1.076 1.6-1.893 2.101-.817.501-1.781.751-2.895.751m.015-2.2c.604 0 1.108-.169 1.514-.508.406-.344.708-.804.906-1.38a5.774 5.774 0 0 0 .304-1.927c0-.714-.101-1.358-.304-1.935-.198-.582-.5-1.044-.906-1.388-.406-.344-.91-.516-1.514-.516-.619 0-1.133.172-1.544.516-.406.344-.71.806-.913 1.388-.198.577-.297 1.221-.297 1.935 0 .708.099 1.35.297 1.926.203.577.507 1.037.913 1.381.41.339.925.508 1.544.508M92.328 26.015V14.362h2.606v1.943h.118c.208-.673.565-1.192 1.07-1.556a2.898 2.898 0 0 1 1.744-.554c.148 0 .314.008.497.023.188.01.344.028.468.053v2.527a2.765 2.765 0 0 0-.542-.107 4.882 4.882 0 0 0-.705-.053c-.49 0-.93.109-1.322.326-.386.213-.69.509-.913.888-.222.38-.334.817-.334 1.313v6.85h-2.687M105.12 26.242c-1.138 0-2.116-.255-2.932-.766a5.073 5.073 0 0 1-1.878-2.116c-.436-.906-.654-1.947-.654-3.126 0-1.183.223-2.228.669-3.133.445-.91 1.073-1.618 1.885-2.124.817-.51 1.782-.766 2.895-.766.925 0 1.744.174 2.457.523a4.222 4.222 0 0 1 1.715 1.464c.425.627.668 1.36.727 2.2h-2.568a2.526 2.526 0 0 0-.742-1.403c-.386-.38-.904-.57-1.552-.57-.549 0-1.032.153-1.447.456-.416.298-.74.728-.973 1.29-.227.561-.341 1.234-.341 2.018 0 .794.114 1.476.341 2.048.228.566.547 1.004.958 1.312.416.304.903.456 1.462.456.396 0 .75-.076 1.062-.228.316-.157.581-.382.794-.675.213-.294.359-.65.438-1.07h2.568c-.064.824-.302 1.555-.712 2.192a4.249 4.249 0 0 1-1.678 1.487c-.708.354-1.539.531-2.494.531M117.258 26.242c-1.143 0-2.13-.242-2.961-.728a4.884 4.884 0 0 1-1.908-2.078c-.446-.9-.668-1.96-.668-3.18 0-1.198.222-2.25.668-3.155.45-.91 1.079-1.618 1.885-2.124.807-.51 1.755-.766 2.843-.766.703 0 1.366.116 1.99.349a4.483 4.483 0 0 1 1.662 1.062c.485.48.866 1.092 1.144 1.836.277.738.415 1.618.415 2.64v.842h-9.345v-1.851h6.77a3.004 3.004 0 0 0-.335-1.404 2.454 2.454 0 0 0-.913-.978c-.386-.238-.836-.357-1.351-.357-.549 0-1.031.137-1.447.41a2.79 2.79 0 0 0-.972 1.062 3.107 3.107 0 0 0-.349 1.434v1.615c0 .678.121 1.26.363 1.745.243.48.582.85 1.017 1.108.436.253.946.38 1.529.38a3.19 3.19 0 0 0 1.062-.168c.317-.116.591-.285.824-.508.233-.223.408-.498.527-.827l2.509.288a4.019 4.019 0 0 1-.906 1.776c-.44.5-1.004.89-1.692 1.168-.688.273-1.475.41-2.361.41"/>
  <g transform="translate(7.459, 8.5)">
    <path d="M19.674 0.03907C19.707 0.00018 19.7665 -0.01088 19.8127 0.01134C19.8588 0.02802 19.8916 0.07815 19.8916 0.12813V5.24454C19.8916 5.29451 19.8655 5.3391 19.8193 5.36134L10.1393 10L19.8193 14.6391C19.8654 14.6613 19.8916 14.7056 19.8916 14.7555V19.8723C19.8916 19.9223 19.8589 19.9668 19.8127 19.9891C19.7996 20.0001 19.7863 20 19.7666 20C19.7336 20 19.674 19.9609 19.674 19.9609L9.89507 10.2336L0.116221 19.9609C0.0898784 19.9887 0.0569517 20 0.024025 20C0.0108433 20 -0.00926924 19.9946 -0.0224466 19.9891C-0.0685437 19.9724 -0.101338 19.9222 -0.101358 19.8723V14.7555C-0.101307 14.7055 -0.0748055 14.6613 -0.0286978 14.6391L9.64471 10L-0.0353443 5.36134C-0.0815017 5.33911 -0.108 5.29454 -0.108 5.24454V0.12813C-0.108 0.07819 -0.0685467 0.02806 -0.0224486 0.01134C0.0237004 -0.01088 0.0766573 0.0002 0.116216 0.03907L9.89507 9.7668L19.674 0.03907Z" fill="#fff"/>
    <path d="M0.0435588 8.5337L6.53223 9.8724C6.59154 9.889 6.631 9.9391 6.63106 10.0001C6.63106 10.0612 6.59155 10.1167 6.53223 10.1278L0.0435588 11.4669H0.0173911C-0.00898864 11.4669 -0.0421162 11.4558 -0.0619125 11.4392C-0.0882589 11.417 -0.107983 11.378 -0.108 11.3392V8.6614C-0.108 8.6226 -0.0882526 8.5837 -0.0619108 8.5614C-0.035549 8.5337 0.00402881 8.5282 0.0435588 8.5337Z" fill="#fff"/>
    <path d="M19.7404 8.5336C19.78 8.5281 19.8195 8.5391 19.8459 8.5613C19.8723 8.5891 19.892 8.6225 19.892 8.6613V11.3391C19.892 11.3779 19.8723 11.4168 19.8459 11.4391C19.8261 11.4557 19.793 11.4668 19.7666 11.4668H19.7404L13.2518 10.1281C13.1924 10.1115 13.1529 10.0611 13.1529 10C13.153 9.939 13.1925 9.8834 13.2518 9.8723L19.7404 8.5336Z" fill="#fff"/>
  </g>
</svg>
