<?xml version="1.0" standalone="no"?>
<!DOCTYPE svg PUBLIC "-//W3C//DTD SVG 1.1//EN" "http://www.w3.org/Graphics/SVG/1.1/DTD/svg11.dtd" >
<svg xmlns="http://www.w3.org/2000/svg">
<metadata>Generated by IcoMoon</metadata>
<defs>
<font id="voltuiicons" horiz-adv-x="1024">
<font-face units-per-em="1024" ascent="960" descent="-64" />
<missing-glyph horiz-adv-x="1024" />
<glyph unicode="&#x20;" horiz-adv-x="512" d="" />
<glyph unicode="&#xe900;" glyph-name="arrow" d="M57.008 391.152h772.912l-187.424-187.52c-22.336-22.16-22.336-58.144 0-80.496 22.176-22.176 58.16-22.176 80.32 0l284.384 284.528c2.704 2.704 5.12 5.68 7.248 8.896 0.592 0.864 0.976 1.808 1.488 2.72 1.36 2.32 2.72 4.624 3.744 7.104 0.4 1.008 0.608 2.048 0.96 3.040 0.864 2.48 1.728 4.992 2.256 7.648 0.144 0.72 0.112 1.456 0.224 2.192 0.448 2.848 0.88 5.712 0.88 8.72 0 2.992-0.432 5.84-0.896 8.72-0.112 0.72-0.080 1.456-0.224 2.208-0.512 2.64-1.392 5.104-2.256 7.632-0.336 1.008-0.544 2.048-0.96 3.040-1.024 2.48-2.384 4.8-3.744 7.104-0.512 0.896-0.896 1.856-1.488 2.72-2.128 3.2-4.544 6.192-7.248 8.88l-284.368 284.56c-10.992 10.992-25.568 16.672-40.144 16.672-14.592 0-29.184-5.68-40.176-16.672-22.336-22.352-22.336-58.336 0-80.512l187.424-187.536h-772.912c-31.44 0-57.008-25.376-57.008-56.816 0-31.456 25.568-56.832 57.008-56.832z" />
<glyph unicode="&#xe901;" glyph-name="arrow-alt" d="M413.216 134.096c-27.84-25.008-67.424-19.712-67.424 17.696v559.808c0 37.408 36.624 53.024 64.448 28.016l287.888-258.512c27.824-25.008 27.84-65.92 0.016-90.928l-284.928-256.080z" />
<glyph unicode="&#xe902;" glyph-name="activity" d="M515.424 639.264c-23.056 0-41.712-18.672-41.712-41.696v-211.92c0-23.056 18.656-41.712 41.712-41.712h191.328c23.056 0 41.712 18.656 41.712 41.712 0 23.040-18.656 41.712-41.712 41.712h-149.6v170.208c0 23.024-18.688 41.696-41.728 41.696zM857.088 810.32c-96.784 82.72-219.632 122.848-346.992 112.816-126.928-9.968-242.368-68.784-325.072-165.6-57.888-67.68-93.776-149.040-107.312-236.144l-6.384 6.448c-16.16 16.352-42.544 16.544-58.96 0.32-16.352-16.16-16.544-42.528-0.32-58.96l74.416-75.296c8.144-8.272 18.864-12.4 29.632-12.4 10.592 0 21.184 4.016 29.328 12.032l75.808 74.848c16.352 16.224 16.544 42.608 0.368 59.008-16.096 16.16-41.92 16.352-58.336 0.816 13.344 64.336 41.792 124.384 85.136 175.168 68.224 79.872 163.44 128.384 268.192 136.624 105.2 7.936 206.48-24.864 286.352-93.088 164.88-140.896 184.432-389.648 43.6-554.544-140.88-164.96-389.648-184.416-554.656-43.6-17.472 14.976-43.92 12.896-58.768-4.64-14.976-17.488-12.912-43.792 4.64-58.768 89.648-76.544 199.712-114.016 309.28-114.016 134.752 0 268.752 56.64 362.912 166.896 170.736 199.856 147.056 501.328-52.864 672.080z" />
<glyph unicode="&#xe903;" glyph-name="chart-advanced" d="M75.2 584c-19.2 0-35.2-16-35.2-35.2v-385.6c0-19.2 16-35.2 35.2-35.2s35.2 16 35.2 35.2v385.6c0 20.8-16 35.2-35.2 35.2zM211.2 699.2c-19.2 0-35.2-16-35.2-35.2v-500.8c0-19.2 16-35.2 35.2-35.2s35.2 16 35.2 35.2v500.8c0 19.2-16 35.2-35.2 35.2zM347.2 515.2c-19.2 0-35.2-16-35.2-35.2v-316.8c0-19.2 16-35.2 35.2-35.2s35.2 16 35.2 35.2v316.8c0 19.2-16 35.2-35.2 35.2zM483.2 768c-19.2 0-35.2-16-35.2-35.2v-568c0-19.2 16-35.2 35.2-35.2s35.2 16 35.2 35.2v568c0 19.2-16 35.2-35.2 35.2zM948.8 372.8h-134.4v134.4c0 19.2-16 35.2-35.2 35.2s-35.2-16-35.2-35.2v-134.4h-134.4c-19.2 0-35.2-16-35.2-35.2s16-35.2 35.2-35.2h134.4v-134.4c0-19.2 16-35.2 35.2-35.2s35.2 16 35.2 35.2v136h134.4c19.2 0 35.2 16 35.2 35.2s-16 33.6-35.2 33.6z" />
<glyph unicode="&#xe904;" glyph-name="chart-area" d="M998.4 836.8c-8 1.6-185.6 41.6-294.4-104-75.2-100.8-160-128-286.4-92.8l-16 4.8c-115.2 32-257.6 73.6-395.2-110.4-4.8-4.8-6.4-12.8-6.4-19.2v-428.8c0-17.6 14.4-33.6 33.6-33.6h956.8c17.6 0 33.6 14.4 33.6 33.6v716.8c0 16-11.2 28.8-25.6 33.6zM382.4 580.8l17.6-4.8c96-27.2 238.4-44.8 358.4 116.8 60.8 83.2 155.2 86.4 200 83.2v-224c-49.6-43.2-275.2-227.2-468.8-145.6-182.4 76.8-342.4 16-422.4-28.8v126.4c107.2 136 208 107.2 315.2 76.8zM67.2 120v179.2c44.8 30.4 208 124.8 396.8 44.8 192-81.6 398.4 46.4 494.4 120v-345.6h-891.2z" />
<glyph unicode="&#xe905;" glyph-name="chart-area-alt" d="M1024 193.6c-14.4 89.6-97.6 537.6-267.2 555.2-113.6 12.8-164.8-57.6-206.4-113.6-22.4-28.8-41.6-57.6-68.8-68.8-35.2-16-78.4 6.4-123.2 28.8-44.8 24-92.8 48-142.4 38.4-102.4-19.2-203.2-222.4-216-443.2 0-8 3.2-16 8-22.4 6.4-6.4 14.4-9.6 22.4-9.6h963.2c9.6 0 17.6 3.2 22.4 11.2 6.4 6.4 9.6 16 8 24zM228.8 574.4c28.8 4.8 64-12.8 102.4-32 52.8-27.2 113.6-59.2 176-30.4 40 19.2 67.2 54.4 91.2 88 38.4 52.8 72 97.6 152 88 57.6-6.4 115.2-128 156.8-267.2-33.6 36.8-70.4 56-113.6 70.4-72 24-129.6 12.8-227.2-44.8-92.8-56-235.2-68.8-334.4-73.6-65.6-3.2-118.4-41.6-158.4-80 32 163.2 105.6 272 155.2 281.6zM89.6 219.2c30.4 38.4 83.2 89.6 145.6 92.8 115.2 6.4 260.8 20.8 363.2 83.2 91.2 54.4 128 56 176 40 62.4-20.8 115.2-49.6 172.8-214.4 1.6-1.6-857.6-1.6-857.6-1.6z" />
<glyph unicode="&#xe906;" glyph-name="chart-bar" d="M53.744 658.16c-29.744 0-53.744-24.064-53.744-53.776v-594.272c0-29.744 24-53.808 53.744-53.808 29.68 0 53.744 24.064 53.744 53.808v594.272c0 29.712-24.048 53.776-53.744 53.776zM282.88 834.784c-29.696 0-53.76-24.064-53.76-53.76v-770.896c0-29.744 24.064-53.808 53.76-53.808 29.68 0 53.744 24.064 53.744 53.808v770.88c0 29.712-24.064 53.776-53.744 53.776zM512 551.616c-29.68 0-53.744-24.064-53.744-53.744v-487.728c0-29.744 24.048-53.808 53.744-53.808s53.744 24.064 53.744 53.808v487.712c0 29.696-24.064 53.76-53.744 53.76zM741.12 939.68c-29.664 0-53.744-23.952-53.744-53.744v-875.808c0-29.744 24.080-53.808 53.744-53.808s53.76 24.064 53.76 53.808v875.808c0.016 29.792-24.080 53.744-53.76 53.744zM970.256 604.016c-29.664 0-53.728-24.064-53.728-53.664v-540.24c0-29.744 24.064-53.808 53.728-53.808 29.696 0 53.744 24.064 53.744 53.808v540.24c0 29.6-24.048 53.664-53.744 53.664z" />
<glyph unicode="&#xe907;" glyph-name="chart-bucketization" d="M841.6 404.8c72 0 129.6 57.6 129.6 129.6s-57.6 129.6-129.6 129.6-129.6-57.6-129.6-129.6 59.2-129.6 129.6-129.6zM841.6 596.8c35.2 0 62.4-28.8 62.4-62.4s-28.8-62.4-62.4-62.4-62.4 28.8-62.4 62.4 27.2 62.4 62.4 62.4zM990.4 152h-956.8c-17.6 0-33.6-14.4-33.6-33.6s14.4-33.6 33.6-33.6h956.8c17.6 0 33.6 14.4 33.6 33.6s-14.4 33.6-33.6 33.6zM177.6 440c6.4-6.4 14.4-9.6 24-9.6 8 0 17.6 3.2 24 9.6l156.8 156.8c12.8 12.8 12.8 33.6 0 46.4l-156.8 156.8c-12.8 12.8-33.6 12.8-46.4 0l-156.8-156.8c-12.8-12.8-12.8-33.6 0-46.4l155.2-156.8zM201.6 731.2l110.4-110.4-110.4-110.4-110.4 110.4 110.4 110.4zM457.6 355.2h46.4v-46.4c0-17.6 14.4-33.6 33.6-33.6 17.6 0 33.6 14.4 33.6 33.6v46.4h49.6c17.6 0 33.6 14.4 33.6 33.6 0 17.6-14.4 33.6-33.6 33.6h-49.6v46.4c0 17.6-14.4 33.6-33.6 33.6-17.6 0-33.6-14.4-33.6-33.6v-46.4h-46.4c-17.6 0-33.6-14.4-33.6-33.6s16-33.6 33.6-33.6z" />
<glyph unicode="&#xe908;" glyph-name="chart-column" d="M109.536 132.848c-19.088 0-34.512 15.424-34.512 34.448v380.944c0 19.024 15.424 34.448 34.512 34.448 19.024 0 34.448-15.424 34.448-34.448v-380.944c0-19.024-15.424-34.448-34.448-34.448zM243.664 132.848c19.088 0 34.512 15.424 34.512 34.448v494.192c0 18.976-15.424 34.4-34.512 34.4-19.040 0-34.448-15.424-34.448-34.4v-494.192c0-19.024 15.424-34.448 34.448-34.448zM377.872 132.848c19.024 0 34.448 15.424 34.448 34.448v312.64c0 19.056-15.408 34.464-34.448 34.464s-34.448-15.408-34.448-34.464v-312.64c-0.016-19.024 15.408-34.448 34.448-34.448zM512.064 132.848c19.024 0 34.368 15.424 34.368 34.448v561.392c0 19.088-15.344 34.464-34.368 34.464-19.088 0-34.512-15.36-34.512-34.464v-561.392c0-19.024 15.424-34.448 34.512-34.448zM646.192 132.848c19.088 0 34.416 15.424 34.416 34.448v346.304c0 18.976-15.328 34.384-34.416 34.384s-34.512-15.424-34.512-34.384v-346.304c0-19.024 15.408-34.448 34.512-34.448zM780.336 132.848c19.072 0 34.528 15.424 34.528 34.448v380.944c0 19.024-15.456 34.448-34.528 34.448-19.088 0-34.384-15.424-34.384-34.448v-380.944c-0.016-19.024 15.28-34.448 34.384-34.448zM914.576 132.848c19.008 0 34.4 15.424 34.4 34.448v480.688c0 19.088-15.408 34.512-34.4 34.512-19.088 0-34.496-15.408-34.496-34.512v-480.688c0-19.024 15.408-34.448 34.496-34.448z" />
<glyph unicode="&#xe909;" glyph-name="chart-dendrogram" d="M22.4 361.6c1.6 0 1.6-1.6 3.2-1.6 3.2-1.6 8-3.2 12.8-3.2 0 0 0 0 0 0 12.8 0 257.6 4.8 337.6 142.4 70.4 120-1.6 281.6-105.6 371.2-4.8 4.8-11.2 6.4-19.2 8-1.6 0-3.2 0-4.8 0s-1.6 0-3.2 0c-6.4 0-14.4-1.6-19.2-4.8-139.2-97.6-224-256-224-425.6 0-19.2 1.6-38.4 3.2-57.6 0 0 0 0 0 0s0 0 0 0c0-1.6 0-3.2 0-3.2 0-1.6 1.6-3.2 1.6-4.8s1.6-3.2 1.6-4.8 3.2-4.8 4.8-6.4c1.6-1.6 1.6-3.2 3.2-3.2 1.6-3.2 4.8-4.8 8-6.4zM243.2 800c73.6-73.6 120-187.2 73.6-267.2-43.2-73.6-172.8-99.2-246.4-105.6 0 6.4-1.6 14.4-1.6 20.8 0 139.2 65.6 268.8 174.4 352zM844.8 120c0 0 0 0 0 0-6.4 9.6-147.2 196.8-361.6 232-171.2 27.2-416-36.8-427.2-38.4-17.6-4.8-28.8-24-24-41.6 0-3.2 1.6-4.8 3.2-6.4 0-1.6 0-3.2 1.6-4.8 33.6-86.4 88-158.4 155.2-212.8 1.6-1.6 3.2-3.2 4.8-4.8 0 0 1.6 0 1.6 0 88-67.2 196.8-107.2 313.6-107.2 8 0 16 0 25.6 1.6 0 0 0 0 1.6 0 0 0 1.6 0 1.6 0 1.6 0 1.6 0 3.2 0 113.6 6.4 222.4 51.2 308.8 126.4 14.4 12.8 16 33.6 3.2 48-4.8 3.2-8 6.4-11.2 8zM777.6 94.4c-59.2-44.8-128-73.6-201.6-84.8 1.6 70.4-4.8 185.6-40 257.6 121.6-41.6 211.2-136 241.6-172.8zM451.2 264c36.8-9.6 56-137.6 54.4-259.2-89.6 1.6-174.4 28.8-244.8 76.8 65.6 100.8 152 193.6 190.4 182.4zM113.6 256c51.2 11.2 142.4 28.8 233.6 33.6-56-44.8-107.2-115.2-139.2-163.2-40 35.2-70.4 80-94.4 129.6zM1024 448c0 44.8-6.4 88-17.6 129.6 0 1.6 0 1.6 0 3.2s-1.6 1.6-1.6 3.2c-20.8 75.2-57.6 142.4-107.2 200-1.6 1.6-1.6 3.2-1.6 3.2s-1.6 1.6-3.2 1.6c-92.8 104-228.8 171.2-380.8 171.2-8 0-16 0-24 0 0 0-1.6 0-1.6 0-19.2 0-33.6-16-33.6-35.2 0-28.8 6.4-267.2 105.6-356.8 1.6-1.6 1.6-1.6 3.2-3.2 0 0 1.6-1.6 3.2-1.6 1.6-1.6 4.8-4.8 6.4-6.4 32-22.4 76.8-35.2 124.8-40-32-20.8-56-49.6-59.2-86.4-12.8-128 230.4-230.4 278.4-249.6 4.8-1.6 8-3.2 12.8-3.2 14.4 0 27.2 8 32 20.8 0 0 0 0 0 1.6 41.6 75.2 64 161.6 64 248zM712 843.2c41.6-20.8 78.4-48 110.4-78.4-92.8-84.8-190.4-152-216-147.2 0 0-1.6 1.6-1.6 1.6-9.6 24 40 126.4 107.2 224zM555.2 704c-19.2 57.6-30.4 128-33.6 187.2 43.2-1.6 86.4-8 124.8-20.8-33.6-49.6-70.4-110.4-91.2-166.4zM867.2 712c25.6-33.6 46.4-72 60.8-113.6-65.6-11.2-152-19.2-224-12.8 57.6 33.6 115.2 83.2 163.2 126.4zM704 427.2c4.8 48 136 81.6 244.8 91.2 3.2-22.4 6.4-46.4 6.4-70.4 0-67.2-16-131.2-44.8-192-94.4 43.2-211.2 118.4-206.4 171.2z" />
<glyph unicode="&#xe90a;" glyph-name="chart-doughnut" d="M987.2 257.6c24 59.2 36.8 123.2 36.8 190.4 0 281.6-230.4 512-512 512s-512-230.4-512-512 230.4-512 512-512c41.6 0 80 4.8 118.4 14.4 1.6 0 1.6 0 3.2 0 0 0 1.6 0 1.6 1.6 160 40 289.6 153.6 350.4 304 0 0 1.6 0 1.6 1.6 0-1.6 0 0 0 0zM955.2 448c0-46.4-8-91.2-20.8-134.4l-148.8 60.8c6.4 24 11.2 48 11.2 73.6 0 145.6-110.4 264-251.2 281.6v160c228.8-17.6 409.6-208 409.6-441.6zM512 232c-120 0-216 97.6-216 216 0 120 97.6 216 216 216 0 0 0 0 0 0s0 0 0 0c120 0 216-97.6 216-216 0-28.8-6.4-54.4-16-80 0 0 0 0 0-1.6s0-1.6 0-3.2c-33.6-76.8-110.4-131.2-200-131.2zM68.8 448c0 233.6 180.8 424 409.6 441.6v-160c-140.8-17.6-251.2-136-251.2-281.6 0-156.8 128-284.8 284.8-284.8 11.2 0 22.4 1.6 33.6 3.2l38.4-155.2c-24-3.2-46.4-6.4-72-6.4-244.8 0-443.2 198.4-443.2 443.2zM649.6 27.2l-38.4 155.2c64 24 115.2 70.4 148.8 128l148.8-60.8c-52.8-104-145.6-185.6-259.2-222.4z" />
<glyph unicode="&#xe90b;" glyph-name="chart-group" d="M809.424 350.784c-113.472 0-205.664 92.288-205.664 205.68s92.208 205.616 205.664 205.616c113.344 0 205.664-92.224 205.664-205.616 0-113.408-92.32-205.68-205.664-205.68zM809.424 699.2c-78.72 0-142.816-64.032-142.816-142.736 0-78.768 64.096-142.816 142.816-142.816 78.704 0 142.8 64.048 142.8 142.816 0 78.704-64.096 142.736-142.8 142.736zM34.56 109.92c19.104 0 34.56 15.488 34.56 34.576v411.968c0 19.088-15.456 34.56-34.56 34.56-19.088 0-34.56-15.472-34.56-34.56v-411.968c0-19.088 15.472-34.576 34.56-34.576zM179.648 109.92c19.152 0 34.624 15.488 34.624 34.576v534.336c0 19.152-15.472 34.56-34.624 34.56-19.088 0-34.496-15.408-34.496-34.56v-534.336c-0.016-19.088 15.392-34.576 34.496-34.576zM324.784 109.92c19.024 0 34.496 15.488 34.496 34.576v338.048c0 19.152-15.472 34.624-34.496 34.624-19.152 0-34.64-15.472-34.64-34.624v-338.048c0-19.088 15.488-34.576 34.64-34.576zM469.792 109.92c19.152 0 34.624 15.488 34.624 34.576v607.088c0 19.024-15.456 34.496-34.624 34.496-19.088 0-34.56-15.472-34.56-34.496v-607.072c0-19.104 15.456-34.592 34.56-34.592zM635.168 109.92c12.048 0 23.84 6.4 30.24 17.648 10.064 17.856 40.88 57.040 67.28 57.040 36.592 0 70.848-13.264 101.040-25.008 9.696-3.84 19.040-7.408 27.872-10.416 76.496-26.096 136.304 31.856 157.296 66.24 9.936 16.224 4.912 37.28-11.312 47.344-16.080 10.016-37.312 5.088-47.52-10.992-1.344-2.16-33.392-51.76-76-37.152-7.968 2.704-16.448 5.952-25.28 9.408-34.032 13.264-76.512 29.696-126.112 29.696-73.664 0-122.32-82.816-127.584-92.336-9.344-16.576-3.456-37.712 13.12-47.024 5.44-3.024 11.328-4.448 16.96-4.448z" />
<glyph unicode="&#xe90c;" glyph-name="chart-grouped-bar" d="M33.6 860.8c-19.2 0-33.6-14.4-33.6-32v-760c0-17.6 14.4-33.6 33.6-33.6s33.6 14.4 33.6 33.6v760c-1.6 17.6-16 32-33.6 32zM313.6 569.6c-17.6 0-33.6-14.4-33.6-33.6v-468.8c0-17.6 14.4-33.6 33.6-33.6s33.6 14.4 33.6 33.6v470.4c-1.6 17.6-16 32-33.6 32zM148.8 499.2c-17.6 0-33.6-14.4-33.6-33.6v-398.4c0-17.6 14.4-33.6 33.6-33.6s33.6 14.4 33.6 33.6v400c0 17.6-16 32-33.6 32zM990.4 620.8c-17.6 0-33.6-14.4-33.6-33.6v-520c0-17.6 14.4-33.6 33.6-33.6 17.6 0 33.6 14.4 33.6 33.6v520c0 19.2-14.4 33.6-33.6 33.6zM425.6 400c-17.6 0-33.6-14.4-33.6-33.6v-299.2c0-17.6 14.4-33.6 33.6-33.6 17.6 0 33.6 14.4 33.6 33.6v299.2c0 19.2-14.4 33.6-33.6 33.6zM592 787.2c-17.6 0-33.6-14.4-33.6-33.6v-686.4c0-17.6 14.4-33.6 33.6-33.6 17.6 0 33.6 14.4 33.6 33.6v686.4c0 17.6-14.4 33.6-33.6 33.6zM872 752c-17.6 0-33.6-14.4-33.6-33.6v-651.2c0-17.6 14.4-33.6 33.6-33.6 17.6 0 33.6 14.4 33.6 33.6v651.2c0 19.2-14.4 33.6-33.6 33.6zM708.8 348.8c-17.6 0-33.6-14.4-33.6-33.6v-248c0-17.6 14.4-33.6 33.6-33.6 17.6 0 33.6 14.4 33.6 33.6v249.6c0 17.6-16 32-33.6 32z" />
<glyph unicode="&#xe90d;" glyph-name="chart-legend" d="M249.6 628.8h-44.8c-17.6 0-32-14.4-32-32s14.4-32 32-32h44.8c17.6 0 32 14.4 32 32s-14.4 32-32 32zM388.8 564.8h344c17.6 0 32 14.4 32 32s-14.4 32-32 32h-344c-17.6 0-32-14.4-32-32s14.4-32 32-32zM249.6 475.2h-44.8c-17.6 0-32-14.4-32-32s14.4-32 32-32h44.8c17.6 0 32 14.4 32 32s-14.4 32-32 32zM833.6 475.2h-444.8c-17.6 0-32-14.4-32-32s14.4-32 32-32h444.8c17.6 0 32 14.4 32 32s-14.4 32-32 32zM249.6 320h-44.8c-17.6 0-32-14.4-32-32s14.4-32 32-32h44.8c17.6 0 32 14.4 32 32s-14.4 32-32 32zM769.6 320h-380.8c-17.6 0-32-14.4-32-32s14.4-32 32-32h380.8c17.6 0 32 14.4 32 32s-14.4 32-32 32zM862.4 800h-700.8c-89.6 0-161.6-72-161.6-161.6v-382.4c0-88 72-160 161.6-160h232c17.6 0 32 14.4 32 32s-14.4 32-32 32h-232c-52.8 0-96 43.2-96 96v382.4c0 52.8 43.2 96 96 96h702.4c52.8 0 96-43.2 96-96v-382.4c0-17.6 14.4-32 32-32s32 14.4 32 32v382.4c0 89.6-72 161.6-161.6 161.6z" />
<glyph unicode="&#xe90f;" glyph-name="chart-map" d="M857.6 395.2c9.6 1.6 19.2 6.4 27.2 12.8l19.2 20.8c12.8 12.8 16 33.6 8 49.6l-3.2 6.4 9.6 6.4c9.6 6.4 16 14.4 19.2 25.6l12.8 41.6c3.2 8 1.6 17.6 0 25.6 27.2-16 65.6 6.4 65.6 38.4v67.2c0 36.8-32 67.2-68.8 67.2-1.6 0-6.4 0-8 0l-152-17.6c-1.6 1.6-1.6 3.2-3.2 4.8-8 11.2-20.8 19.2-35.2 19.2l-22.4 1.6c-14.4 0-27.2-6.4-36.8-17.6l-52.8-68.8-32-16-28.8 9.6c-17.6 8-38.4 4.8-51.2-9.6l-38.4-38.4c-11.2-12.8-14.4-28.8-9.6-44.8l1.6-3.2-30.4-20.8c-16-9.6-24-25.6-20.8-44.8l1.6-12.8c1.6-6.4 3.2-12.8 8-19.2-9.6-6.4-16-16-19.2-27.2l-9.6-44.8c-3.2-16 1.6-32 12.8-41.6l24-20.8c9.6-8 20.8-11.2 33.6-11.2l17.6 3.2v-41.6c0-1.6 1.6-9.6 1.6-11.2l8-27.2c8-27.2 33.6-46.4 62.4-46.4 24 0 46.4 12.8 57.6 35.2l64 121.6c4.8 9.6 6.4 20.8 3.2 32 0 0 0 0 0 0l14.4-22.4c17.6-25.6 60.8-22.4 75.2 4.8l1.6 1.6 8-4.8c17.6-12.8 44.8-9.6 59.2 8 3.2 1.6 4.8 4.8 6.4 9.6zM816 432c-1.6-1.6-3.2-4.8-3.2-6.4l-22.4 16c-6.4 4.8-12.8 6.4-20.8 3.2-6.4-1.6-12.8-6.4-16-12.8l-8-17.6-25.6 36.8c-1.6 3.2-4.8 4.8-6.4 6.4l-40 25.6c-11.2 6.4-27.2 3.2-35.2-6.4s-6.4-24 1.6-33.6l11.2-11.2h-1.6c-8-3.2-14.4-9.6-16-19.2-1.6-8 1.6-17.6 8-24l4.8-4.8-60.8-116.8c-4.8-11.2-24-9.6-27.2 3.2l-8 25.6-1.6 68.8c0 6.4-3.2 14.4-8 19.2s-11.2 6.4-16 6.4c-1.6 0-1.6 0-3.2 0l-40-6.4-20.8 19.2 8 38.4 44.8 19.2 78.4-11.2c6.4-1.6 14.4 1.6 20.8 6.4s9.6 11.2 9.6 19.2v4.8c0 12.8-8 22.4-20.8 25.6l-35.2 6.4-28.8 16c-6.4 4.8-16 6.4-24 3.2l-28.8-12.8 16 9.6 24 22.4c8 6.4 9.6 17.6 6.4 27.2l-4.8 14.4 30.4 33.6 35.2-17.6c8-3.2 16-3.2 22.4 0l49.6 24c3.2 1.6 6.4 4.8 9.6 8l52.8 72h9.6c0-6.4 1.6-12.8 4.8-19.2 4.8-6.4 14.4-9.6 22.4-9.6l180.8 20.8c9.6 0 17.6-8 17.6-17.6v-46.4l-11.2 12.8c-6.4 6.4-16 9.6-24 8-9.6-1.6-16-8-19.2-17.6l1.6-4.8-20.8-8c-8-3.2-14.4-11.2-14.4-19.2l-3.2-14.4c-1.6-11.2 4.8-22.4 14.4-27.2l12.8-4.8-8-30.4-30.4-17.6c-11.2-6.4-16-20.8-9.6-33.6l11.2-22.4-11.2-14.4-17.6-1.6c-4.8-1.6-11.2-6.4-16-12.8zM1019.2 281.6c0 0 0 0 0 0l-20.8 40c-9.6 17.6-30.4 27.2-49.6 22.4-12.8 9.6-32 9.6-46.4 1.6l-51.2-30.4c-11.2-6.4-19.2-19.2-20.8-32l-4.8-38.4c-1.6-12.8 3.2-24 11.2-33.6 9.6-11.2 24-16 38.4-14.4l24 3.2c6.4-16 22.4-25.6 40-25.6 1.6 0 6.4 0 8 0l24 4.8c14.4 1.6 25.6 11.2 32 24l19.2 40c3.2 11.2 3.2 27.2-3.2 38.4zM956.8 228.8l-14.4-3.2-4.8 11.2c-3.2 9.6-12.8 16-24 16-1.6 0-1.6 0-3.2 0l-33.6-4.8 3.2 25.6 43.2 25.6 1.6-1.6c4.8-6.4 12.8-9.6 20.8-9.6 4.8 0 8 1.6 12.8 3.2l16-28.8-17.6-33.6zM392 363.2c0 0 0 0 0 0l-86.4 56c-16 11.2-38.4 11.2-54.4 3.2l-9.6 12.8c0 0 1.6 1.6 1.6 1.6l62.4 51.2 36.8 20.8c11.2 6.4 17.6 16 20.8 28.8 3.2 11.2 0 24-6.4 35.2l-32 46.4c-4.8 6.4-9.6 11.2-17.6 14.4 1.6 8 0 17.6-3.2 25.6l-9.6 19.2c-4.8 11.2-14.4 19.2-27.2 22.4-11.2 3.2-24 1.6-35.2-3.2l-6.4-3.2-59.2 25.6-54.4 30.4c-16 9.6-35.2 6.4-49.6-4.8l-28.8-24c-6.4-4.8-11.2-11.2-12.8-19.2l-19.2-52.8c-4.8-12.8-3.2-27.2 4.8-40 9.6-9.6 22.4-17.6 36.8-17.6h24l17.6-43.2-3.2-57.6c0-9.6 1.6-19.2 6.4-27.2l35.2-54.4c4.8-9.6 11.2-14.4 20.8-19.2l62.4-24c-4.8-12.8-4.8-25.6 1.6-38.4l19.2-35.2-3.2-89.6c0-9.6 3.2-20.8 9.6-27.2l17.6-22.4c8-11.2 20.8-17.6 33.6-17.6 11.2 0 22.4 4.8 32 12.8 8 8 12.8 19.2 12.8 32v20.8l59.2 56c6.4 4.8 9.6 12.8 11.2 20.8l9.6 36.8c6.4 19.2-1.6 38.4-17.6 48zM216 476.8h-17.6c-9.6 0-17.6-4.8-22.4-14.4-4.8-8-3.2-19.2 1.6-25.6l6.4-8-17.6 6.4-33.6 51.2 4.8 64c0 3.2 0 8-1.6 11.2l-25.6 64c-3.2 9.6-12.8 16-22.4 16h-32l14.4 41.6 22.4 20.8 51.2-28.8 75.2-32c8-3.2 16-3.2 22.4 1.6l9.6 6.4 3.2-8-33.6-24c-6.4-4.8-9.6-11.2-9.6-17.6s1.6-14.4 6.4-19.2l19.2-20.8c4.8-6.4 12.8-9.6 20.8-8 8 0 14.4 4.8 19.2 11.2l11.2 17.6 22.4-32-33.6-19.2-60.8-54.4zM353.6 294.4l-67.2-64c-4.8-4.8-8-11.2-8-19.2l1.6-14.4-4.8 4.8 3.2 99.2c0 4.8-1.6 9.6-3.2 12.8l-20.8 36.8 8 12.8c1.6 1.6 3.2 4.8 3.2 6.4 4.8 1.6 8 4.8 11.2 8l83.2-52.8-6.4-30.4z" />
<glyph unicode="&#xe910;" glyph-name="chart-pie" d="M987.2 257.6c24 59.2 36.8 123.2 36.8 190.4 0 281.6-230.4 512-512 512s-512-230.4-512-512 230.4-512 512-512c41.6 0 80 4.8 118.4 14.4 1.6 0 1.6 0 3.2 0 0 0 1.6 0 1.6 1.6 160 40 289.6 153.6 350.4 304 0 0 0 0 0 0 1.6 0 1.6 1.6 1.6 1.6zM955.2 448c0-46.4-8-91.2-20.8-134.4l-388.8 156.8v419.2c228.8-17.6 409.6-208 409.6-441.6zM68.8 448c0 233.6 180.8 424 409.6 441.6v-441.6c0-1.6 0-1.6 0-3.2s0-3.2 0-6.4l104-428.8c-24-3.2-46.4-6.4-72-6.4-243.2 1.6-441.6 200-441.6 444.8zM649.6 27.2l-89.6 364.8 347.2-140.8c-51.2-105.6-144-187.2-257.6-224z" />
<glyph unicode="&#xe911;" glyph-name="chart-radial" d="M512 1.872c-245.984 0-446.096 200.112-446.096 446.16 0 245.984 200.112 446.096 446.096 446.096s446.096-200.112 446.096-446.096c0-246.048-200.112-446.16-446.096-446.16zM512 829.68c-210.496 0-381.664-171.232-381.664-381.664 0-210.56 171.152-381.712 381.664-381.712s381.664 171.152 381.664 381.712c0 210.448-171.168 381.664-381.664 381.664zM512 277.792c-93.888 0-170.224 76.336-170.224 170.24 0 93.824 76.336 170.16 170.224 170.16 93.824 0 170.224-76.336 170.224-170.16 0-93.888-76.4-170.24-170.224-170.24zM512 553.76c-58.336 0-105.776-47.456-105.776-105.728 0-58.336 47.44-105.792 105.776-105.792 58.32 0 105.776 47.472 105.776 105.792 0 58.272-47.456 105.728-105.776 105.728z" />
<glyph unicode="&#xe912;" glyph-name="chart-radial-linebar" d="M528 579.2c6.4-9.6 17.6-14.4 27.2-14.4 6.4 0 12.8 1.6 19.2 6.4 16 11.2 19.2 32 8 46.4l-48 70.4c-11.2 16-32 19.2-46.4 8-16-11.2-19.2-32-8-46.4l48-70.4zM646.4 600c17.6 4.8 28.8 22.4 25.6 41.6l-22.4 92.8c-4.8 17.6-22.4 28.8-41.6 25.6-17.6-4.8-28.8-22.4-25.6-41.6l22.4-92.8c3.2-16 17.6-25.6 33.6-25.6 3.2 0 6.4 0 8 0zM737.6 590.4c19.2 0 33.6 14.4 33.6 33.6v72c0 19.2-14.4 33.6-33.6 33.6s-33.6-14.4-33.6-33.6v-72c0-19.2 14.4-33.6 33.6-33.6zM782.4 550.4c6.4-4.8 12.8-6.4 19.2-6.4 11.2 0 20.8 4.8 27.2 14.4l65.6 91.2c11.2 16 8 36.8-8 48s-36.8 8-48-8l-65.6-91.2c-8-16-4.8-38.4 9.6-48zM827.2 480c6.4-9.6 17.6-16 28.8-16 6.4 0 12.8 1.6 17.6 4.8l128 78.4c16 9.6 20.8 30.4 11.2 46.4s-30.4 20.8-46.4 11.2l-128-78.4c-16-9.6-20.8-30.4-11.2-46.4zM868.8 451.2c-19.2 0-33.6-14.4-33.6-33.6s14.4-33.6 33.6-33.6h92.8c19.2 0 33.6 14.4 33.6 33.6s-14.4 33.6-33.6 33.6h-92.8zM1003.2 312l-128 52.8c-17.6 8-36.8-1.6-44.8-17.6-8-17.6 1.6-36.8 17.6-44.8l128-52.8c4.8-1.6 8-3.2 12.8-3.2 12.8 0 25.6 8 32 20.8 8 17.6 0 36.8-17.6 44.8zM841.6 284.8c-14.4 12.8-35.2 11.2-48-3.2s-11.2-35.2 3.2-48l76.8-70.4c6.4-6.4 14.4-8 22.4-8 9.6 0 19.2 3.2 25.6 11.2 12.8 14.4 11.2 35.2-3.2 48l-76.8 70.4zM782.4 228.8c-9.6 16-30.4 20.8-46.4 11.2s-20.8-30.4-11.2-46.4l72-116.8c6.4-9.6 17.6-16 28.8-16 6.4 0 12.8 1.6 17.6 4.8 16 9.6 20.8 30.4 11.2 46.4l-72 116.8zM697.6 184c-4.8 17.6-24 28.8-41.6 22.4-17.6-4.8-28.8-24-22.4-41.6l30.4-100.8c4.8-14.4 17.6-24 32-24 3.2 0 6.4 0 9.6 1.6 17.6 4.8 28.8 24 22.4 41.6l-30.4 100.8zM577.6 192c-19.2 0-33.6-14.4-33.6-33.6v-182.4c0-19.2 14.4-33.6 33.6-33.6s33.6 14.4 33.6 33.6v182.4c0 19.2-16 33.6-33.6 33.6zM473.6 206.4c-17.6 3.2-36.8-8-40-27.2l-28.8-142.4c-3.2-17.6 8-36.8 27.2-40 1.6 0 4.8 0 6.4 0 16 0 30.4 11.2 33.6 27.2l28.8 142.4c3.2 19.2-8 36.8-27.2 40zM401.6 241.6c-17.6 8-36.8 0-44.8-16l-41.6-86.4c-8-17.6 0-36.8 16-44.8 4.8-1.6 9.6-3.2 14.4-3.2 12.8 0 25.6 6.4 30.4 19.2l41.6 86.4c8 16 1.6 36.8-16 44.8zM329.6 289.6c-14.4 12.8-35.2 11.2-48-1.6l-73.6-80c-12.8-14.4-11.2-35.2 1.6-48 6.4-6.4 14.4-9.6 22.4-9.6 9.6 0 17.6 3.2 25.6 11.2l73.6 80c12.8 14.4 12.8 35.2-1.6 48zM297.6 371.2c-8 16-28.8 24-44.8 14.4l-168-84.8c-16-8-24-28.8-14.4-44.8 6.4-11.2 17.6-19.2 30.4-19.2 4.8 0 9.6 1.6 16 3.2l166.4 84.8c16 8 24 28.8 14.4 46.4zM238.4 478.4l-137.6-28.8c-17.6-3.2-30.4-22.4-27.2-40 3.2-16 17.6-27.2 33.6-27.2 1.6 0 4.8 0 6.4 0l137.6 28.8c17.6 3.2 30.4 22.4 27.2 40-4.8 19.2-22.4 30.4-40 27.2zM238.4 531.2c17.6 0 32 12.8 33.6 30.4 1.6 19.2-11.2 35.2-30.4 36.8l-204.8 22.4c-17.6 3.2-35.2-11.2-36.8-30.4s11.2-35.2 30.4-36.8l203.2-20.8c1.6-1.6 3.2-1.6 4.8-1.6zM134.4 696l128-46.4c3.2-1.6 8-1.6 11.2-1.6 14.4 0 27.2 8 32 22.4 6.4 17.6-3.2 36.8-20.8 43.2l-128 46.4c-17.6 6.4-36.8-3.2-43.2-20.8s3.2-36.8 20.8-43.2zM320 736c6.4-8 16-12.8 25.6-12.8 8 0 16 3.2 22.4 8 14.4 12.8 16 33.6 4.8 48l-137.6 163.2c-12.8 14.4-33.6 16-48 4.8-14.4-12.8-16-33.6-4.8-48l137.6-163.2zM516.8 558.4l-60.8 32c-16 8-36.8 1.6-46.4-14.4-8-16-1.6-36.8 14.4-46.4l60.8-32c4.8-3.2 9.6-3.2 16-3.2 12.8 0 24 6.4 30.4 17.6 8 17.6 1.6 38.4-14.4 46.4z" />
<glyph unicode="&#xe913;" glyph-name="chart-sankey" d="M992 662.4c-91.2 4.8-244.8 75.2-392 144l-43.2 20.8c-148.8 68.8-507.2 75.2-523.2 76.8-9.6 0-17.6-4.8-24-11.2s-9.6-14.4-9.6-24v-212.8c0-9.6 3.2-19.2 9.6-25.6s16-9.6 24-9.6c89.6 3.2 344 0 430.4-52.8 8-4.8 19.2-9.6 30.4-14.4-17.6-3.2-33.6-6.4-51.2-11.2-108.8-24-233.6-51.2-409.6-41.6-9.6 1.6-17.6-3.2-24-9.6s-9.6-16-9.6-25.6v-443.2c0-17.6 12.8-33.6 30.4-35.2 6.4 0 57.6-4.8 129.6-4.8 123.2 0 302.4 20.8 398.4 76.8l43.2 25.6c147.2 86.4 299.2 174.4 388.8 179.2 17.6 1.6 32 16 32 35.2v329.6c1.6 17.6-12.8 32-30.4 33.6zM89.6 691.2c-8 0-16 0-22.4 0v142.4c92.8-3.2 352-17.6 464-70.4l43.2-20.8c144-67.2 281.6-131.2 384-147.2v-38.4c-33.6 1.6-84.8 4.8-144 6.4-121.6 9.6-260.8 28.8-315.2 62.4-92.8 57.6-307.2 65.6-409.6 65.6zM457.6 473.6c20.8 4.8 40 9.6 60.8 12.8 62.4 12.8 184 12.8 286.4 9.6 62.4-4.8 118.4-8 153.6-8v-19.2c-14.4 0-33.6-1.6-54.4-3.2-124.8-8-344-30.4-436.8-96-76.8-40-171.2-56-251.2-64-56-3.2-108.8-4.8-148.8-3.2v126.4c164.8-4.8 284.8 22.4 390.4 44.8zM958.4 331.2c-102.4-19.2-241.6-99.2-387.2-184l-43.2-27.2c-112-65.6-371.2-70.4-460.8-65.6v177.6c12.8 0 28.8-1.6 48-1.6 28.8 0 64 1.6 100.8 4.8 99.2 6.4 212.8 24 278.4 70.4 0 0 1.6 0 1.6 0 115.2 57.6 291.2 80 400 88 22.4 1.6 44.8 3.2 62.4 3.2v-65.6z" />
<glyph unicode="&#xe914;" glyph-name="chart-scatterplot" d="M208 444.8c97.6 0 176 78.4 176 176s-78.4 176-176 176-176-78.4-176-176 80-176 176-176zM208 729.6c60.8 0 108.8-49.6 108.8-108.8 0-60.8-49.6-108.8-108.8-108.8s-108.8 49.6-108.8 108.8c0 60.8 48 108.8 108.8 108.8zM856 444.8c86.4 0 155.2 70.4 155.2 155.2 0 86.4-70.4 155.2-155.2 155.2-86.4 0-155.2-70.4-155.2-155.2-1.6-84.8 68.8-155.2 155.2-155.2zM856 689.6c49.6 0 89.6-40 89.6-89.6s-41.6-88-89.6-88-89.6 40-89.6 89.6 40 88 89.6 88zM544 276.8c62.4 0 112 49.6 112 112s-49.6 112-112 112-112-49.6-112-112 49.6-112 112-112zM544 435.2c25.6 0 46.4-20.8 46.4-46.4s-20.8-46.4-46.4-46.4-46.4 20.8-46.4 46.4 20.8 46.4 46.4 46.4zM990.4 166.4h-956.8c-17.6 0-33.6-14.4-33.6-33.6 0-17.6 14.4-33.6 33.6-33.6h956.8c17.6 0 33.6 14.4 33.6 33.6 0 17.6-14.4 33.6-33.6 33.6z" />
<glyph unicode="&#xe915;" glyph-name="chart-single-area-canvas" d="M33.6 732.8h508.8c4.8-75.2 28.8-243.2 140.8-251.2 1.6 0 4.8 0 6.4 0 24 0 46.4 9.6 65.6 25.6 56 51.2 72 168 76.8 225.6h158.4c17.6 0 33.6 14.4 33.6 33.6s-14.4 33.6-33.6 33.6h-956.8c-19.2-1.6-33.6-16-33.6-35.2s14.4-32 33.6-32zM710.4 556.8c-8-6.4-14.4-9.6-22.4-9.6-49.6 3.2-72 112-78.4 185.6h155.2c-4.8-64-22.4-147.2-54.4-176zM990.4 163.2h-112c4.8 123.2 40 321.6 120 342.4 17.6 4.8 28.8 22.4 24 40s-22.4 28.8-40 24c-153.6-38.4-169.6-356.8-171.2-406.4h-137.6c-1.6 41.6-11.2 272-142.4 280-27.2 1.6-51.2-8-72-25.6-16-14.4-27.2-33.6-38.4-56-25.6 102.4-75.2 204.8-174.4 212.8-35.2 1.6-68.8-9.6-97.6-35.2-99.2-91.2-112-334.4-113.6-374.4h-1.6c-17.6 0-33.6-14.4-33.6-33.6 0-17.6 14.4-33.6 33.6-33.6h956.8c17.6 0 33.6 14.4 33.6 33.6 0 17.6-16 32-33.6 32zM504 368c8 6.4 14.4 9.6 22.4 9.6 56-3.2 78.4-144 80-212.8h-158.4c3.2 62.4 19.2 169.6 56 203.2zM195.2 489.6c14.4 12.8 30.4 19.2 48 17.6 107.2-6.4 136-251.2 137.6-344h-276.8c3.2 75.2 24 264 91.2 326.4z" />
<glyph unicode="&#xe916;" glyph-name="chart-single-composite-y" d="M33.6 289.6c17.6 0 33.6 14.4 33.6 33.6v145.6c0 17.6-14.4 33.6-33.6 33.6s-33.6-16-33.6-33.6v-145.6c0-19.2 14.4-33.6 33.6-33.6zM272 345.6c17.6 0 33.6 14.4 33.6 33.6v320c0 17.6-14.4 33.6-33.6 33.6s-32-16-32-35.2v-320c0-17.6 14.4-32 32-32zM512 384c17.6 0 33.6 14.4 33.6 33.6v153.6c0 17.6-14.4 33.6-33.6 33.6s-33.6-14.4-33.6-33.6v-155.2c0-17.6 16-32 33.6-32zM752 441.6c17.6 0 33.6 14.4 33.6 33.6v283.2c0 17.6-14.4 33.6-33.6 33.6s-33.6-14.4-33.6-33.6v-284.8c0-17.6 14.4-32 33.6-32zM990.4 758.4c-17.6 0-33.6-14.4-33.6-33.6v-208c0-17.6 14.4-33.6 33.6-33.6s33.6 14.4 33.6 33.6v208c0 19.2-14.4 33.6-33.6 33.6zM0 222.4c3.2-16 17.6-25.6 32-25.6 1.6 0 4.8 0 6.4 0l956.8 204.8c17.6 3.2 28.8 20.8 25.6 40-3.2 17.6-20.8 30.4-40 25.6l-955.2-204.8c-17.6-4.8-28.8-22.4-25.6-40zM33.6 176c-19.2 0-33.6-16-33.6-33.6v-4.8c0-17.6 14.4-30.4 33.6-30.4s33.6 17.6 33.6 35.2-16 33.6-33.6 33.6zM272 208c-17.6 0-33.6-14.4-33.6-33.6v-38.4c0-17.6 14.4-33.6 33.6-33.6s33.6 14.4 33.6 33.6v38.4c0 19.2-14.4 33.6-33.6 33.6zM512 259.2c-17.6 0-33.6-14.4-33.6-33.6v-89.6c0-17.6 14.4-33.6 33.6-33.6s33.6 14.4 33.6 33.6v89.6c0 19.2-16 33.6-33.6 33.6zM752 312c-17.6 0-33.6-14.4-33.6-33.6v-140.8c0-17.6 14.4-33.6 33.6-33.6s33.6 14.4 33.6 33.6v140.8c-1.6 17.6-16 33.6-33.6 33.6zM990.4 376c-17.6 0-33.6-14.4-33.6-33.6v-206.4c0-17.6 14.4-33.6 33.6-33.6s33.6 14.4 33.6 33.6v208c0 17.6-14.4 32-33.6 32z" />
<glyph unicode="&#xe917;" glyph-name="chart-single-line" d="M33.6 452.8c9.6 0 20.8 4.8 27.2 12.8 110.4 147.2 212.8 116.8 323.2 84.8l17.6-4.8c96-27.2 238.4-44.8 358.4 116.8 81.6 110.4 219.2 80 225.6 78.4 17.6-3.2 35.2 6.4 40 25.6 4.8 17.6-6.4 35.2-24 40-11.2 3.2-188.8 43.2-297.6-102.4-75.2-100.8-160-128-286.4-92.8l-16 4.8c-115.2 32-257.6 73.6-395.2-110.4-11.2-14.4-8-35.2 6.4-46.4 6.4-3.2 12.8-6.4 20.8-6.4zM33.6 264c8 0 14.4 1.6 20.8 6.4 8 6.4 190.4 147.2 409.6 54.4 257.6-108.8 539.2 156.8 550.4 168 12.8 12.8 14.4 33.6 1.6 46.4s-33.6 14.4-46.4 1.6c-3.2-3.2-260.8-246.4-478.4-155.2-256 108.8-467.2-56-476.8-62.4-14.4-11.2-16-32-4.8-46.4 4.8-8 14.4-12.8 24-12.8zM990.4 148.8h-956.8c-17.6 0-33.6-14.4-33.6-33.6s14.4-33.6 33.6-33.6h956.8c17.6 0 33.6 14.4 33.6 33.6s-14.4 33.6-33.6 33.6z" />
<glyph unicode="&#xe918;" glyph-name="chart-single-radial-line" d="M539.2-64c-288 0-481.6 200-481.6 496 0 291.2 236.8 528 528 528 20.8 0 38.4-17.6 38.4-38.4s-17.6-38.4-38.4-38.4c-249.6 0-451.2-201.6-451.2-451.2 0-256 158.4-420.8 404.8-420.8 116.8 0 254.4 78.4 313.6 179.2 54.4 91.2 49.6 209.6-11.2 286.4-54.4 68.8-140.8 89.6-244.8 57.6-22.4-11.2-99.2-62.4-112-121.6-6.4-30.4 4.8-60.8 35.2-94.4 14.4-16 12.8-40-3.2-54.4s-40-12.8-54.4 3.2c-46.4 51.2-64 105.6-52.8 160 20.8 108.8 152 174.4 158.4 177.6 139.2 43.2 259.2 14.4 332.8-80 80-100.8 88-254.4 17.6-372.8-72-123.2-235.2-216-379.2-216z" />
<glyph unicode="&#xe919;" glyph-name="chart-stacked-bar" d="M33.6 228.8c-17.6 0-33.6-14.4-33.6-33.6v-142.4c0-17.6 14.4-33.6 33.6-33.6s33.6 14.4 33.6 33.6v142.4c0 17.6-16 33.6-33.6 33.6zM228.8 449.6c-17.6 0-33.6-14.4-33.6-33.6v-363.2c0-17.6 14.4-33.6 33.6-33.6s33.6 14.4 33.6 33.6v363.2c0 19.2-14.4 33.6-33.6 33.6zM425.6 316.8c-17.6 0-33.6-14.4-33.6-33.6v-228.8c0-17.6 14.4-33.6 33.6-33.6s33.6 14.4 33.6 33.6v228.8c0 17.6-16 33.6-33.6 33.6zM806.4 316.8c-17.6 0-33.6-14.4-33.6-33.6v-228.8c0-17.6 14.4-33.6 33.6-33.6 17.6 0 33.6 14.4 33.6 33.6v228.8c0 17.6-16 33.6-33.6 33.6zM620.8 499.2c-17.6 0-33.6-14.4-33.6-33.6v-412.8c0-17.6 14.4-33.6 33.6-33.6s33.6 14.4 33.6 33.6v412.8c0 17.6-14.4 33.6-33.6 33.6zM33.6 598.4c-17.6 0-33.6-14.4-33.6-33.6v-280c0-17.6 14.4-33.6 33.6-33.6s33.6 14.4 33.6 33.6v280c0 19.2-16 33.6-33.6 33.6zM228.8 688c-17.6 0-33.6-14.4-33.6-33.6v-150.4c0-17.6 14.4-33.6 33.6-33.6s33.6 14.4 33.6 33.6v150.4c0 17.6-14.4 33.6-33.6 33.6zM425.6 529.6c-17.6 0-33.6-14.4-33.6-33.6v-123.2c0-17.6 14.4-33.6 33.6-33.6s33.6 14.4 33.6 33.6v123.2c0 19.2-16 33.6-33.6 33.6zM806.4 627.2c-17.6 0-33.6-14.4-33.6-33.6v-228.8c0-17.6 14.4-33.6 33.6-33.6 17.6 0 33.6 14.4 33.6 33.6v230.4c0 17.6-16 32-33.6 32zM620.8 804.8c-17.6 0-33.6-14.4-33.6-33.6v-220.8c0-17.6 14.4-33.6 33.6-33.6s33.6 14.4 33.6 33.6v220.8c0 19.2-14.4 33.6-33.6 33.6zM990.4 544c-17.6 0-33.6-14.4-33.6-33.6v-457.6c0-17.6 14.4-33.6 33.6-33.6 17.6 0 33.6 14.4 33.6 33.6v457.6c0 17.6-14.4 33.6-33.6 33.6zM990.4 875.2c-17.6 0-33.6-14.4-33.6-33.6v-244.8c0-17.6 14.4-33.6 33.6-33.6 17.6 0 33.6 14.4 33.6 33.6v246.4c0 17.6-14.4 32-33.6 32z" />
<glyph unicode="&#xe91a;" glyph-name="chart-timeline" d="M619.2 260.8c17.6 0 32 14.4 32 32s-14.4 32-32 32h-384v272c0 0 0 0 0 0s0 0 0 0v64h35.2c17.6 0 32 14.4 32 32s-14.4 32-32 32h-67.2c-17.6 0-32-14.4-32-32v-65.6h-76.8c-52.8 0-94.4-43.2-94.4-94.4v-177.6c0-52.8 43.2-94.4 94.4-94.4h9.6c17.6 0 32 14.4 32 32s-14.4 32-32 32h-9.6c-17.6 0-32 14.4-32 32v177.6c0 17.6 14.4 32 32 32h76.8v-363.2c0-17.6 14.4-32 32-32h67.2c17.6 0 32 14.4 32 32s-14.4 32-32 32h-35.2v27.2h384zM929.6 628.8h-105.6c-17.6 0-32-14.4-32-32s14.4-32 32-32h105.6c17.6 0 32-14.4 32-32v-177.6c0-17.6-14.4-32-32-32h-172.8v369.6c0 17.6-14.4 32-32 32h-67.2c-17.6 0-32-14.4-32-32s14.4-32 32-32h35.2v-33.6h-392c-17.6 0-32-14.4-32-32s14.4-32 32-32h392v-272c0 0 0 0 0 0s0 0 0 0v-57.6h-35.2c-17.6 0-32-14.4-32-32s14.4-32 32-32h67.2c17.6 0 32 14.4 32 32v59.2h172.8c52.8 0 94.4 43.2 94.4 94.4v179.2c0 51.2-43.2 94.4-94.4 94.4z" />
<glyph unicode="&#xe91b;" glyph-name="chart-tooltip" d="M817.6 627.2h-140.8c-17.6 0-32-14.4-32-32s14.4-32 32-32h140.8c17.6 0 32 14.4 32 32s-14.4 32-32 32zM206.4 563.2h372.8c17.6 0 32 14.4 32 32s-14.4 32-32 32h-372.8c-17.6 0-32-14.4-32-32s14.4-32 32-32zM699.2 502.4h-492.8c-17.6 0-32-14.4-32-32s14.4-32 32-32h492.8c17.6 0 32 14.4 32 32s-14.4 32-32 32zM928 822.4h-832c-52.8 0-96-43.2-96-96v-422.4c0-52.8 43.2-96 96-96h268.8l124.8-124.8c6.4-6.4 14.4-9.6 22.4-9.6s16 3.2 22.4 9.6l124.8 124.8h268.8c52.8 0 96 43.2 96 96v420.8c0 54.4-43.2 97.6-96 97.6zM960 304c0-17.6-14.4-32-32-32h-281.6c-8 0-16-3.2-22.4-9.6l-112-110.4-110.4 110.4c-6.4 6.4-14.4 9.6-22.4 9.6h-283.2c-17.6 0-32 14.4-32 32v420.8c0 17.6 14.4 32 32 32h832c17.6 0 32-14.4 32-32v-420.8z" />
<glyph unicode="&#xe91c;" glyph-name="chart-traffic-table" d="M33.6 720h209.6c17.6 0 33.6 14.4 33.6 33.6s-14.4 33.6-33.6 33.6h-209.6c-17.6 0-33.6-14.4-33.6-33.6s14.4-33.6 33.6-33.6zM635.2 516.8h209.6c17.6 0 33.6 14.4 33.6 33.6 0 17.6-14.4 33.6-33.6 33.6h-209.6c-17.6 0-33.6-14.4-33.6-33.6s16-33.6 33.6-33.6zM990.4 582.4h-46.4c-17.6 0-33.6-14.4-33.6-33.6 0-17.6 14.4-33.6 33.6-33.6h46.4c17.6 0 33.6 14.4 33.6 33.6s-14.4 33.6-33.6 33.6zM80 176h-46.4c-19.2 0-33.6-14.4-33.6-33.6 0-17.6 14.4-33.6 33.6-33.6h46.4c17.6 0 33.6 14.4 33.6 33.6s-16 33.6-33.6 33.6zM352 720h209.6c17.6 0 33.6 14.4 33.6 33.6s-14.4 33.6-33.6 33.6h-209.6c-17.6 0-33.6-14.4-33.6-33.6s16-33.6 33.6-33.6zM670.4 720h320c17.6 0 33.6 14.4 33.6 33.6s-14.4 33.6-33.6 33.6h-320c-17.6 0-33.6-14.4-33.6-33.6s16-33.6 33.6-33.6zM990.4 379.2h-208c-17.6 0-33.6-14.4-33.6-33.6 0-17.6 14.4-33.6 33.6-33.6h209.6c17.6 0 33.6 14.4 33.6 33.6-1.6 19.2-16 33.6-35.2 33.6zM462.4 379.2c-17.6 0-33.6-14.4-33.6-33.6 0-17.6 14.4-33.6 33.6-33.6h209.6c17.6 0 33.6 14.4 33.6 33.6 0 17.6-14.4 33.6-33.6 33.6h-209.6zM33.6 313.6h320c17.6 0 33.6 14.4 33.6 33.6 0 17.6-14.4 33.6-33.6 33.6h-320c-17.6 0-33.6-14.4-33.6-33.6s14.4-33.6 33.6-33.6zM33.6 516.8h494.4c17.6 0 33.6 14.4 33.6 33.6 0 17.6-14.4 33.6-33.6 33.6h-494.4c-17.6 0-33.6-14.4-33.6-33.6s14.4-33.6 33.6-33.6zM990.4 176h-766.4c-17.6 0-33.6-14.4-33.6-33.6 0-17.6 14.4-33.6 33.6-33.6h766.4c17.6 0 33.6 14.4 33.6 33.6s-14.4 33.6-33.6 33.6z" />
<glyph unicode="&#xe94a;" glyph-name="chart-chrosshair" d="M33.6 448c9.6 0 20.8 4.8 27.2 12.8 49.6 65.6 102.4 102.4 161.6 108.8 17.6 1.6 30.4 19.2 28.8 36.8s-19.2 30.4-36.8 28.8c-78.4-9.6-145.6-54.4-206.4-136-11.2-14.4-8-35.2 6.4-46.4 4.8-3.2 11.2-4.8 19.2-4.8zM548.8 524.8c1.6 0 3.2 0 4.8 0 80 11.2 145.6 54.4 204.8 132.8 81.6 110.4 219.2 80 225.6 78.4 17.6-3.2 35.2 6.4 40 25.6 4.8 17.6-6.4 35.2-24 40-9.6 1.6-187.2 41.6-296-104-46.4-62.4-99.2-97.6-160-105.6-17.6-3.2-30.4-19.2-28.8-36.8 3.2-17.6 17.6-30.4 33.6-30.4zM539.2 297.6c17.6-3.2 36.8-4.8 54.4-4.8 214.4 0 409.6 185.6 419.2 193.6 12.8 12.8 14.4 33.6 1.6 46.4s-33.6 14.4-46.4 1.6c-1.6-1.6-216-203.2-417.6-171.2-17.6 3.2-35.2-9.6-38.4-27.2-3.2-19.2 9.6-36.8 27.2-38.4zM33.6 257.6c8 0 14.4 1.6 20.8 8 0 0 67.2 52.8 168 75.2 17.6 3.2 28.8 22.4 25.6 40s-22.4 28.8-40 25.6c-115.2-27.2-192-86.4-195.2-89.6-14.4-11.2-16-32-4.8-46.4 6.4-8 16-12.8 25.6-12.8zM990.4 142.4h-499.2c-17.6 0-33.6-14.4-33.6-33.6 0-17.6 14.4-33.6 33.6-33.6h499.2c17.6 0 33.6 14.4 33.6 33.6s-14.4 33.6-33.6 33.6zM283.2 142.4h-249.6c-19.2 0-33.6-14.4-33.6-33.6 0-17.6 14.4-33.6 33.6-33.6h249.6c17.6 0 33.6 14.4 33.6 33.6s-16 33.6-33.6 33.6zM483.2 352c0 40-25.6 75.2-60.8 88v52.8c35.2 12.8 60.8 48 60.8 88s-25.6 75.2-60.8 88v147.2c0 17.6-14.4 33.6-33.6 33.6-17.6 0-33.6-14.4-33.6-33.6v-147.2c-35.2-12.8-60.8-48-60.8-88s25.6-75.2 60.8-88v-52.8c-35.2-12.8-60.8-48-60.8-88s25.6-75.2 60.8-88v-184c0-17.6 14.4-33.6 33.6-33.6 17.6 0 33.6 14.4 33.6 33.6v184c35.2 14.4 60.8 48 60.8 88zM388.8 324.8c-16 0-27.2 12.8-27.2 27.2 0 16 12.8 27.2 27.2 27.2 0 0 0 0 0 0s0 0 0 0c16 0 27.2-12.8 27.2-27.2s-12.8-27.2-27.2-27.2zM360 580.8c0 16 12.8 27.2 27.2 27.2s27.2-12.8 27.2-27.2c0-16-12.8-27.2-27.2-27.2s-27.2 11.2-27.2 27.2z" />
<glyph unicode="&#xe94b;" glyph-name="chart-message" d="M843.2 635.2h-75.2c-17.6 0-32-14.4-32-32s14.4-32 32-32h75.2c17.6 0 32 14.4 32 32s-14.4 32-32 32zM428.8 571.2h252.8c17.6 0 32 14.4 32 32s-14.4 32-32 32h-252.8c-17.6 0-32-14.4-32-32s14.4-32 32-32zM763.2 510.4h-334.4c-17.6 0-32-14.4-32-32s14.4-32 32-32h332.8c17.6 0 32 14.4 32 32 1.6 17.6-12.8 32-30.4 32zM928 828.8h-832c-52.8 0-96-43.2-96-96v-425.6c0-52.8 43.2-96 96-96h832c52.8 0 96 43.2 96 96v425.6c0 52.8-43.2 96-96 96zM960 307.2c0-17.6-14.4-32-32-32h-832c-17.6 0-32 14.4-32 32v425.6c0 17.6 14.4 32 32 32h832c17.6 0 32-14.4 32-32v-425.6zM942.4 187.2c-17.6 0-32-14.4-32-32 0-14.4-11.2-24-25.6-24h-734.4c-14.4 0-25.6 11.2-25.6 24 0 17.6-14.4 32-32 32s-32-14.4-32-32c0-49.6 40-89.6 89.6-89.6h734.4c49.6 0 89.6 40 89.6 89.6 1.6 17.6-12.8 32-32 32zM259.2 652.8c-62.4 0-113.6-51.2-113.6-113.6s51.2-113.6 113.6-113.6 113.6 51.2 113.6 113.6-51.2 113.6-113.6 113.6zM259.2 491.2c-27.2 0-49.6 22.4-49.6 49.6s22.4 49.6 49.6 49.6c27.2 0 49.6-22.4 49.6-49.6s-22.4-49.6-49.6-49.6z" />
<glyph unicode="&#xe94c;" glyph-name="theme" d="M388.8 520l388.8 379.2c0 0 96 110.4 196.8 19.2s19.2-187.2 19.2-187.2l-412.8-408-192 196.8zM350.4 27.2c144 110.4 14.4 249.6 14.4 249.6s-91.2 144-235.2 43.2-129.6-382.4-129.6-382.4 216-12.8 350.4 89.6z" />
<glyph unicode="&#xe94d;" glyph-name="add" d="M704 512h-128v128c0 35.344-28.624 64-64 64-35.344 0-64-28.656-64-64v-128h-128c-35.344 0-64-28.656-64-64 0-35.376 28.656-64 64-64h128v-128c0-35.376 28.656-64 64-64 35.376 0 64 28.624 64 64v128h128c35.376 0 64 28.624 64 64 0 35.344-28.624 64-64 64zM512 960c-281.6 0-512-230.4-512-512 0-281.632 230.4-512 512-512 281.632 0 512 230.368 512 512 0 281.6-230.368 512-512 512zM512 64c-211.184 0-384 172.752-384 384 0 211.216 172.816 384 384 384s384-172.784 384-384c0-211.248-172.816-384-384-384z" />
<glyph unicode="&#xe94e;" glyph-name="charttype-column" d="M42.672-64c-23.584 0-42.672 19.072-42.672 42.672v156.448c0 23.552 19.088 42.672 42.672 42.672 23.552 0 42.672-19.12 42.672-42.672v-156.448c-0.016-23.6-19.136-42.672-42.672-42.672zM355.536-64c-23.584 0-42.672 19.072-42.672 42.672v417.152c0 23.552 19.088 42.656 42.672 42.656 23.552 0 42.672-19.104 42.672-42.656v-417.152c0-23.6-19.12-42.672-42.672-42.672zM668.448-64c-23.584 0-42.656 19.072-42.656 42.672v677.936c0 23.568 19.072 42.672 42.656 42.672 23.552 0 42.672-19.104 42.672-42.672v-677.936c0-23.6-19.12-42.672-42.672-42.672zM981.328-64c-23.584 0-42.656 19.072-42.656 42.672v938.656c0 23.568 19.072 42.672 42.656 42.672 23.552 0 42.672-19.104 42.672-42.672v-938.672c0-23.584-19.12-42.656-42.672-42.656z" />
<glyph unicode="&#xe94f;" glyph-name="charttype-columnalt" d="M85.328 106.672h85.344v213.328h-85.344v-213.328zM213.328 21.328h-170.656c-23.6 0-42.672 19.088-42.672 42.672v298.672c0 23.584 19.072 42.656 42.672 42.656h170.656c23.552 0 42.672-19.072 42.672-42.656v-298.672c0-23.584-19.12-42.672-42.672-42.672zM853.328 106.672h85.344v426.656h-85.344v-426.656zM981.328 21.328h-170.656c-23.6 0-42.672 19.088-42.672 42.672v512c0 23.584 19.072 42.672 42.672 42.672h170.656c23.552 0 42.672-19.088 42.672-42.672v-512c0-23.584-19.12-42.672-42.672-42.672zM469.328 106.672h85.344v682.656h-85.344v-682.656zM597.328 21.328h-170.656c-23.6 0-42.672 19.088-42.672 42.672v768c0 23.584 19.072 42.672 42.672 42.672h170.656c23.552 0 42.672-19.088 42.672-42.672v-768c0-23.584-19.12-42.672-42.672-42.672z" />
<glyph unicode="&#xe950;" glyph-name="charttype-crosshair" d="M725.328 64v213.328c0 23.6-19.12 42.672-42.656 42.672-23.6 0-42.672-19.072-42.672-42.672v-213.328h-554.672v235.504l171.504 137.168 144.224-108.128c15.824-11.872 37.664-11.216 52.96 1.28l137.072 114.336c24.048-24.848 57.040-38.848 91.6-38.848 43.872 0.096 84.624 22.672 107.904 59.84l148.096-84.592v-316.56h-213.36zM640 832v-178.576c-51.008-17.92-85.168-66-85.328-120.096 0-2.656 0.624-5.12 0.784-7.744l-130.208-108.576-143.664 107.792c-15.584 11.632-37.024 11.28-52.256-0.8l-144-115.2v423.2h554.672zM640 533.328c0 23.6 19.072 42.672 42.672 42.672 23.536 0 42.656-19.072 42.656-42.672 0-23.584-19.12-42.656-42.656-42.656-23.6 0-42.672 19.072-42.672 42.656zM938.672 478.928l-130 74.256c-7.344 46.16-39.296 84.656-83.344 100.256v178.56h213.344v-353.072zM981.328 917.328h-938.656c-23.6 0-42.672-19.072-42.672-42.656v-853.344c0-23.584 19.072-42.656 42.672-42.656h938.656c23.552 0 42.672 19.072 42.672 42.656v853.344c0 23.584-19.12 42.656-42.672 42.656z" />
<glyph unicode="&#xe951;" glyph-name="charttype-doughnut" d="M512 21.328c-235.296 0-426.672 191.424-426.672 426.672 0 220.848 168.704 402.976 384 424.48v-172.32c-120.864-20.384-213.328-125.568-213.328-252.16 0-141.168 114.784-256 256-256 126.576 0 231.744 92.448 252.176 213.328h172.336c-21.552-215.28-203.68-384-424.512-384zM512 618.672c94.128 0 170.672-76.544 170.672-170.672s-76.544-170.672-170.672-170.672-170.672 76.544-170.672 170.672 76.544 170.672 170.672 170.672zM936.496 490.672h-172.32c-18.336 107.216-102.304 191.168-209.504 209.504v172.304c201.248-20.048 361.744-180.56 381.824-381.808zM512 960c-282.336 0-512-229.664-512-512s229.664-512 512-512c282.336 0 512 229.664 512 512s-229.664 512-512 512z" />
<glyph unicode="&#xe952;" glyph-name="charttype-line" d="M85.328 21.328v384h170.672c16.176 0 30.928 9.12 38.176 23.6l89.824 179.648 217.792-435.664c10.576-21.088 36.256-29.6 57.328-19.040 8.256 4.128 14.928 10.8 19.040 19.040l116.208 232.4h144.304v-384h-853.344zM938.672 874.672v-384h-170.672c-16.176 0-30.96-9.12-38.208-23.6l-89.792-179.648-217.824 435.648c-14.464 28.928-61.92 28.928-76.368 0l-116.176-232.4h-144.304v384h853.344zM981.328 960h-938.656c-23.6 0-42.672-19.088-42.672-42.672v-938.672c0-23.584 19.072-42.656 42.672-42.656h938.656c23.552 0 42.672 19.072 42.672 42.672v938.656c0 23.584-19.12 42.672-42.672 42.672z" />
<glyph unicode="&#xe953;" glyph-name="charttype-pie" d="M512 21.328c-104 0-204.368 38.256-282.048 107.424l298.752 276.576h407.792c-21.536-215.28-203.664-384-424.496-384zM469.328 872.496v-405.824l-297.328-275.344c-56.208 73.744-86.624 163.92-86.672 256.672 0 220.832 168.72 402.992 384 424.496zM936.496 490.672h-381.824v381.824c201.248-20.080 361.744-180.576 381.824-381.824zM512 960c-282.336 0-512-229.664-512-512s229.664-512 512-512 512 229.664 512 512-229.664 512-512 512z" />
<glyph unicode="&#xe954;" glyph-name="charttype-ui" d="M981.328 917.328h-938.656c-23.584 0-42.672-19.072-42.672-42.672v-853.328c0-23.584 19.088-42.656 42.672-42.656h938.672c23.552 0 42.672 19.072 42.672 42.656v853.328c-0.016 23.6-19.136 42.672-42.688 42.672zM298.672 64h-213.344v469.328h213.328v-469.328zM938.672 64h-554.672v469.328h554.672v-469.328zM938.672 618.656h-853.344v213.344h853.328v-213.344z" />
<glyph unicode="&#xe955;" glyph-name="dots-vert" d="M511.968 703.952c-70.704 0.032-128.016 57.344-128 128.064 0.032 70.704 57.36 128.016 128.064 127.984 70.688-0.032 128.064-57.344 128-128.048-0.064-70.72-57.312-128.032-128.064-128zM511.968-64c-70.704 0-128.016 57.376-128 128.064s57.344 128.064 128.048 128c70.688-0.064 128.064-57.312 128-128.064s-57.296-128-128.048-128v0zM511.968 319.984c-70.704 0-128.016 57.376-128 128.048 0.032 70.72 57.344 128.032 128.048 128 70.688-0.032 128.064-57.344 128-128.064-0.048-70.736-57.296-127.984-128.048-127.984z" />
<glyph unicode="&#xe956;" glyph-name="duplicate" d="M704 192h-640c-35.344 0-64 28.624-64 64v640c0 35.344 28.656 64 64 64h640c35.376 0 64-28.656 64-64v-640c0-35.376-28.624-64-64-64zM256 0c0 35.376 28.656 64 64 64h576v576c0 35.344 28.624 64 64 64s64-28.656 64-64v-640c0-35.376-28.624-64-64-64h-640c-35.344 0-64 28.624-64 64z" />
<glyph unicode="&#xe957;" glyph-name="logout" d="M704 64c35.376 0 64-28.624 64-64s-28.624-64-64-64h-576c-35.344 0-64 28.624-64 64v896c0 35.344 28.656 64 64 64h576c35.376 0 64-28.656 64-64s-28.624-64-64-64h-512v-768h512zM749.248 210.752c-25.008-25.008-65.504-25.008-90.496 0s-25.008 65.504 0 90.496l82.752 82.752h-357.504c-35.344 0-64 28.624-64 64 0 35.344 28.656 64 64 64h357.504l-82.752 82.752c-25.008 25.008-25.008 65.504 0 90.496s65.504 25.008 90.496 0l191.936-191.936c25.056-25.008 25.056-65.568 0.064-90.56-0.064 0-0.064-0.064-0.064-0.064l-191.936-191.936z" />
<glyph unicode="&#xe958;" glyph-name="search-alt" d="M454.784 190.368c-178.128 0-324.384 139.888-324.384 318.016s146.256 324.384 324.384 324.384 324.416-146.24 324.416-324.368c0-178.128-146.288-318.032-324.416-318.032zM811.008 241.248c57.216 76.336 89.008 165.312 89.008 267.152 0 247.984-197.152 451.6-445.232 451.6-248.032 0-451.6-203.632-451.6-451.6 0-248.064 203.568-451.696 451.6-451.696 101.776 0 197.2 31.792 267.136 89.136l190.832-190.768c12.736-12.736 31.808-19.072 44.544-19.072s31.792 6.336 44.464 19.072c25.408 25.344 25.408 63.552 0 88.96l-190.752 197.216z" />
<glyph unicode="&#xe959;" glyph-name="share" d="M763.216 192c35.376-1.632 62.752-31.504 61.12-66.88-1.504-33.12-28-59.632-61.12-61.12-35.376 1.632-62.752 31.504-61.12 66.88 1.504 33.12 28 59.616 61.12 61.12zM251.2 384c-35.344 1.632-62.72 31.504-61.12 66.88 1.472 33.12 28 59.664 61.12 61.12 35.344-1.6 62.72-31.536 61.12-66.88-1.472-33.12-28-59.616-61.12-61.12zM763.216 832c35.376-1.6 62.752-31.536 61.12-66.88-1.504-33.12-28-59.664-61.12-61.12-35.376 1.6-62.752 31.536-61.12 66.88 1.504 33.12 28 59.648 61.12 61.12zM763.216 576c105.872 0 192 86.16 192 192s-86.128 192-192 192-192-86.16-192-192c0-14.336 1.872-28.16 4.816-41.6l-206.048-128.72c-33.632 27.232-75.536 42.128-118.784 42.32-105.84 0-192-86.16-192-192 0-105.872 86.16-192 192-192 45.056 0 86.032 16.256 118.784 42.32l206.048-128.816c-3.12-13.632-4.688-27.504-4.816-41.504 0-105.872 86.128-192 192-192s192 86.128 192 192-86.128 192-192 192c-45.056 0-85.936-16.256-118.752-42.32l-206.080 128.816c2.96 13.344 4.816 27.216 4.816 41.504 0 14.336-1.84 28.16-4.816 41.536l206.080 128.784c33.632-27.2 75.504-42.128 118.752-42.32z" />
<glyph unicode="&#xe95a;" glyph-name="tag" d="M128 498.16l407.632-407.68 333.872 333.984-407.632 407.568h-333.872v-333.872zM535.632-63.968c-16.976 0-33.28 6.752-45.248 18.752l-471.632 471.504c-12.032 12.032-18.784 28.336-18.752 45.376v424.32c0 35.344 28.656 64 64 64h424.368c16.976 0 33.28-6.656 45.248-18.688l471.632-471.584c25.008-24.944 25.008-65.44 0.064-90.432 0 0-0.064 0-0.064-0.064l-424.368-424.432c-12-12-28.256-18.752-45.248-18.752zM346.944 643.44c-16.752 0-30.368-13.632-30.368-30.368 0-16.784 13.632-30.368 30.368-30.368 16.784 0 30.368 13.6 30.368 30.368 0 16.736-13.6 30.368-30.368 30.368zM346.944 454.816c-87.376 0.128-158.192 70.912-158.336 158.288 0.128 87.376 70.912 158.192 158.288 158.336 87.408-0.128 158.256-70.944 158.336-158.336-0.176-87.392-70.976-158.16-158.352-158.288z" />
<glyph unicode="&#xe95b;" glyph-name="explore-node" d="M990.4 896h-812.8c-17.6 0-32-16-32-33.6v-129.6c0-17.6 14.4-33.6 33.6-33.6s33.6 14.4 33.6 33.6v96h747.2v-219.2h-240c-17.6 0-33.6-14.4-33.6-33.6s14.4-33.6 33.6-33.6h273.6c17.6 0 33.6 14.4 33.6 33.6v286.4c-3.2 17.6-17.6 33.6-36.8 33.6zM990.4 499.2h-249.6c-17.6 0-33.6-14.4-33.6-33.6 0-17.6 14.4-33.6 33.6-33.6h217.6v-219.2h-217.6c-17.6 0-33.6-14.4-33.6-33.6 0-17.6 14.4-33.6 33.6-33.6h251.2c17.6 0 33.6 14.4 33.6 33.6v286.4c-1.6 19.2-16 33.6-35.2 33.6zM860.8 691.2c17.6 0 33.6 14.4 33.6 33.6s-14.4 33.6-33.6 33.6h-80c-17.6 0-33.6-14.4-33.6-33.6s14.4-33.6 33.6-33.6h80zM606.4 691.2h80c17.6 0 33.6 14.4 33.6 33.6s-14.4 33.6-33.6 33.6h-80c-17.6 0-33.6-14.4-33.6-33.6s14.4-33.6 33.6-33.6zM860.8 289.6c17.6 0 33.6 14.4 33.6 33.6 0 17.6-14.4 33.6-33.6 33.6h-80c-17.6 0-33.6-14.4-33.6-33.6 0-17.6 14.4-33.6 33.6-33.6h80zM342.4 670.4c-185.6 0-336-150.4-336-334.4 0-76.8 27.2-147.2 70.4-203.2l-67.2-68.8c-12.8-12.8-12.8-33.6 0-46.4 6.4-6.4 14.4-9.6 24-9.6s17.6 3.2 24 9.6l67.2 67.2c59.2-51.2 134.4-83.2 219.2-83.2 184 0 334.4 150.4 334.4 334.4s-152 334.4-336 334.4zM342.4 67.2c-148.8 0-268.8 120-268.8 268.8s120 268.8 268.8 268.8 268.8-120 268.8-268.8-121.6-268.8-268.8-268.8z" />
<glyph unicode="&#xe95c;" glyph-name="user-add" d="M320 192h128c35.376 0 64 28.624 64 64s-28.624 64-64 64h-128c-179.184 0-320-140.816-320-320 0-35.376 28.656-64 64-64h384c35.376 0 64 28.624 64 64s-28.624 64-64 64h-307.184c25.552 76.816 96 128 179.184 128zM704 704c0 140.816-115.184 256-256 256s-256-115.184-256-256v-64c0-140.816 115.184-256 256-256s256 115.184 256 256v64zM576 640c0-70.4-57.632-128-128-128s-128 57.6-128 128v64c0 70.4 57.632 128 128 128s128-57.6 128-128v-64zM960 192h-64v64c0 35.376-28.624 64-64 64s-64-28.624-64-64v-64h-64c-35.376 0-64-28.624-64-64s28.624-64 64-64h64v-64c0-35.376 28.624-64 64-64s64 28.624 64 64v64h64c35.376 0 64 28.624 64 64s-28.624 64-64 64z" />
<glyph unicode="&#xe95d;" glyph-name="arrow-fat" d="M534.4 340.8h-427.2c-64 0-107.2 43.2-107.2 107.2s43.2 107.2 107.2 107.2h427.2v169.6c0 59.2 48 107.2 107.2 107.2 28.8 0 56-11.2 75.2-32l275.2-276.8c41.6-41.6 41.6-108.8 0-150.4l-275.2-276.8c-41.6-41.6-108.8-41.6-150.4 0-20.8 20.8-32 46.4-32 75.2v169.6z" />
<glyph unicode="&#xe95e;" glyph-name="widget-add" d="M698.192 556.608h-93.088c-8.576 0-15.52-6.96-15.52-15.52v-186.192c0-8.56 6.944-15.52 15.52-15.52h93.088c8.56 0 15.504 6.96 15.504 15.52v186.192c0 8.576-6.944 15.52-15.504 15.52zM682.656 370.416h-62.048v155.152h62.048v-155.152zM294.8 479.024h-93.088c-8.576 0-15.52-6.944-15.52-15.52v-108.608c0-8.56 6.944-15.52 15.52-15.52h93.088c8.56 0 15.52 6.96 15.52 15.52v108.608c-0.016 8.576-6.96 15.52-15.52 15.52zM279.28 370.416h-62.064v77.584h62.064v-77.584zM496.496 680.72h-93.088c-8.576 0-15.52-6.944-15.52-15.52v-310.304c0-8.56 6.944-15.52 15.52-15.52h93.088c8.56 0 15.52 6.96 15.52 15.52v310.304c-0.016 8.576-6.96 15.52-15.52 15.52zM480.976 370.416h-62.064v279.28h62.064v-279.28zM496.496 91.152c8.56 0 15.52-6.944 15.52-15.536 0-8.56-6.96-15.504-15.52-15.504h-480.976c-8.576 0-15.52 6.944-15.52 15.504v868.864c0 8.576 6.944 15.52 15.52 15.52h868.864c8.544 0 15.504-6.944 15.504-15.52v-480.976c0-8.576-6.96-15.52-15.504-15.52-8.592 0-15.536 6.944-15.536 15.52v465.456h-837.808v-837.808h465.456zM884.384 153.216c8.544 0 15.504-6.944 15.504-15.536 0-8.56-6.96-15.504-15.504-15.504h-46.56v-46.56c0-8.56-6.944-15.504-15.504-15.504-8.592 0-15.536 6.944-15.536 15.504v46.56h-46.528c-8.592 0-15.536 6.944-15.536 15.504 0 8.592 6.944 15.536 15.536 15.536h46.528v46.528c0 8.592 6.944 15.536 15.536 15.536 8.56 0 15.504-6.944 15.504-15.536v-46.528h46.56zM822.32-32.976c-94.128 0-170.688 76.576-170.688 170.656 0 94.096 76.56 170.688 170.688 170.688 94.080 0 170.656-76.592 170.656-170.688 0-94.064-76.576-170.656-170.656-170.656zM822.32 339.392c-111.216 0-201.696-90.48-201.696-201.696 0-111.2 90.48-201.68 201.696-201.68 111.2 0 201.68 90.48 201.68 201.68 0 111.216-90.48 201.696-201.68 201.696z" />
<glyph unicode="&#xe95f;" glyph-name="delete-alt" d="M320.016 512h128v-384.016h-128v384.016zM576.032 512h128v-384.016h-128v384.016zM768.032 768v128c0 38.4-25.632 64-64 64h-384.016c-38.4 0-64-25.6-64-64v-128h-256.016v-128h64v-640.016c0-38.368 25.6-64 64-64h768.016c38.368 0 64 25.632 64 64v640.016h63.984v128h-255.968zM384.016 832.016h256.016v-64h-256.016v64zM832.032 63.984h-640.032v576.016h640.016v-576.016z" />
<glyph unicode="&#xe960;" glyph-name="move" d="M575.92 154.144v95.552c0 35.312-28.624 63.856-63.856 63.856-35.312 0-63.872-28.544-63.872-63.856v-95.552l-25.44 25.424c-24.864 24.944-65.312 24.944-90.24 0.064-24.944-24.944-24.944-65.36-0.064-90.304l134.416-134.352c5.744-5.808 12.816-10.56 20.56-13.744 23.872-10.256 51.552-4.816 69.792 13.68l134.352 134.352c24.944 24.944 24.944 65.36 0.064 90.304-24.928 24.88-65.36 24.944-90.304 0l-25.408-25.424zM218.032 384.24l25.44-25.44c24.944-24.944 24.88-65.296-0.064-90.24s-65.312-24.944-90.24 0l-134.352 134.304c-25.008 24.88-25.056 65.312-0.128 90.304 0.064 0.064 0.064 0.064 0.128 0.128l134.352 134.368c26.368 23.488 66.8 21.184 90.24-5.184 21.632-24.256 21.632-60.88 0-85.12l-25.376-25.376h95.616c35.312 0 63.872-28.624 63.872-63.872 0-35.296-28.56-63.856-63.872-63.856v0h-95.616zM448.192 741.952l-25.44-25.376c-24.864-24.928-65.312-24.928-90.304-0.064-24.944 24.944-24.944 65.36-0.064 90.304l134.416 134.416c24.944 24.88 65.36 24.88 90.352 0l134.352-134.416c24.944-24.88 24.944-65.312 0-90.24-24.928-24.864-65.296-24.864-90.24 0v0l-25.376 25.44v-95.552c0-35.248-28.624-63.872-63.856-63.872-35.312 0-63.872 28.624-63.872 63.872v95.488zM1019.136 472.48c6.496-15.632 6.496-33.184 0-48.736-3.184-7.808-7.936-14.88-13.872-20.816l-134.352-134.416c-24.88-24.88-65.296-24.88-90.24 0-24.88 24.944-24.88 65.36 0 90.24v0l25.44 25.504h-95.68c-35.232 0-63.856 28.56-63.856 63.856 0 35.264 28.624 63.872 63.856 63.872h95.632l-25.504 25.376c-24.88 24.928-24.88 65.36 0.064 90.304 24.944 24.864 65.36 24.864 90.24-0.064l134.416-134.304c5.936-5.936 10.624-13.056 13.808-20.8h0.048z" />
<glyph unicode="&#xe961;" glyph-name="node-graph" d="M718.4 300.8l-147.2 147.2 147.2 147.2c16 16 16 43.2 0 59.2s-43.2 16-59.2 0l-147.2-147.2-147.2 147.2c-16 16-43.2 16-59.2 0s-16-43.2 0-59.2l147.2-147.2-147.2-147.2c-16-16-16-43.2 0-59.2 8-8 19.2-12.8 30.4-12.8s20.8 4.8 30.4 12.8l145.6 147.2 147.2-147.2c8-8 19.2-12.8 30.4-12.8s20.8 4.8 30.4 12.8c16 16 16 41.6-1.6 59.2zM160 662.4c81.6 0 148.8 67.2 148.8 148.8s-67.2 148.8-148.8 148.8c-83.2 0-148.8-67.2-148.8-148.8s65.6-148.8 148.8-148.8zM160 875.2c35.2 0 65.6-28.8 65.6-65.6 0-35.2-28.8-64-65.6-64-35.2 0-65.6 28.8-65.6 64 0 36.8 28.8 65.6 65.6 65.6zM864 662.4c81.6 0 148.8 67.2 148.8 148.8s-65.6 148.8-148.8 148.8c-81.6 0-148.8-67.2-148.8-148.8s67.2-148.8 148.8-148.8zM864 875.2c35.2 0 65.6-28.8 65.6-65.6 0-35.2-28.8-64-65.6-64-35.2 0-65.6 28.8-65.6 64 1.6 36.8 30.4 65.6 65.6 65.6zM160 233.6c-81.6 0-148.8-67.2-148.8-148.8s67.2-148.8 148.8-148.8 148.8 67.2 148.8 148.8-67.2 148.8-148.8 148.8zM160 20.8c-35.2 0-65.6 28.8-65.6 64s28.8 65.6 65.6 65.6c35.2 0 65.6-28.8 65.6-65.6-1.6-35.2-30.4-64-65.6-64zM864 233.6c-81.6 0-148.8-67.2-148.8-148.8s67.2-148.8 148.8-148.8 148.8 67.2 148.8 148.8-65.6 148.8-148.8 148.8zM864 20.8c-35.2 0-65.6 28.8-65.6 64s28.8 65.6 65.6 65.6c35.2 0 65.6-28.8 65.6-65.6 0-35.2-28.8-64-65.6-64z" />
<glyph unicode="&#xe962;" glyph-name="error" d="M704.048 320.416l-127.584 127.584 127.568 127.568c17.808 17.808 17.808 46.672 0.016 64.464-17.808 17.808-46.672 17.808-64.48 0l-127.568-127.552-127.568 127.568c-17.808 17.808-46.672 17.808-64.48 0-17.792-17.792-17.792-46.656 0.016-64.464l127.568-127.584-127.584-127.584c-17.792-17.792-17.808-46.656 0-64.464 17.792-17.792 46.672-17.792 64.464 0l127.584 127.584 127.584-127.584c17.808-17.792 46.672-17.792 64.464 0 17.808 17.808 17.792 46.672 0 64.464zM511.984 960.016c-282.32 0-511.984-229.68-511.984-512 0-282.336 229.664-512.032 511.984-512.032 282.336 0 512.016 229.696 512.016 512.032 0 282.32-229.68 512-512.016 512zM511.984 11.536c-240.656 0-436.448 195.792-436.448 436.496 0 240.672 195.792 436.464 436.448 436.464 240.688 0 436.464-195.792 436.464-436.464 0-240.704-195.776-436.496-436.464-436.496z" />
<glyph unicode="&#xe963;" glyph-name="info" d="M512-64c-282.77 0-512 229.23-512 512s229.23 512 512 512c282.77 0 512-229.23 512-512s-229.23-512-512-512zM512 64c212.077 0 384 171.923 384 384s-171.923 384-384 384c-212.077 0-384-171.923-384-384s171.923-384 384-384zM512 576c-38.4 0-64 25.6-64 64s25.6 64 64 64c38.4 0 64-25.6 64-64s-25.6-64-64-64zM512 192c-35.346 0-64 28.654-64 64v192c0 35.346 28.654 64 64 64s64-28.654 64-64v-192c0-35.346-28.654-64-64-64z" />
<glyph unicode="&#xe964;" glyph-name="move-to-folder" d="M969.152 841.312h-482.208l-47.008 86.784c-9.616 17.712-28.096 28.72-48.224 28.72h-336.896c-30.208 0-54.816-24.608-54.816-54.816v-911.136c0-30.256 24.608-54.864 54.848-54.864h914.32c30.24 0 54.832 24.608 54.832 54.864v795.616c0 30.24-24.592 54.832-54.848 54.832zM359.008 847.152l47.008-86.8c9.616-17.712 28.080-28.72 48.224-28.72h460.080v-685.968h-804.656v801.488h249.344zM281.968 335.344h320.688l-42.496-42.496c-10.368-10.352-16.096-24.16-16.064-38.816 0-14.656 5.68-28.4 16.064-38.752 10.32-10.368 24.096-16.080 38.752-16.080 14.688 0 28.432 5.696 38.752 16.080l136.096 136.096c5.088 5.072 9.088 11.072 11.84 17.808 2.816 6.752 4.224 13.792 4.224 20.976s-1.44 14.256-4.224 20.944c-2.752 6.736-6.752 12.752-11.84 17.872l-136.096 136.096c-10.336 10.368-24.096 16.064-38.752 16.064s-28.432-5.696-38.784-16.064c-10.368-10.336-16.096-24.112-16.096-38.768 0-14.64 5.712-28.416 16.096-38.784l42.496-42.48h-320.656c-30.24 0-54.848-24.624-54.848-54.848 0-30.256 24.608-54.848 54.848-54.848z" />
<glyph unicode="&#xe965;" glyph-name="re-node" d="M977.6 494.4h-289.6v193.6c0 57.6-46.4 104-104 104h-480c-57.6 0-104-46.4-104-104v-480c0-57.6 46.4-104 104-104h480c57.6 0 104 46.4 104 104v193.6h289.6c25.6 0 46.4 20.8 46.4 46.4s-20.8 46.4-46.4 46.4zM596.8 208c0-6.4-4.8-11.2-11.2-11.2h-480c-6.4 0-11.2 4.8-11.2 11.2v480c0 6.4 4.8 11.2 11.2 11.2h480c6.4 0 11.2-4.8 11.2-11.2v-480z" />
<glyph unicode="&#xe966;" glyph-name="widget" d="M85.344 106.656h85.328v213.376h-85.328v-213.376zM213.328 21.344h-170.656c-23.552 0-42.672 19.088-42.672 42.656v298.688c0 23.6 19.12 42.656 42.688 42.656h170.656c23.568 0 42.672-19.056 42.672-42.656v-298.688c-0.016-23.568-19.12-42.656-42.688-42.656zM853.344 106.656h85.328v426.688h-85.328v-426.688zM981.344 21.344h-170.704c-23.584 0-42.656 19.088-42.656 42.656v512c0 23.552 19.072 42.672 42.656 42.672h170.704c23.584 0.016 42.656-19.104 42.656-42.672v-512c0-23.568-19.072-42.656-42.656-42.656zM469.328 106.656h85.328v682.688h-85.328v-682.688zM597.328 21.344h-170.656c-23.568 0-42.672 19.088-42.672 42.656v768c0 23.552 19.104 42.656 42.672 42.656h170.656c23.584 0 42.656-19.104 42.656-42.656v-768c0-23.568-19.072-42.656-42.656-42.656z" />
<glyph unicode="&#xe967;" glyph-name="success" d="M512 960c282.77 0 512-229.23 512-512s-229.23-512-512-512c-282.77 0-512 229.23-512 512s229.23 512 512 512zM512 832c-212.077 0-384-171.923-384-384s171.923-384 384-384c212.077 0 384 171.923 384 384s-171.923 384-384 384zM748.8 620.8c24.742-24.742 24.742-64.858 0-89.6l-244.231-244.231c-31.242-31.242-81.895-31.242-113.137 0l-116.231 116.231c-24.742 24.742-24.742 64.858 0 89.6s64.858 24.742 89.6 0l83.2-83.2 211.2 211.2c24.742 24.742 64.858 24.742 89.6 0z" />
<glyph unicode="&#xe968;" glyph-name="error-stop" d="M511.984 960.016c-282.32 0-511.984-229.68-511.984-512 0-282.336 229.664-512.032 511.984-512.032 282.336 0 512.016 229.696 512.016 512.032 0 282.32-229.68 512-512.016 512zM75.536 448.032c0 240.672 195.792 436.464 436.448 436.464 102.72 0 197.184-35.744 271.808-95.328l-612.928-612.96c-59.584 74.64-95.328 169.104-95.328 271.824zM511.984 11.536c-109.2 0-209.088 40.4-285.712 106.944l615.248 615.28c66.512-76.624 106.928-176.512 106.928-285.712-0.016-240.72-195.776-436.512-436.464-436.512z" />
<glyph unicode="&#xe969;" glyph-name="info-alt" d="M511.984 960.016c-282.32 0-511.984-229.68-511.984-512 0-282.336 229.664-512.032 511.984-512.032 282.336 0 512.016 229.696 512.016 512.032 0 282.32-229.68 512-512.016 512zM511.984 11.536c-240.656 0-436.448 195.792-436.448 436.496 0 240.672 195.792 436.464 436.448 436.464 240.688 0 436.448-195.792 436.448-436.464 0-240.704-195.76-436.496-436.448-436.496zM512 570.656c24.32 0 44-19.696 44-44v-303.088c0-24.304-19.68-44-44-44-24.304 0-44 19.696-44 44v303.088c0 24.288 19.696 44 44 44zM512 730.624c27.744 0 50.256-22.496 50.256-50.24s-22.496-50.24-50.256-50.24-50.24 22.496-50.24 50.24 22.496 50.24 50.24 50.24z" />
<glyph unicode="&#xe96a;" glyph-name="network" d="M116.8 275.2c19.2 0 33.6 16 33.6 33.6v105.6h326.4v-105.6c0-19.2 16-33.6 33.6-33.6 19.2 0 33.6 16 33.6 33.6v105.6h304v-100.8c0-19.2 16-33.6 33.6-33.6 19.2 0 33.6 16 33.6 33.6v134.4c0 19.2-16 33.6-33.6 33.6h-336v94.4c0 19.2-16 33.6-33.6 33.6-19.2 0-33.6-16-33.6-33.6v-92.8h-361.6c-19.2 0-33.6-16-33.6-33.6v-139.2c0-19.2 16-35.2 33.6-35.2zM121.6 188.8c-67.2 0-121.6-54.4-121.6-121.6s54.4-121.6 121.6-121.6c67.2 0 121.6 54.4 121.6 121.6-1.6 67.2-56 121.6-121.6 121.6zM121.6 16c-28.8 0-52.8 24-52.8 52.8s24 52.8 52.8 52.8c28.8 0 52.8-24 52.8-52.8s-24-52.8-52.8-52.8zM512 188.8c-67.2 0-121.6-54.4-121.6-121.6s54.4-121.6 121.6-121.6c67.2 0 121.6 54.4 121.6 121.6s-54.4 121.6-121.6 121.6zM512 16c-28.8 0-52.8 24-52.8 52.8s24 52.8 52.8 52.8c28.8 0 52.8-24 52.8-52.8s-24-52.8-52.8-52.8zM512 707.2c67.2 0 121.6 54.4 121.6 121.6s-54.4 121.6-121.6 121.6c-67.2 0-121.6-54.4-121.6-121.6 0-68.8 54.4-121.6 121.6-121.6zM512 880c28.8 0 52.8-24 52.8-52.8s-24-52.8-52.8-52.8c-28.8 0-52.8 24-52.8 52.8s24 52.8 52.8 52.8zM902.4 188.8c-67.2 0-121.6-54.4-121.6-121.6s54.4-121.6 121.6-121.6 121.6 54.4 121.6 121.6c0 67.2-54.4 121.6-121.6 121.6zM902.4 16c-28.8 0-52.8 24-52.8 52.8s24 52.8 52.8 52.8c28.8 0 52.8-24 52.8-52.8s-24-52.8-52.8-52.8z" />
<glyph unicode="&#xe96b;" glyph-name="menu-dots" d="M895.952 703.952c-70.752 0.032-127.984 57.344-127.984 128.064 0 70.704 57.36 128.016 128.048 127.984s128.048-57.344 127.984-128.048c-0.064-70.72-57.296-128.032-128.048-128v0zM895.952-64c-70.752 0-127.984 57.376-127.984 128.064s57.36 128.064 128.048 128 128.048-57.312 127.984-128.064-57.296-128-128.048-128zM895.952 319.984c-70.752 0-127.984 57.376-127.984 128.048 0 70.72 57.36 128.032 128.048 128s128.048-57.344 127.984-128.064c-0.064-70.736-57.296-127.984-128.048-127.984zM511.968 703.952c-70.704 0.032-128.016 57.344-127.984 128.064 0.032 70.704 57.344 128.016 128.048 127.984 70.688-0.032 128.064-57.344 128-128.048-0.064-70.72-57.312-128.032-128.064-128v0zM511.968-64c-70.704 0-128.016 57.376-127.984 128.064s57.344 128.064 128.048 128c70.688-0.064 128.064-57.312 128-128.064s-57.312-128-128.064-128zM511.968 319.984c-70.704 0-128.016 57.376-127.984 128.048 0.032 70.72 57.344 128.032 128.048 128 70.688-0.032 128.064-57.344 128-128.064-0.064-70.736-57.312-127.984-128.064-127.984zM128 703.952c-70.72 0.032-128.032 57.344-128 128.064 0.032 70.704 57.344 128.016 128.064 127.984 70.704-0.032 128.016-57.344 127.984-128.048-0.032-70.72-57.344-128.032-128.048-128zM128-64c-70.72 0-128.032 57.376-128 128.064s57.344 128.064 128.064 128c70.704-0.064 128.016-57.312 127.984-128.064s-57.344-128-128.048-128v0zM128 319.984c-70.72 0-128.032 57.376-128 128.048 0.032 70.72 57.344 128.032 128.064 128 70.704-0.032 128.016-57.344 127.984-128.064-0.032-70.736-57.344-127.984-128.048-127.984z" />
<glyph unicode="&#xe96c;" glyph-name="alert" d="M511.984 960.016c-282.32 0-511.984-229.68-511.984-512 0-282.336 229.664-512.032 511.984-512.032 282.336 0 512.016 229.696 512.016 512.032 0 282.32-229.68 512-512.016 512zM511.984 11.536c-240.656 0-436.448 195.792-436.448 436.496 0 240.672 195.792 436.464 436.448 436.464 240.688 0 436.448-195.792 436.448-436.464 0-240.704-195.76-436.496-436.448-436.496zM512 339.568c24.32 0 44 19.68 44 44v303.056c0 24.304-19.68 44-44 44-24.304 0-44-19.696-44-44v-303.056c0-24.32 19.696-44 44-44zM512 280.048c27.744 0 50.256-22.48 50.256-50.24s-22.512-50.24-50.256-50.24-50.24 22.496-50.24 50.256 22.496 50.224 50.24 50.224z" />
<glyph unicode="&#xe96d;" glyph-name="help" d="M512 960c-282.752 0-512-229.248-512-512s229.248-512 512-512 512 229.248 512 512-229.248 512-512 512zM512 21.328c-235.648 0-426.672 191.008-426.672 426.672s191.024 426.672 426.672 426.672c235.664 0 426.672-191.008 426.672-426.672s-191.008-426.672-426.672-426.672zM554.672 192c0-23.567-19.105-42.672-42.672-42.672s-42.672 19.105-42.672 42.672c0 23.567 19.105 42.672 42.672 42.672s42.672-19.105 42.672-42.672zM512 704c-66.48 0-131.504-46.448-158.208-107.504-9.040-21.328 0.608-46 21.712-55.552 21.472-9.696 46.752-0.16 56.464 21.296 13.648 31.2 48.976 56.416 80.032 56.416 45.088 0 85.344-40.256 85.344-85.344 0-45.056-40.256-85.312-85.344-85.312-23.568 0-42.672-19.072-42.672-42.672v-85.328c0-23.584 19.104-42.672 42.672-42.672 23.6 0 42.656 19.088 42.656 42.672v48.336c72.56 19.664 128 87.424 128 165.008 0 92.208-78.432 170.656-170.656 170.656z" />
<glyph unicode="&#xe96e;" glyph-name="bell" d="M963.84 155.088c-1.408 1.36-5.12 5.6-10.224 12.448-9.328 12.4-18.736 27.456-27.648 45.264-25.952 51.92-41.648 114.64-41.648 188.64v186.192c0.016 207.232-165.104 372.368-372.336 372.368s-372.368-165.136-372.368-372.368v-186.176c0-74-15.68-136.72-41.632-188.64-8.912-17.808-18.32-32.864-27.552-45.264-5.28-6.864-8.864-11.088-10.272-12.448-29.312-29.328-8.544-79.456 32.912-79.456h239.008c20.144-81.296 91.36-139.648 179.904-139.648 88.592 0 159.76 58.352 179.904 139.648h239.008c41.44 0 62.272 50.112 32.944 79.44zM511.984 29.088c-36.192 0-66.048 18.176-81.6 46.544h163.184c-15.488-28.368-45.392-46.544-81.584-46.544zM651.632 168.736h-471.616l1.232 2.448c32.224 64.448 51.456 141.36 51.456 230.272v186.176c0 155.84 123.456 279.28 279.28 279.28s279.264-123.44 279.264-279.28v-186.176c0-88.912 19.232-165.808 51.472-230.272 0.448-0.832 0.816-1.648 1.216-2.448h-192.304z" />
<glyph unicode="&#xe96f;" glyph-name="messages" d="M937.744 530.048c0.624 8.128 0.928 16.368 0.928 24.624 0 214.4-211.952 384-469.328 384s-469.344-169.6-469.344-384c0-80.304 30.368-156.592 85.328-220.496v-206.176c0-6.672 1.536-13.168 4.512-19.072 10.56-21.088 36.192-29.632 57.248-19.088l172.816 86.368c70.272-82.704 189.648-133.536 320.080-133.536 22.256 0 44.288 1.536 66.16 4.496l170.768-85.344c5.904-2.912 12.4-4.496 19.072-4.496 23.552 0 42.672 19.088 42.672 42.672v153.504c54.416 52.16 85.344 117.744 85.344 187.824 0 70.416-31.328 136.336-86.256 188.72zM345.216 272.304c-10.064 2.704-20.752 1.632-30.064-3.040l-144.48-72.208v153.456c0 10.832-4.128 21.248-11.52 29.168-47.92 51.152-73.808 111.824-73.808 175.008 0 162.576 170.096 298.656 384 298.656 213.92 0 384-136.080 384-298.656 0-162.592-170.080-298.672-384-298.672-42.304-0.016-83.936 5.568-124.128 16.288zM868.336 204.928c-9.504-8.176-15.008-20-15.008-32.544v-103.328l-121.040 60.496c-8.032 4.032-17.152 5.376-26.032 3.904-21.872-3.584-44-5.408-66.256-5.408-66.16 0-128.032 15.696-178.16 42.656l7.504-0.032c203.76 0 379.040 106.256 443.248 257.008v-0.096c17.12-27.008 26.096-56.288 26.096-86.256-0.016-49.744-24.768-97.664-70.352-136.4z" />
<glyph unicode="&#xe970;" glyph-name="time" d="M768 490.672h-213.328v213.328c0 23.568-19.088 42.672-42.672 42.672-23.568 0-42.672-19.104-42.672-42.672v-298.672h298.672c23.584 0 42.672 19.088 42.672 42.672 0 23.568-19.088 42.672-42.672 42.672zM512 960c-282.752 0-512-229.248-512-512s229.248-512 512-512 512 229.248 512 512-229.248 512-512 512zM512 21.328c-235.648 0-426.672 191.008-426.672 426.672 0 235.648 191.024 426.672 426.672 426.672 235.664 0 426.672-191.008 426.672-426.672s-191.008-426.672-426.672-426.672z" />
<glyph unicode="&#xe971;" glyph-name="usercircle" d="M512 704c-106.032 0-192-85.936-192-192v-96c0-106.064 85.968-192 192-192s192 85.936 192 192v96c0 106.064-85.968 192-192 192zM640 416c0-70.688-57.312-128-128-128s-128 57.312-128 128v96c0 70.688 57.312 128 128 128s128-57.312 128-128v-96zM512 960c-282.752 0-512-229.248-512-512s229.248-512 512-512 512 229.248 512 512-229.248 512-512 512zM308.224 49.376c39.584 29.904 88 46.624 138.336 46.592h130.88c50.368 0.032 98.784-16.688 138.352-46.592-61.184-31.344-130.32-49.376-203.792-49.376s-142.592 18.032-203.776 49.376zM773.536 84.784c-53.648 48.128-123.344 75.216-196.096 75.216h-130.88c-72.736 0-142.464-27.056-196.112-75.216-112.768 81.344-186.448 213.536-186.448 363.216 0 247.44 200.576 448 448 448 247.44 0 448-200.56 448-448 0-149.68-73.68-281.872-186.464-363.216z" />
<glyph unicode="&#xe972;" glyph-name="alert-filled" d="M512 960c-281.6 0-512-230.4-512-512s230.4-512 512-512c281.6 0 512 230.4 512 512s-230.4 512-512 512zM468.8 686.4c0 24 19.2 44.8 44.8 44.8 24 0 44.8-19.2 44.8-44.8v-302.4c0-24-19.2-44.8-44.8-44.8-24 0-44.8 19.2-44.8 44.8v302.4zM512 179.2c-27.2 0-49.6 22.4-49.6 49.6s22.4 49.6 49.6 49.6 49.6-22.4 49.6-49.6-22.4-49.6-49.6-49.6z" />
<glyph unicode="&#xe973;" glyph-name="deploy" d="M696 248c25.6 0 38.4 32 20.8 49.6l-182.4 184c-11.2 11.2-30.4 11.2-41.6 0l-184-182.4c-19.2-17.6-6.4-49.6 20.8-49.6h137.6v-208c0-25.6 20.8-44.8 44.8-44.8 25.6 0 44.8 20.8 44.8 44.8v208l139.2-1.6zM979.2 899.2h-934.4c-24 0-44.8-20.8-44.8-44.8v-715.2c0-25.6 20.8-44.8 44.8-44.8h233.6c25.6 0 44.8 20.8 44.8 44.8s-20.8 44.8-44.8 44.8h-188.8v392h843.2v-392h-198.4c-25.6 0-44.8-20.8-44.8-44.8s20.8-44.8 44.8-44.8h244.8c25.6 0 44.8 20.8 44.8 44.8v715.2c0 24-20.8 44.8-44.8 44.8zM89.6 665.6v142.4h843.2v-142.4h-843.2z" />
<glyph unicode="&#xe974;" glyph-name="application" d="M989.088 917.968h-954.16c-19.296 0-34.928-15.632-34.928-34.928v-870.080c0-19.296 15.632-34.928 34.928-34.928h954.176c19.296 0 34.912 15.632 34.912 34.928v870.080c-0.016 19.296-15.632 34.928-34.928 34.928zM954.192 739.92h-655.84v108.224h655.84v-108.224zM228.512 848.144v-108.224h-158.688v108.224h158.688zM69.824 47.856v622.24h884.352v-622.24h-884.352zM473.312 519.872h-258.64c-19.296 0-34.928-15.616-34.928-34.912v-258.72c0-19.296 15.632-34.928 34.928-34.928h258.64c19.296 0 34.912 15.632 34.912 34.928v258.72c0 19.312-15.616 34.912-34.912 34.912zM438.384 261.152h-188.8v188.896h188.816v-188.896zM829.536 519.872h-196.592c-19.296 0-34.912-15.616-34.912-34.912s15.616-34.928 34.912-34.928h196.592c19.296 0 34.912 15.632 34.912 34.928s-15.616 34.912-34.912 34.912zM740.464 351.856h-107.536c-19.296 0-34.912-15.632-34.912-34.928s15.616-34.912 34.912-34.912h107.536c19.312 0 34.928 15.616 34.928 34.912s-15.616 34.928-34.928 34.928z" />
<glyph unicode="&#xe975;" glyph-name="dashboard-alt" d="M512 959.968c-282.336 0-512-229.664-512-511.936 0-282.336 229.664-512 512-512s512 229.664 512 512c0 282.272-229.664 511.936-512 511.936zM512 889.664c243.536 0 441.68-198.128 441.68-441.632 0-33.584-4.112-66.192-11.248-97.648h-418.416l-161.216 309.28c-8.992 17.264-30.288 23.936-47.44 14.944-17.168-8.96-23.888-30.208-14.912-47.408l144.336-276.816h-363.216c-7.136 31.456-11.264 64.064-11.264 97.648 0 243.504 198.16 441.632 441.696 441.632z" />
<glyph unicode="&#xe976;" glyph-name="infrastructure" d="M511.936 702.224c71.104 0 128.992 57.776 128.992 128.816 0 71.12-57.872 128.96-128.992 128.96-71.088 0-128.896-57.84-128.896-128.96 0-71.040 57.808-128.816 128.896-128.816zM511.936 872.752c23.008 0 41.68-18.704 41.68-41.712 0-22.944-18.688-41.584-41.68-41.584s-41.664 18.656-41.664 41.584c0.016 23.008 18.688 41.712 41.664 41.712zM865.344 371.984c-71.12 0-129.008-57.872-129.008-128.992 0-71.040 57.872-128.864 129.008-128.864 71.040 0 128.928 57.808 128.928 128.864 0 71.12-57.888 128.992-128.928 128.992zM865.344 201.44c-23.008 0-41.68 18.624-41.68 41.568 0 23.008 18.672 41.68 41.68 41.68 22.944 0 41.616-18.688 41.616-41.68 0-22.944-18.672-41.568-41.616-41.568zM158.656 371.984c-71.072 0-128.928-57.872-128.928-128.992 0-71.040 57.84-128.864 128.928-128.864s128.896 57.808 128.896 128.864c0 71.12-57.824 128.992-128.896 128.992zM158.656 201.44c-22.976 0-41.68 18.624-41.68 41.568 0 23.008 18.72 41.68 41.68 41.68s41.664-18.688 41.664-41.68c0-22.944-18.688-41.568-41.664-41.568zM693.296 134.656l-181.36-104.672-184.544 106.576c-20.944 12.128-47.52 4.848-59.616-15.936-12.016-20.912-4.88-47.584 15.968-59.584l206.352-119.152c6.768-3.92 14.288-5.888 21.84-5.888 7.536 0 15.072 1.968 21.824 5.824l203.168 117.184c20.848 12.064 27.984 38.736 16 59.648-11.984 20.72-38.48 28.064-59.632 16zM696.56 705.296l153.888-88.912v-178.4c0-24.128 19.536-43.664 43.664-43.664s43.664 19.536 43.664 43.664v203.584c0 15.568-8.336 29.984-21.824 37.776l-175.712 101.52c-20.912 12.064-47.584 4.912-59.584-15.968-12.080-20.864-4.944-47.536 15.904-59.6zM129.808 391.12c24.096 0 43.632 19.536 43.632 43.648v181.6l158.576 91.568c20.848 12.048 27.984 38.736 15.968 59.616-12.096 20.848-38.752 27.984-59.632 15.968l-180.352-104.176c-13.472-7.792-21.792-22.192-21.792-37.776v-206.8c0-24.112 19.52-43.648 43.6-43.648z" />
<glyph unicode="&#xe977;" glyph-name="bars" d="M57.36 709.344h909.376c31.664 0 57.264 25.696 57.264 57.36s-25.6 57.344-57.264 57.344h-909.376c-31.696 0-57.36-25.664-57.36-57.344s25.664-57.36 57.36-57.36zM966.736 505.392h-909.376c-31.696 0-57.36-25.68-57.36-57.36 0-31.664 25.664-57.344 57.36-57.344h909.376c31.664 0 57.264 25.68 57.264 57.344 0 31.68-25.6 57.36-57.264 57.36zM966.736 186.624h-909.376c-31.696 0-57.36-25.648-57.36-57.344 0-31.664 25.664-57.344 57.36-57.344h909.376c31.664 0 57.264 25.696 57.264 57.344 0 31.696-25.6 57.344-57.264 57.344z" />
<glyph unicode="&#xe978;" glyph-name="angle-down" d="M511.328 153.488c0 0 0 0-0.080 0-16.768 0-32.8 6.752-44.624 18.576l-448.256 450.032c-24.576 24.736-24.496 64.688 0.16 89.264 24.752 24.48 64.688 24.56 89.264-0.176l403.632-405.232 404.864 404.912c24.656 24.656 64.592 24.656 89.248 0s24.656-64.592 0-89.248l-449.568-449.632c-11.84-11.84-27.872-18.496-44.64-18.496z" />
<glyph unicode="&#xe979;" glyph-name="angle-left" d="M207.888 448.672c0 0 0 0 0 0.080 0 16.768 6.752 32.8 18.576 44.624l450.016 448.24c24.736 24.592 64.688 24.496 89.264-0.16 24.48-24.752 24.56-64.688-0.176-89.248l-405.216-403.632 404.896-404.832c24.656-24.656 24.656-64.592 0-89.248s-64.592-24.656-89.248 0l-449.616 449.552c-11.84 11.84-18.496 27.872-18.496 44.624z" />
<glyph unicode="&#xe97a;" glyph-name="angle-right" d="M830.512 447.328c0 0 0 0 0-0.080 0-16.768-6.752-32.8-18.576-44.624l-450.016-448.256c-24.736-24.592-64.688-24.496-89.264 0.16-24.48 24.752-24.56 64.688 0.176 89.248l405.216 403.632-404.896 404.864c-24.656 24.656-24.656 64.592 0 89.248s64.592 24.656 89.248 0l449.616-449.568c11.84-11.84 18.496-27.872 18.496-44.624z" />
<glyph unicode="&#xe97b;" glyph-name="angle-up" d="M512.688 744.112c0 0 0 0 0.080 0 16.768 0 32.8-6.752 44.624-18.576l448.256-450.016c24.576-24.736 24.496-64.688-0.16-89.264-24.752-24.48-64.688-24.56-89.264 0.176l-403.632 405.216-404.864-404.896c-24.656-24.656-64.592-24.656-89.248 0s-24.656 64.592 0 89.248l449.568 449.616c11.84 11.84 27.872 18.496 44.64 18.496z" />
<glyph unicode="&#xe97c;" glyph-name="sort" d="M766.080 393.632h-508.16c-75.76 0-104.768-52.48-64.496-116.64l245.312-292.864c40.304-64.16 106.224-64.16 146.512 0l245.328 292.864c40.288 64.144 11.264 116.64-64.496 116.64zM257.936 502.352h508.16c75.744 0 104.768 52.496 64.48 116.656l-245.312 292.864c-40.304 64.16-106.224 64.16-146.512 0l-245.328-292.864c-40.272-64.16-11.264-116.656 64.512-116.656z" />
<glyph unicode="&#xe97d;" glyph-name="sort-down" d="M766.080 393.632h-508.16c-75.76 0-104.768-52.48-64.496-116.64l245.312-292.864c40.304-64.16 106.224-64.16 146.512 0l245.328 292.864c40.288 64.144 11.264 116.64-64.496 116.64z" />
<glyph unicode="&#xe97e;" glyph-name="sort-up" d="M257.936 502.352h508.16c75.744 0 104.768 52.496 64.48 116.656l-245.312 292.864c-40.304 64.16-106.224 64.16-146.512 0l-245.328-292.864c-40.272-64.16-11.264-116.656 64.512-116.656z" />
<glyph unicode="&#xe97f;" glyph-name="floppy" d="M1010.736 756.72l-186.704 192.72c-6.496 6.768-15.504 10.56-24.928 10.56h-760.912c-19.168 0-34.672-15.504-34.672-34.672v-954.656c0-19.168 15.504-34.672 34.672-34.672h947.632c19.152 0 34.672 15.504 34.672 34.672v761.936c-0.016 9.008-3.472 17.68-9.76 24.112zM328.16 890.656h357.408v-212.752h-357.408v212.752zM951.136 5.344h-878.272v885.312h185.952v-247.424c0-19.168 15.504-34.672 34.672-34.672h426.736c19.168 0 34.672 15.504 34.672 34.672v247.424h29.6l166.656-172.064v-713.248zM517.888 521.808c-105.968 0-192.112-86.208-192.112-192.112 0-105.984 86.144-192.192 192.112-192.192s192.112 86.208 192.112 192.192c0 105.92-86.144 192.112-192.112 192.112zM517.888 206.864c-67.648 0-122.768 55.12-122.768 122.848s55.12 122.768 122.768 122.768c67.664 0 122.768-55.040 122.768-122.768s-55.104-122.848-122.768-122.848z" />
<glyph unicode="&#xe980;" glyph-name="caret-down" d="M623.376 84.544c-61.248-97.552-161.488-97.552-222.752 0l-373.008 593.952c-61.248 97.552-17.12 177.36 98.064 177.36h772.672c115.184 0 159.312-79.808 98.064-177.36l-373.040-593.952z" />
<glyph unicode="&#xe981;" glyph-name="caret-left" d="M154.88 336.64c-97.552 61.248-97.552 161.472 0 222.736l594.016 373.008c97.552 61.248 177.36 17.12 177.36-98.064v-772.656c0-115.184-79.808-159.312-177.36-98.064l-594.016 373.040z" />
<glyph unicode="&#xe982;" glyph-name="caret-right" d="M864.24 559.344c97.552-61.248 97.552-161.456 0-222.72l-593.952-373.008c-97.552-61.248-177.36-17.12-177.36 98.064v772.64c0 115.184 79.808 159.312 177.36 98.064l593.952-373.040z" />
<glyph unicode="&#xe983;" glyph-name="caret-up" d="M400.656 801.92c61.248 97.552 161.472 97.552 222.736 0l373.008-594.048c61.248-97.552 17.12-177.36-98.064-177.36h-772.656c-115.184 0-159.312 79.808-98.064 177.36l373.040 594.048z" />
<glyph unicode="&#xe984;" glyph-name="medium" d="M121.376 694.256c1.376 12.88-3.44 25.504-12.88 34.256l-95.568 117.872v17.616h296.816l229.44-515.008 201.76 515.008h283.056v-17.632l-81.744-80.128c-7.12-5.632-10.624-14.624-9.12-23.504v-589.504c-1.504-8.944 2-17.872 9.12-23.504l79.744-80.128v-17.6h-401.504v17.632l82.624 82.128c8.128 8.368 8.128 10.752 8.128 23.504v476.416l-230-597.808h-30.992l-267.76 597.808v-400.688c-2.256-16.752 3.184-33.68 14.816-46l107.568-133.504v-17.632h-304.88v17.632l107.504 133.632c11.504 12.128 16.624 29.248 13.872 45.872v463.264z" />
<glyph unicode="&#xe985;" glyph-name="youtube" d="M1011.184 652.816c-12.816 83.184-51.184 140.816-140.816 153.552-140.736 25.632-358.368 25.632-358.368 25.632s-217.632 0-358.368-25.632c-89.632-12.736-134.448-70.368-140.816-153.552-12.816-83.184-12.816-204.816-12.816-204.816s0-121.632 12.816-204.816 51.184-140.816 140.816-153.568c140.736-25.616 358.368-25.616 358.368-25.616s217.632 0 358.368 25.632c89.632 19.184 128 70.368 140.816 153.568s12.816 204.8 12.816 204.8 0 121.632-12.816 204.816zM384 256v384l320-192-320-192z" />
<glyph unicode="&#xe986;" glyph-name="zoom-center" d="M320 704h384c35.376 0 64-28.656 64-64v-384c0-35.376-28.624-64-64-64h-384c-35.376 0-64 28.624-64 64v384c0 35.344 28.624 64 64 64zM64 960c35.376 0 64-28.656 64-64v-896c0-35.376-28.624-64-64-64s-64 28.624-64 64v896c0 35.344 28.624 64 64 64zM960 960c35.376 0 64-28.656 64-64v-896c0-35.376-28.624-64-64-64s-64 28.624-64 64v896c0 35.344 28.624 64 64 64z" />
<glyph unicode="&#xe987;" glyph-name="eye" d="M512 320c70.688 0 128 57.312 128 128s-57.312 128-128 128-128-57.312-128-128 57.312-128 128-128zM512 64c301.248 0 495.632 338.192 503.744 352.496 11.008 19.472 11.008 43.248 0.064 62.72-8.064 14.416-201.056 352.784-503.808 352.784-304.32 0-495.936-338.496-503.936-352.912-10.816-19.408-10.752-43.024 0.128-62.4 8.064-14.32 201.024-352.688 503.808-352.688zM512 704c181.68 0 322.32-181.44 372.368-256-50.176-74.624-190.8-256-372.368-256-181.808 0-322.432 181.632-372.4 256.064 49.712 74.496 189.744 255.936 372.4 255.936z" />
<glyph unicode="&#xe988;" glyph-name="eye-off" d="M932.752 597.232l-91.12-91.12c17.744-22.224 32.368-42.496 42.752-58.064-48.624-72.32-182.368-244.496-355.872-255.008l-116.128-116.192c31.744-7.936 64.88-12.816 99.632-12.816 301.264 0 495.632 338.192 503.76 352.496 11.008 19.472 11.008 43.248 0.064 62.72-3.024 5.488-32.032 56.416-83.088 117.984zM18.752-45.2c24.88-25.008 65.248-25.12 90.256-0.256 0.064 0.064 0.128 0.128 0.256 0.256l896 896c25.008 25.008 25.008 65.504 0 90.496s-65.504 25.008-90.496 0l-175.68-175.68c-66.080 38.832-141.904 66.416-227.088 66.416-304.32 0-495.936-338.496-503.936-352.896-10.816-19.408-10.752-43.024 0.128-62.4 4.496-8 66.816-115.312 172.304-209.68l-161.808-161.824c-24.944-24.992-24.944-65.44 0.064-90.432v0zM139.616 448.112c49.696 74.496 189.744 255.92 372.384 255.92 47.504 0 92-12.88 133.008-32.496l-100.256-100.24c-10.624 3.056-21.632 4.656-32.752 4.752-70.688 0-128-57.312-128-128 0-11.376 1.872-22.288 4.752-32.752l-117.392-117.376c-50 44.384-94.24 94.88-131.744 150.192z" />
<glyph unicode="&#xe989;" glyph-name="grafana" d="M978.096 509.856c-1.744 17.648-5.28 37.024-10.608 58.176-5.248 21.216-14.112 46-26.464 70.672-12.368 24.784-28.24 51.168-49.424 75.952-8.864 10.576-17.664 19.36-26.464 28.224 14.112 56.448-17.664 105.904-17.664 105.904-54.768 3.568-90.032-17.648-102.384-26.512-1.792 1.792-3.552 1.792-7.104 3.568-8.8 3.568-17.632 7.072-28.24 10.576s-19.392 5.232-29.968 8.784c-10.608 1.792-21.232 5.296-31.792 5.296-1.776 0-3.536 0-5.328 0-22.96 77.712-91.792 109.504-91.792 109.504-75.92-49.408-91.824-116.512-91.824-116.512s0-1.84 0-3.568c-3.536-1.712-8.8-1.712-12.336-3.504-5.328-1.712-12.368-3.504-17.68-5.296-5.264-1.712-12.352-5.296-17.648-7.072-12.352-5.36-22.944-10.656-33.52-17.664-10.608-5.216-21.184-12.352-31.824-19.488-1.744 0-3.504 1.84-3.504 1.84-105.936 40.656-201.216-8.784-201.216-8.784-8.864-113.040 42.336-183.648 52.944-197.728-1.776-7.136-5.328-14.208-7.104-21.216-7.040-24.656-14.112-51.168-17.648-79.392 0-3.568-1.728-7.136-1.728-12.432-98.864-47.712-127.152-148.336-127.152-148.336 81.248-93.552 176.56-100.688 176.56-100.688v0c12.368-21.088 26.48-42.32 42.368-61.68 7.040-8.848 14.144-15.984 21.152-22.944-30-84.8 3.568-157.248 3.568-157.248 91.792-3.376 151.808 40.656 164.176 49.52 8.816-3.456 17.648-5.296 28.256-8.864 28.256-7.008 56.448-10.576 84.72-12.304 7.088 0 14.112 0 21.216 0h15.856c42.4-61.776 118.32-70.64 118.32-70.64 60 63.6 56.512 127.12 56.512 127.12l-1.776 1.712c12.352 8.864 22.944 17.712 33.52 26.496 21.216 19.44 40.624 42.368 56.512 65.312 1.744 1.84 3.552 5.296 3.552 7.136 60.016-3.568 104.144 37.008 104.144 37.008-10.576 70.736-54.736 100.624-54.736 100.624h-1.744c0 3.568 0 8.848 1.744 12.416 0 7.008 0 14.080 0 21.088v8.848c0 1.84 0 1.84 0 1.84v8.784c0 1.728 0 3.584 0 5.296 0 1.728 0 3.456 0 5.296v10.56c-1.744 7.072-1.744 14.096-3.536 21.216-7.040 26.512-17.664 53.024-31.76 75.968s-31.76 44.032-51.2 61.744c-19.44 17.664-42.336 31.792-65.344 42.32-22.944 10.704-47.664 17.712-72.336 19.504-12.368 1.712-24.72 1.712-35.344 1.712h-15.84c-1.776 0-3.552 0-5.296 0-5.312 0-12.368-1.712-17.664-1.712-24.704-5.344-47.648-12.352-67.104-24.784-19.36-12.24-37.040-26.384-51.184-44.032-14.112-17.648-24.688-35.36-33.52-54.736-7.072-19.36-12.4-38.864-12.4-58.304 0-5.28 0-10.496 0-14.080 0-1.712 0-1.712 0-3.584v-3.568c0-1.712 0-5.28 0-7.008 1.792-10.656 3.536-19.504 5.328-28.24 5.328-17.648 14.112-35.296 24.688-49.456 10.608-14.208 23.008-26.496 37.088-35.36 14.112-8.8 28.256-15.92 42.368-19.36 14.112-3.584 28.256-5.296 40.592-5.296 1.776 0 3.568 0 5.312 0h3.52c1.776 0 3.504 0 3.504 0s0 0 1.792 0h3.52c1.76 0 3.552 0 5.328 0 1.744 0 3.504 0 5.248 1.712 3.568 0 5.312 1.856 8.864 1.856 5.296 1.712 10.576 3.44 15.856 7.008 5.296 1.712 8.832 5.28 14.16 8.864 1.744 1.712 1.744 1.712 3.504 3.568 5.312 3.392 5.312 10.512 1.744 14.080-3.504 3.44-8.784 5.296-12.336 1.712-3.552 3.584-3.552 1.712-5.296 1.712-3.504-1.712-7.056-3.44-12.336-5.28-3.552-1.712-8.848-1.712-14.16-3.44-1.744 0-5.248 0-7.024 0s-1.776 0-3.552 0c-1.744 0-1.744 0-3.536 0s-1.792 0-3.52 0c-1.776 0-3.536 0-3.536 0v0 0h-3.536c-1.776 0-1.776 0-3.568 0-10.56 1.712-21.12 5.28-29.984 8.72-10.608 5.296-19.44 10.656-28.24 19.504-8.848 7.008-15.904 17.664-23.008 28.24-5.264 10.576-10.576 22.944-12.352 35.232-1.744 5.424-1.744 12.368-1.744 19.504 0 1.712 0 3.568 0 5.28v0 0 3.568c0 3.584 0 7.072 1.744 10.512 5.328 26.496 17.664 53.008 38.864 74.16 5.296 5.232 10.624 8.8 17.664 14.208 5.312 3.44 12.352 7.008 19.44 10.576 7.056 3.44 14.112 5.232 21.184 6.944 7.056 1.712 14.112 3.568 21.184 3.568 3.504 0 7.056 0 10.576 0 1.776 0 1.776 0 1.776 0h8.832c8.816 0 15.856-1.856 24.688-3.568 15.888-3.504 31.792-8.672 45.936-17.52 28.272-15.936 52.96-40.592 68.864-70.656 7.024-14.16 12.352-31.808 15.856-47.728 0-3.44 1.744-8.864 1.744-12.304v-7.136c0-1.728 0-1.728 0-3.456 0-1.84 0-1.84 0-3.584v-7.072c0-1.712 0-5.28 0-7.008 0-5.424 0-8.88-1.744-14.16 0-5.344-1.744-8.928-1.744-14.224-1.744-1.712-1.744-5.28-3.536-10.56-1.76-8.8-5.328-17.664-8.864-26.496-7.040-17.664-15.84-33.472-26.48-47.616-21.152-30.080-51.184-54.736-84.72-68.832-17.664-7.12-35.328-12.4-52.944-15.984-8.864-1.712-17.68-1.712-28.272-3.44h-14.096c1.744 0 0 0 0 0h-1.744c-5.36 0-10.624 0-14.16 0-19.44 1.712-38.848 5.296-58.304 10.576-19.376 5.28-37.056 12.304-54.704 21.088-35.328 17.712-65.312 44.224-90.032 74.288-12.352 15.808-22.944 31.744-31.792 49.328-8.784 17.648-15.856 35.296-21.152 53.008-5.328 17.664-8.832 37.024-8.832 56.592v21.056c0 1.712 0 5.424 0 7.136 0 8.784 1.712 19.36 1.712 28.224 1.792 8.784 3.568 19.36 5.328 28.16 1.792 8.864 3.568 19.568 7.072 28.224 5.296 19.568 12.352 37.216 19.424 54.736 15.872 35.36 37.056 65.44 61.776 90.096 7.040 5.296 12.368 12.304 19.408 17.648 7.104 5.296 14.112 10.576 21.184 15.872s14.112 8.784 22.976 12.352c3.536 1.856 7.040 3.568 12.352 5.296 1.76 0 3.536 1.856 5.296 1.856 1.76 1.712 3.504 1.712 5.296 1.712 7.104 3.568 15.904 7.008 24.688 8.848 1.776 0 3.568 1.728 7.104 1.728 1.792 0 3.504 1.84 7.040 1.84 3.536 1.664 8.864 1.664 12.368 3.376 1.744 0 3.536 1.856 7.056 1.856 1.776 0 3.536 1.712 7.024 1.712 1.792 0 3.552 0 7.12 1.856h7.040c1.744 0 3.536 0 7.056 1.712 1.76 0 5.264 0 7.040 1.712 1.792 0 5.328 0 7.072 0s3.504 0 5.28 0h7.072c1.744 0 5.264 0 7.040 0h3.536c0 0 1.776 0 0 0v0h1.776c1.744 0 3.536 0 7.040 0 8.864 0 15.888 0 24.72 0 15.888 0 31.76-1.712 47.664-5.296 31.792-5.296 60.032-15.792 86.496-28.224 26.512-12.352 51.232-28.224 70.64-45.872 1.776-1.712 1.776-1.712 3.536-3.568 1.776-1.712 1.776-1.712 3.552-3.44 1.744-1.856 5.248-5.36 7.024-7.072s5.328-5.296 7.072-7.136c1.776-1.712 5.28-5.296 7.056-7.008 8.8-8.864 17.664-19.376 24.704-28.24 14.144-19.488 26.496-37.152 35.328-56.576 0-1.712 1.776-1.712 1.776-3.44 0-1.84 1.712-1.84 1.712-3.568 1.776-1.792 1.776-5.232 3.552-7.072 1.744-1.712 1.744-3.568 3.536-7.008 1.776-1.84 1.776-3.568 3.536-7.136 3.552-8.8 7.040-15.808 8.832-24.672 3.536-12.352 7.040-22.944 10.576-33.648 1.776-3.376 5.328-6.944 8.864-5.232 3.504 0 7.024 3.568 7.024 7.072-3.472 19.648-3.472 32.016-5.216 46.16z" />
<glyph unicode="&#xe98a;" glyph-name="gitlab" d="M1022.080 380.336l-12.432 38.288-44.912 138.032h0.064l-0.064 0.176-101.024 311.104-12.496 38.352c-0.976 2.864-2.576 5.248-4.528 7.264-0.288 0.208-0.56 0.352-0.848 0.624-1.808 1.744-4.048 3.072-6.416 3.984-0.144 0.032-0.288 0.24-0.56 0.32-0.336 0.112-0.704 0.032-1.12 0.144-1.872 0.528-3.76 0.8-5.792 0.736-0.688-0.032-1.328-0.176-2.016-0.288-1.184-0.144-2.368-0.032-3.504-0.416-0.624-0.208-0.976-0.736-1.616-0.992-1.040-0.448-2.016-1.12-2.928-1.808-1.328-0.912-2.656-1.68-3.696-2.832-0.704-0.8-1.12-1.888-1.744-2.832-0.848-1.328-1.888-2.416-2.448-3.92l-113.44-349.472h-376.992l-71.488 219.616-42.192 129.856c-3.424 10.272-14.56 15.824-24.8 12.368-5.872-1.968-10.432-6.528-12.4-12.368l-113.36-349.632-57.408-176.32c-5.216-16.064 0.48-33.664 14.144-43.584l495.904-360.416 496.016 360.432c13.616 9.92 19.328 27.52 14.096 43.584z" />
<glyph unicode="&#xe98b;" glyph-name="expand-alt" d="M660.72 837.088h-67.888c-13.36 0-24.176-10.8-24.176-24.192v-729.792c0-13.36 10.816-24.208 24.176-24.208h67.888c13.36 0 24.192 10.848 24.192 24.208v729.792c0 13.392-10.832 24.192-24.192 24.192zM431.136 837.088h-67.872c-13.376 0-24.208-10.8-24.208-24.192v-729.792c0-13.36 10.832-24.208 24.208-24.208h67.872c13.36 0 24.192 10.848 24.192 24.208v729.792c0 13.392-10.816 24.192-24.192 24.192zM1002.832 479.152c-13.44 10.080-161.408 123.568-161.408 123.568s-11.824 9.152-26.128 2.416-14.208-20.928-14.208-20.928v-264.736c0 0-1.632-17.744 11.856-26.176 13.456-8.368 36.864 11.872 36.864 11.872l163.104 131.44c0 0 12.608 8.944 10.928 17.344-1.68 8.432-7.552 15.12-21.008 25.2zM174.144 593.68l-163.072-131.392c0 0-12.592-8.96-10.912-17.344 1.68-8.416 7.568-15.136 21.008-25.2 13.44-10.112 161.36-123.552 161.36-123.552s11.856-9.168 26.16-2.448c14.272 6.752 14.176 20.96 14.176 20.96v264.688c0 0 1.6 17.76-11.872 26.176-13.424 8.384-36.848-11.888-36.848-11.888z" />
<glyph unicode="&#xe98c;" glyph-name="running" d="M511.984 960.016c-282.32 0-511.984-229.68-511.984-512 0-282.336 229.664-512.032 511.984-512.032 282.336 0 512.016 229.696 512.016 512.032 0 282.32-229.68 512-512.016 512zM511.984 11.536c-240.656 0-436.448 195.792-436.448 436.496 0 240.672 195.792 436.464 436.448 436.464 240.688 0 436.448-195.792 436.448-436.464 0-240.704-195.76-436.496-436.448-436.496zM272.416 526.928c-43.616 0-78.992-35.36-78.992-78.992 0-43.504 35.376-78.88 78.992-78.88s78.976 35.376 78.976 78.88c0 43.632-35.36 78.992-78.976 78.992zM512 526.928c-43.616 0-78.88-35.36-78.88-78.992 0-43.504 35.264-78.88 78.88-78.88 43.632 0 79.008 35.376 79.008 78.88 0 43.632-35.376 78.992-79.008 78.992zM751.68 526.928c-43.632 0-78.88-35.36-78.88-78.992 0-43.504 35.248-78.88 78.88-78.88s78.88 35.376 78.88 78.88c0 43.632-35.248 78.992-78.88 78.992z" />
<glyph unicode="&#xe98d;" glyph-name="download" d="M979.2 294.4c-25.6 0-44.8-20.8-44.8-44.8v-145.6h-844.8v145.6c0 25.6-20.8 44.8-44.8 44.8s-44.8-20.8-44.8-44.8v-190.4c0-25.6 20.8-44.8 44.8-44.8h934.4c25.6 0 44.8 20.8 44.8 44.8v190.4c0 24-20.8 44.8-44.8 44.8zM476.8 260.8c8-9.6 20.8-12.8 32-12.8 0 0 1.6 0 1.6 0s1.6 0 1.6 0c16 0 30.4 9.6 38.4 22.4l315.2 310.4c17.6 17.6 17.6 46.4 0 64s-46.4 17.6-64 0l-244.8-243.2v436.8c0 25.6-20.8 44.8-44.8 44.8s-44.8-20.8-44.8-44.8v-440l-244.8 246.4c-17.6 17.6-46.4 17.6-64 0s-17.6-46.4 0-64l318.4-320z" />
<glyph unicode="&#xe98e;" glyph-name="branch" d="M931.2 635.2c0 91.2-73.6 164.8-164.8 164.8s-164.8-73.6-164.8-164.8c0-75.2 49.6-136 118.4-156.8v0c-3.2-80-60.8-88-84.8-86.4h-329.6v246.4c67.2 20.8 116.8 83.2 116.8 156.8 0 91.2-73.6 164.8-164.8 164.8s-164.8-73.6-164.8-164.8c0-73.6 49.6-136 116.8-156.8v-296c0 0 0 0 0 0s0 0 0 0v-86.4c-67.2-20.8-116.8-83.2-116.8-156.8 0-91.2 73.6-164.8 164.8-164.8s164.8 73.6 164.8 164.8c0 73.6-49.6 136-116.8 156.8v38.4h329.6c1.6 0 3.2 0 4.8 0 68.8 0 169.6 46.4 176 179.2v3.2c65.6 22.4 115.2 84.8 115.2 158.4zM187.2 795.2c0 38.4 30.4 68.8 68.8 68.8s68.8-30.4 68.8-68.8c0-38.4-30.4-68.8-68.8-68.8-36.8 0-68.8 30.4-68.8 68.8zM326.4 100.8c0-38.4-30.4-68.8-68.8-68.8s-68.8 30.4-68.8 68.8c0 36.8 30.4 67.2 67.2 68.8 0 0 1.6 0 1.6 0s1.6 0 1.6 0c38.4-1.6 67.2-32 67.2-68.8zM766.4 564.8c-38.4 0-68.8 30.4-68.8 68.8s30.4 68.8 68.8 68.8 68.8-30.4 68.8-68.8c0-36.8-30.4-68.8-68.8-68.8z" />
<glyph unicode="&#xe98f;" glyph-name="code-alt" d="M265.6 681.6c-16 16-41.6 16-57.6 0l-196.8-196.8c-6.4-8-11.2-17.6-11.2-28.8s4.8-20.8 11.2-28.8l196.8-195.2c8-8 17.6-11.2 28.8-11.2s20.8 3.2 28.8 11.2c16 16 16 41.6 0 57.6l-168 166.4 168 168c14.4 16 14.4 41.6 0 57.6zM1012.8 484.8l-196.8 196.8c-16 16-41.6 16-57.6 0s-16-41.6 0-57.6l168-168-168-168c-16-16-16-41.6 0-57.6 8-8 17.6-11.2 28.8-11.2s20.8 3.2 28.8 11.2l196.8 196.8c8 8 11.2 17.6 11.2 28.8s-4.8 20.8-11.2 28.8zM662.4 761.6c-19.2 9.6-44.8 1.6-54.4-19.2l-268.8-553.6c-9.6-19.2-1.6-44.8 19.2-54.4 6.4-3.2 11.2-4.8 17.6-4.8 14.4 0 28.8 8 36.8 22.4l268.8 553.6c9.6 20.8 1.6 46.4-19.2 56z" />
<glyph unicode="&#xe990;" glyph-name="home" d="M1009.6 566.4l-475.2 385.6c-12.8 11.2-32 11.2-44.8 0l-475.2-385.6c-16-12.8-17.6-35.2-4.8-51.2s35.2-17.6 51.2-4.8l451.2 368 452.8-366.4c6.4-4.8 14.4-8 22.4-8 11.2 0 20.8 4.8 27.2 12.8 12.8 14.4 11.2 38.4-4.8 49.6zM894.4 499.2c-19.2 0-35.2-16-35.2-35.2v-456h-188.8v233.6c0 19.2-16 35.2-35.2 35.2h-246.4c-19.2 0-35.2-16-35.2-35.2v-233.6h-187.2v456c0 19.2-16 35.2-35.2 35.2s-35.2-16-35.2-35.2v-491.2c0-19.2 16-35.2 35.2-35.2h259.2c19.2 0 35.2 16 35.2 35.2v233.6h172.8v-233.6c0-19.2 16-35.2 35.2-35.2h259.2c19.2 0 35.2 16 35.2 35.2v491.2c1.6 19.2-14.4 35.2-33.6 35.2z" />
<glyph unicode="&#xe991;" glyph-name="server-two" d="M992 883.2h-960c-17.6 0-32-14.4-32-32v-336c0-17.6 14.4-32 32-32h960c17.6 0 32 14.4 32 32v336c0 17.6-14.4 32-32 32zM960 545.6h-896v272h896v-272zM992 414.4h-960c-17.6 0-32-14.4-32-32v-336c0-17.6 14.4-32 32-32h960c17.6 0 32 14.4 32 32v336c0 17.6-14.4 32-32 32zM960 78.4h-896v272h896v-272zM744 656h94.4c17.6 0 32 14.4 32 32s-14.4 32-32 32h-94.4c-17.6 0-32-14.4-32-32s14.4-32 32-32zM537.6 656h94.4c17.6 0 32 14.4 32 32s-14.4 32-32 32h-94.4c-17.6 0-32-14.4-32-32s14.4-32 32-32zM744 182.4h94.4c17.6 0 32 14.4 32 32s-14.4 32-32 32h-94.4c-17.6 0-32-14.4-32-32s14.4-32 32-32zM537.6 182.4h94.4c17.6 0 32 14.4 32 32s-14.4 32-32 32h-94.4c-17.6 0-32-14.4-32-32s14.4-32 32-32z" />
<glyph unicode="&#xe992;" glyph-name="manage" d="M931.2 460.8c81.6 81.6 107.2 203.2 65.6 310.4-4.8 11.2-14.4 19.2-25.6 22.4s-24-1.6-32-9.6l-112-115.2-97.6 97.6 113.6 116.8c8 8 11.2 20.8 9.6 32s-11.2 20.8-22.4 25.6c-107.2 41.6-230.4 16-310.4-65.6-75.2-75.2-102.4-185.6-73.6-288l-30.4-27.2-112 112 24 25.6c12.8 12.8 12.8 35.2 0 49.6l-116.8 126.4c-6.4 6.4-16 11.2-25.6 11.2s-19.2-3.2-25.6-11.2l-97.6-99.2c-12.8-14.4-12.8-35.2 0-49.6l120-123.2c6.4-6.4 16-11.2 25.6-11.2 0 0 0 0 0 0 9.6 0 19.2 3.2 25.6 11.2l20.8 20.8 108.8-108.8-320-281.6c-27.2-27.2-36.8-68.8-28.8-118.4 6.4-41.6 27.2-81.6 51.2-107.2 33.6-33.6 91.2-62.4 142.4-62.4 28.8 0 56 8 78.4 30.4l360 412.8c99.2-28.8 209.6-1.6 284.8 73.6zM134.4 748.8l48 48 68.8-73.6-46.4-46.4-70.4 72zM606.4 451.2l-374.4-428.8c-20.8-20.8-86.4 1.6-118.4 33.6-14.4 14.4-27.2 41.6-32 68.8-4.8 25.6-1.6 46.4 8 54.4l419.2 369.6c11.2 9.6 14.4 25.6 9.6 40-30.4 81.6-11.2 174.4 49.6 235.2 41.6 41.6 99.2 64 156.8 64 8 0 16 0 22.4-1.6l-94.4-96c-12.8-14.4-12.8-36.8 0-49.6l147.2-147.2c6.4-6.4 16-11.2 25.6-11.2 8-1.6 19.2 3.2 25.6 11.2l92.8 94.4c6.4-64-16-129.6-64-177.6-60.8-60.8-153.6-81.6-235.2-49.6-12.8 6.4-28.8 1.6-38.4-9.6zM864 342.4c-14.4 14.4-36.8 14.4-49.6 0-14.4-14.4-14.4-36.8 0-49.6l107.2-107.2c8-8 16-25.6 14.4-52.8-1.6-35.2-19.2-70.4-48-96-28.8-28.8-104-40-126.4-17.6l-153.6 153.6c-14.4 14.4-36.8 14.4-49.6 0-14.4-14.4-14.4-36.8 0-49.6l153.6-153.6c20.8-20.8 52.8-32 91.2-32 8 0 17.6 0 27.2 1.6 43.2 6.4 84.8 24 107.2 46.4 41.6 35.2 67.2 88 70.4 144 1.6 43.2-11.2 81.6-35.2 105.6l-108.8 107.2z" />
<glyph unicode="&#xe993;" glyph-name="sites" d="M972.8 489.6c-3.2 20.8-24 33.6-43.2 30.4-20.8-3.2-33.6-24-30.4-43.2 4.8-24 6.4-48 6.4-72 0-56-11.2-108.8-33.6-156.8-32 12.8-78.4 22.4-137.6 1.6-24-8-57.6 33.6-70.4 54.4-1.6 1.6-3.2 4.8-4.8 6.4-4.8 4.8-41.6 44.8-91.2 44.8-20.8 0-48-4.8-75.2-33.6-57.6-59.2-108.8-142.4-76.8-299.2-46.4 11.2-88 30.4-126.4 56 92.8 100.8 22.4 211.2-22.4 280-6.4 8-11.2 17.6-16 25.6-6.4 11.2-9.6 20.8-8 25.6 3.2 8 19.2 16 30.4 19.2 1.6 0 4.8 1.6 6.4 1.6 11.2 4.8 105.6 48 124.8 132.8 12.8 62.4-41.6 142.4-81.6 188.8 64 35.2 136 51.2 208 46.4-3.2-16-4.8-30.4-4.8-46.4 0-102.4 73.6-187.2 171.2-204.8v-110.4c0-20.8 17.6-38.4 38.4-38.4s38.4 17.6 38.4 38.4v110.4c97.6 17.6 171.2 102.4 171.2 204.8 0 115.2-92.8 208-208 208-70.4 0-132.8-35.2-171.2-89.6-112 12.8-227.2-16-320-80-128-88-203.2-232-203.2-385.6 0-241.6 180.8-443.2 422.4-467.2 1.6 0 1.6 0 3.2 0 0 0 0 0 0 0s0 0 0 0c14.4-1.6 28.8-1.6 43.2-1.6 259.2 0 468.8 209.6 468.8 468.8 0 28.8-3.2 57.6-8 84.8zM734.4 884.8c73.6 0 132.8-59.2 132.8-132.8s-59.2-132.8-132.8-132.8-132.8 59.2-132.8 132.8 60.8 132.8 132.8 132.8zM118.4 404.8c0 116.8 52.8 228.8 142.4 302.4 41.6-48 75.2-105.6 70.4-129.6-8-38.4-57.6-68.8-78.4-78.4-14.4-3.2-60.8-19.2-76.8-62.4-8-19.2-12.8-52.8 12.8-94.4 4.8-8 11.2-17.6 17.6-27.2 52.8-80 81.6-134.4 27.2-190.4-70.4 73.6-115.2 171.2-115.2 280zM512 11.2c-4.8 0-9.6 0-12.8 0-36.8 145.6 6.4 209.6 51.2 257.6 9.6 9.6 16 9.6 19.2 9.6 12.8 0 27.2-11.2 33.6-17.6 27.2-44.8 86.4-107.2 156.8-83.2 32 11.2 57.6 8 75.2 3.2-70.4-102.4-188.8-169.6-323.2-169.6z" />
<glyph unicode="&#xe994;" glyph-name="ccard" d="M896 872h-768c-70.4 0-128-57.6-128-128v-592c0-70.4 57.6-128 128-128h768c70.4 0 128 57.6 128 128v592c0 70.4-57.6 128-128 128zM83.2 595.2h856v-76.8h-856v76.8zM128 787.2h768c24 0 43.2-19.2 43.2-43.2v-65.6h-856v65.6c0 24 20.8 43.2 44.8 43.2zM896 108.8h-768c-24 0-43.2 19.2-43.2 43.2v283.2h856v-283.2c0-24-20.8-43.2-44.8-43.2zM456 313.6h-257.6c-22.4 0-41.6-19.2-41.6-41.6s19.2-41.6 41.6-41.6h257.6c22.4 0 41.6 19.2 41.6 41.6s-19.2 41.6-41.6 41.6zM809.6 313.6h-60.8c-22.4 0-41.6-19.2-41.6-41.6s19.2-41.6 41.6-41.6h60.8c22.4 0 41.6 19.2 41.6 41.6s-19.2 41.6-41.6 41.6z" />
<glyph unicode="&#xe995;" glyph-name="iam" d="M512 960c-150.4 0-291.2-65.6-388.8-179.2-16-17.6-12.8-44.8 4.8-59.2s44.8-12.8 59.2 4.8c81.6 94.4 200 148.8 324.8 148.8 235.2 0 427.2-192 427.2-427.2s-192-427.2-427.2-427.2c-120 0-230.4 48-312 134.4-16 17.6-43.2 17.6-60.8 1.6s-17.6-43.2-1.6-60.8c97.6-100.8 233.6-160 374.4-160 281.6 0 512 230.4 512 512s-230.4 512-512 512zM307.2 420.8h152v-96c0-24 19.2-43.2 43.2-43.2s43.2 19.2 43.2 43.2v96h46.4v-48c0-24 19.2-43.2 43.2-43.2s43.2 19.2 43.2 43.2v48h56c24 0 43.2 19.2 43.2 43.2s-19.2 43.2-43.2 43.2h-427.2c-19.2 65.6-78.4 113.6-150.4 113.6-86.4 0-156.8-70.4-156.8-156.8s70.4-156.8 156.8-156.8c72-1.6 131.2 48 150.4 113.6zM84.8 462.4c0 40 32 72 72 72s72-32 72-72-32-72-72-72-72 33.6-72 72z" />
<glyph unicode="&#xe996;" glyph-name="ext-link" d="M971.36 412.736c-29.072 0-52.64-23.552-52.64-52.64v-160.944c0-87.072-70.848-157.92-157.936-157.92h-497.552c-87.088 0-157.936 70.848-157.936 157.92v497.68c0 87.088 70.848 157.936 157.936 157.936h165.648c29.088 0 52.64 23.552 52.64 52.64s-23.552 52.64-52.64 52.64h-165.648c-145.184 0-263.232-118.032-263.232-263.216v-497.68c0-145.168 118.048-263.2 263.232-263.2h497.552c145.184 0 263.216 118.032 263.216 263.2v160.944c0 29.088-23.536 52.64-52.64 52.64zM733.216 743.52l-250.976-250.976c-20.576-20.56-20.576-53.888 0-74.448 10.288-10.288 23.744-15.408 37.216-15.408s26.944 5.12 37.216 15.408l251.008 251.008 126.464-126.352c10.080-10.080 23.552-15.424 37.216-15.424 6.8 0 13.664 1.328 20.16 4 19.664 8.128 32.496 27.36 32.496 48.64v327.44c0 13.984-5.584 27.36-15.44 37.216-9.872 9.872-23.216 15.424-37.216 15.424l-327.488-0.096c-21.28 0-40.496-12.864-48.624-32.496-8.144-19.728-3.632-42.336 11.408-57.36l126.56-126.576z" />
<glyph unicode="&#xe997;" glyph-name="pos" d="M288 576h448c17.712 0 32 14.288 32 32v192c0 17.648-14.288 32-32 32h-448c-17.648 0-32-14.352-32-32v-192c0-17.712 14.352-32 32-32zM320 768h384v-128h-384v128zM864 960h-704c-17.648 0-32-14.352-32-32v-608c0.080-76.032 53.536-141.616 128-156.864v-195.136c0-17.712 14.352-32 32-32h448c17.712 0 32 14.288 32 32v195.136c74.544 15.248 128 80.832 128 156.864v608c0 17.648-14.288 32-32 32zM416 0h-96v384h96v-384zM704 0h-224v384h224v-384zM832 320c0-40.752-25.568-77.008-64-90.608v186.608c0 17.648-14.288 32-32 32h-448c-17.648 0-32-14.352-32-32v-186.608c-37.232 13.216-64 48.736-64 90.608v576h640v-576z" />
<glyph unicode="&#xe998;" glyph-name="tablet" d="M512 64c-17.712 0-32 14.352-32 32 0 17.712 14.288 32 32 32s32-14.288 32-32c0-17.648-14.288-32-32-32zM864 0c17.712 0 32 14.352 32 32v832c0 17.712-14.288 32-32 32h-704c-17.712 0-32-14.288-32-32v-832c0-17.648 14.288-32 32-32h704zM864-64h-704c-53.008 0-96 42.992-96 96v0 832c0 53.008 42.992 96 96 96h704c53.008 0 96-42.992 96-96v-832c0-53.008-42.992-96-96-96v0zM256 768v-512h512v512h-512zM224 832h576c17.712 0 32-14.288 32-32v-576c0-17.648-14.288-32-32-32h-576c-17.712 0-32 14.352-32 32v576c0 17.712 14.288 32 32 32z" />
<glyph unicode="&#xe999;" glyph-name="mobile" d="M512 32c52.944 0 96 42.992 96 96s-43.056 96-96 96c-53.008 0-96-42.992-96-96s42.992-96 96-96zM512 160c17.68 0 32-14.288 32-32s-14.32-32-32-32c-17.68 0-32 14.288-32 32s14.32 32 32 32zM768 960h-512c-53.008 0-96-42.992-96-96v-832c0-53.008 42.992-96 96-96h512c53.008 0 96 42.992 96 96v832c0 53.008-42.992 96-96 96zM800 32c0-17.712-14.352-32-32-32h-512c-17.68 0-32 14.288-32 32v224h576v-224zM800 320h-576v416h576v-416zM800 800h-576v64c0 17.712 14.32 32 32 32h512c17.648 0 32-14.288 32-32v-64z" />
<glyph unicode="&#xe99a;" glyph-name="tools" d="M966.4 540.8c80 76.8 56 195.2 44.8 252.8-1.6 11.2-11.2 20.8-22.4 24s-22.4 0-30.4-8l-84.8-89.6-84.8 91.2 84.8 92.8c6.4 8 9.6 19.2 6.4 28.8-3.2 11.2-12.8 19.2-22.4 20.8-8 1.6-153.6 32-244.8-65.6-75.2-80-67.2-169.6-59.2-209.6l-41.6-38.4-43.2 38.4c9.6 40 16 129.6-59.2 209.6-91.2 96-236.8 67.2-243.2 65.6-9.6-1.6-17.6-9.6-22.4-20.8-3.2-9.6 0-20.8 6.4-30.4l84.8-92.8-84.8-91.2-84.8 89.6c-8 9.6-20.8 12.8-32 9.6s-19.2-12.8-22.4-24c-11.2-57.6-35.2-176 44.8-252.8 72-68.8 180.8-62.4 224-57.6l25.6-28.8-273.6-248c-20.8-17.6-32-44.8-32-70.4 0-27.2 11.2-52.8 30.4-70.4l92.8-100.8c19.2-19.2 43.2-28.8 68.8-28.8 27.2 0 52.8 11.2 73.6 32l478.4 515.2c41.6-4.8 150.4-11.2 222.4 57.6zM315.2 537.6c-8 8-19.2 11.2-28.8 9.6-1.6 0-120-24-185.6 38.4-36.8 33.6-41.6 83.2-36.8 134.4l64-67.2c6.4-6.4 14.4-9.6 22.4-9.6 9.6 0 17.6 3.2 22.4 9.6l126.4 136c11.2 11.2 11.2 30.4 0 41.6l-59.2 67.2c38.4-1.6 89.6-12.8 124.8-51.2 72-76.8 41.6-163.2 40-166.4-4.8-11.2-1.6-25.6 8-33.6l52.8-48-112-102.4-38.4 41.6zM708.8 537.6l-489.6-528c-14.4-16-38.4-16-52.8-3.2l-92.8 100.8c0 0-1.6 1.6-1.6 1.6-8 6.4-11.2 16-11.2 25.6s4.8 19.2 11.2 25.6l536 484.8c9.6 8 12.8 22.4 8 33.6-1.6 3.2-32 89.6 40 166.4 35.2 38.4 86.4 49.6 124.8 51.2l-57.6-64c-11.2-11.2-11.2-30.4 0-41.6l126.4-136c6.4-6.4 14.4-9.6 22.4-9.6s16 3.2 22.4 9.6l65.6 65.6c4.8-52.8-1.6-100.8-36.8-134.4-65.6-62.4-185.6-38.4-185.6-38.4-11.2 1.6-20.8-1.6-28.8-9.6zM992 206.4l-187.2 169.6c-12.8 11.2-32 9.6-43.2-1.6-11.2-12.8-11.2-32 1.6-43.2l187.2-171.2c8-6.4 11.2-16 11.2-25.6s-3.2-19.2-12.8-27.2l-89.6-99.2c-16-14.4-40-12.8-54.4 1.6l-182.4 198.4c-11.2 12.8-32 12.8-43.2 1.6-12.8-11.2-12.8-30.4-1.6-43.2l182.4-198.4c19.2-20.8 46.4-30.4 72-30.4s49.6 9.6 70.4 28.8l89.6 99.2c19.2 19.2 30.4 44.8 30.4 72 1.6 25.6-11.2 51.2-30.4 68.8z" />
</font>
</defs>
</svg>
