<?xml version="1.0" encoding="UTF-8" standalone="no"?><!DOCTYPE svg PUBLIC "-//W3C//DTD SVG 1.1//EN" "http://www.w3.org/Graphics/SVG/1.1/DTD/svg11.dtd"><svg width="100%" height="100%" viewBox="0 0 4545 2134" version="1.1" xmlns="http://www.w3.org/2000/svg" xmlns:xlink="http://www.w3.org/1999/xlink" xml:space="preserve" xmlns:serif="http://www.serif.com/" style="fill-rule:evenodd;clip-rule:evenodd;stroke-linecap:round;stroke-linejoin:round;stroke-miterlimit:1.5;"><rect id="Parallel" x="0" y="0" width="4544.46" height="2133.31" style="fill:none;"/><g><circle cx="359.185" cy="715.133" r="47.917" style="fill:#b4b4b4;stroke:#c8c8c8;stroke-width:4.17px;"/><circle cx="359.185" cy="1174.69" r="47.917" style="fill:#b4b4b4;stroke:#c8c8c8;stroke-width:4.17px;"/><circle cx="359.185" cy="1617.86" r="47.917" style="fill:#b4b4b4;stroke:#c8c8c8;stroke-width:4.17px;"/><circle cx="738.352" cy="715.704" r="47.917" style="fill:#b4b4b4;stroke:#c8c8c8;stroke-width:4.17px;"/><circle cx="738.144" cy="1174.69" r="47.917" style="fill:#b4b4b4;stroke:#c8c8c8;stroke-width:4.17px;"/><circle cx="738.144" cy="1617.86" r="47.917" style="fill:#b4b4b4;stroke:#c8c8c8;stroke-width:4.17px;"/><circle cx="359.185" cy="829.027" r="47.917" style="fill:#b4b4b4;stroke:#c8c8c8;stroke-width:4.17px;"/><circle cx="359.185" cy="1288.58" r="47.917" style="fill:#b4b4b4;stroke:#c8c8c8;stroke-width:4.17px;"/><circle cx="359.185" cy="1731.75" r="47.917" style="fill:#b4b4b4;stroke:#c8c8c8;stroke-width:4.17px;"/><circle cx="738.352" cy="829.598" r="47.917" style="fill:#b4b4b4;stroke:#c8c8c8;stroke-width:4.17px;"/><circle cx="738.144" cy="1288.58" r="47.917" style="fill:#b4b4b4;stroke:#c8c8c8;stroke-width:4.17px;"/><circle cx="738.144" cy="1731.75" r="47.917" style="fill:#b4b4b4;stroke:#c8c8c8;stroke-width:4.17px;"/><circle cx="359.185" cy="944.062" r="47.917" style="fill:#b4b4b4;stroke:#c8c8c8;stroke-width:4.17px;"/><circle cx="359.185" cy="1403.62" r="47.917" style="fill:#b4b4b4;stroke:#c8c8c8;stroke-width:4.17px;"/><circle cx="738.352" cy="944.633" r="47.917" style="fill:#b4b4b4;stroke:#c8c8c8;stroke-width:4.17px;"/><circle cx="738.144" cy="1846.79" r="47.917" style="fill:#b4b4b4;stroke:#c8c8c8;stroke-width:4.17px;"/><circle cx="479.625" cy="715.133" r="47.917" style="fill:#b4b4b4;stroke:#c8c8c8;stroke-width:4.17px;"/><circle cx="479.625" cy="1174.69" r="47.917" style="fill:#b4b4b4;stroke:#c8c8c8;stroke-width:4.17px;"/><circle cx="479.625" cy="1617.86" r="47.917" style="fill:#b4b4b4;stroke:#c8c8c8;stroke-width:4.17px;"/><circle cx="858.792" cy="715.704" r="47.917" style="fill:#b4b4b4;stroke:#c8c8c8;stroke-width:4.17px;"/><circle cx="858.584" cy="1174.69" r="47.917" style="fill:#b4b4b4;stroke:#c8c8c8;stroke-width:4.17px;"/><circle cx="858.584" cy="1617.86" r="47.917" style="fill:#b4b4b4;stroke:#c8c8c8;stroke-width:4.17px;"/><circle cx="479.625" cy="829.027" r="47.917" style="fill:#b4b4b4;stroke:#c8c8c8;stroke-width:4.17px;"/><circle cx="479.625" cy="1288.58" r="47.917" style="fill:#b4b4b4;stroke:#c8c8c8;stroke-width:4.17px;"/><circle cx="858.792" cy="829.598" r="47.917" style="fill:#b4b4b4;stroke:#c8c8c8;stroke-width:4.17px;"/><circle cx="858.584" cy="1288.58" r="47.917" style="fill:#b4b4b4;stroke:#c8c8c8;stroke-width:4.17px;"/><circle cx="858.584" cy="1731.75" r="47.917" style="fill:#b4b4b4;stroke:#c8c8c8;stroke-width:4.17px;"/><g><circle cx="1384.9" cy="715.704" r="47.917" style="fill:#b4b4b4;stroke:#c8c8c8;stroke-width:4.17px;"/><circle cx="1384.9" cy="1175.26" r="47.917" style="fill:#b4b4b4;stroke:#c8c8c8;stroke-width:4.17px;"/><circle cx="1384.9" cy="1618.43" r="47.917" style="fill:#b4b4b4;stroke:#c8c8c8;stroke-width:4.17px;"/><circle cx="1764.07" cy="716.275" r="47.917" style="fill:#b4b4b4;stroke:#c8c8c8;stroke-width:4.17px;"/><circle cx="1763.86" cy="1175.26" r="47.917" style="fill:#b4b4b4;stroke:#c8c8c8;stroke-width:4.17px;"/><circle cx="1763.86" cy="1618.43" r="47.917" style="fill:#b4b4b4;stroke:#c8c8c8;stroke-width:4.17px;"/><circle cx="1384.9" cy="829.598" r="47.917" style="fill:#b4b4b4;stroke:#c8c8c8;stroke-width:4.17px;"/><circle cx="1384.9" cy="1289.15" r="47.917" style="fill:#b4b4b4;stroke:#c8c8c8;stroke-width:4.17px;"/><circle cx="1506.76" cy="1289.15" r="47.917" style="fill:#b4b4b4;stroke:#c8c8c8;stroke-width:4.17px;"/><circle cx="1384.9" cy="1732.32" r="47.917" style="fill:#b4b4b4;stroke:#c8c8c8;stroke-width:4.17px;"/><circle cx="1764.07" cy="830.168" r="47.917" style="fill:#b4b4b4;stroke:#c8c8c8;stroke-width:4.17px;"/><circle cx="1763.86" cy="1289.15" r="47.917" style="fill:#b4b4b4;stroke:#c8c8c8;stroke-width:4.17px;"/><circle cx="1384.9" cy="1847.36" r="47.917" style="fill:#b4b4b4;stroke:#c8c8c8;stroke-width:4.17px;"/><circle cx="1505.35" cy="715.704" r="47.917" style="fill:#b4b4b4;stroke:#c8c8c8;stroke-width:4.17px;"/><circle cx="1505.35" cy="1175.26" r="47.917" style="fill:#b4b4b4;stroke:#c8c8c8;stroke-width:4.17px;"/><circle cx="1505.35" cy="1618.43" r="47.917" style="fill:#b4b4b4;stroke:#c8c8c8;stroke-width:4.17px;"/><circle cx="1884.51" cy="716.275" r="47.917" style="fill:#b4b4b4;stroke:#c8c8c8;stroke-width:4.17px;"/><circle cx="1884.3" cy="1175.26" r="47.917" style="fill:#b4b4b4;stroke:#c8c8c8;stroke-width:4.17px;"/><circle cx="1884.3" cy="1618.43" r="47.917" style="fill:#b4b4b4;stroke:#c8c8c8;stroke-width:4.17px;"/><circle cx="1505.35" cy="1732.32" r="47.917" style="fill:#b4b4b4;stroke:#c8c8c8;stroke-width:4.17px;"/><circle cx="1884.51" cy="830.168" r="47.917" style="fill:#b4b4b4;stroke:#c8c8c8;stroke-width:4.17px;"/></g><path d="M2789,991.669c-0,-26.445 21.47,-47.916 47.916,-47.916c26.446,-0 47.917,21.471 47.917,47.916c0,26.446 -21.471,47.917 -47.917,47.917c-26.446,0 -47.916,-21.471 -47.916,-47.917Z" style="fill:#b4b4b4;stroke:#c8c8c8;stroke-width:4.17px;"/><path d="M2789,1918.33c-0,-26.446 21.47,-47.917 47.916,-47.917c26.446,0 47.917,21.471 47.917,47.917c0,26.446 -21.471,47.916 -47.917,47.916c-26.446,0 -47.916,-21.47 -47.916,-47.916Z" style="fill:#b4b4b4;stroke:#c8c8c8;stroke-width:4.17px;"/><path d="M3360.65,991.669c-0,-26.445 21.47,-47.916 47.916,-47.916c26.446,-0 47.917,21.471 47.917,47.916c-0,26.446 -21.471,47.917 -47.917,47.917c-26.446,0 -47.916,-21.471 -47.916,-47.917Z" style="fill:#b4b4b4;stroke:#c8c8c8;stroke-width:4.17px;"/><path d="M2789.57,612.503c-0,-26.446 21.47,-47.917 47.916,-47.917c26.446,0 47.917,21.471 47.917,47.917c-0,26.446 -21.471,47.916 -47.917,47.916c-26.446,0 -47.916,-21.47 -47.916,-47.916Z" style="fill:#b4b4b4;stroke:#c8c8c8;stroke-width:4.17px;"/><path d="M2789.57,1539.16c-0,-26.446 21.47,-47.917 47.916,-47.917c26.446,0 47.917,21.471 47.917,47.917c-0,26.446 -21.471,47.917 -47.917,47.917c-26.446,-0 -47.916,-21.471 -47.916,-47.917Z" style="fill:#b4b4b4;stroke:#c8c8c8;stroke-width:4.17px;"/><path d="M2904.82,1539.16c-0,-26.446 21.471,-47.917 47.916,-47.917c26.446,0 47.917,21.471 47.917,47.917c0,26.446 -21.471,47.917 -47.917,47.917c-26.445,-0 -47.916,-21.471 -47.916,-47.917Z" style="fill:#b4b4b4;stroke:#c8c8c8;stroke-width:4.17px;"/><path d="M3018.47,1539.16c0,-26.446 21.471,-47.917 47.917,-47.917c26.446,0 47.917,21.471 47.917,47.917c-0,26.446 -21.471,47.917 -47.917,47.917c-26.446,-0 -47.917,-21.471 -47.917,-47.917Z" style="fill:#b4b4b4;stroke:#c8c8c8;stroke-width:4.17px;"/><path d="M3356.7,612.711c0,-26.446 21.471,-47.917 47.917,-47.917c26.446,0 47.917,21.471 47.917,47.917c-0,26.446 -21.471,47.917 -47.917,47.917c-26.446,-0 -47.917,-21.471 -47.917,-47.917Z" style="fill:#b4b4b4;stroke:#c8c8c8;stroke-width:4.17px;"/><path d="M3356.7,1539.37c0,-26.446 21.471,-47.917 47.917,-47.917c26.446,0 47.917,21.471 47.917,47.917c-0,26.446 -21.471,47.917 -47.917,47.917c-26.446,-0 -47.917,-21.471 -47.917,-47.917Z" style="fill:#b4b4b4;stroke:#c8c8c8;stroke-width:4.17px;"/><path d="M3953.13,612.711c-0,-26.446 21.471,-47.917 47.917,-47.917c26.445,0 47.916,21.471 47.916,47.917c0,26.446 -21.471,47.917 -47.916,47.917c-26.446,-0 -47.917,-21.471 -47.917,-47.917Z" style="fill:#b4b4b4;stroke:#c8c8c8;stroke-width:4.17px;"/><path d="M3953.13,1539.37c-0,-26.446 21.471,-47.917 47.917,-47.917c26.445,0 47.916,21.471 47.916,47.917c0,26.446 -21.471,47.917 -47.916,47.917c-26.446,-0 -47.917,-21.471 -47.917,-47.917Z" style="fill:#b4b4b4;stroke:#c8c8c8;stroke-width:4.17px;"/><path d="M2902.89,991.669c0,-26.445 21.471,-47.916 47.917,-47.916c26.446,-0 47.917,21.471 47.917,47.916c-0,26.446 -21.471,47.917 -47.917,47.917c-26.446,0 -47.917,-21.471 -47.917,-47.917Z" style="fill:#b4b4b4;stroke:#c8c8c8;stroke-width:4.17px;"/><path d="M2902.89,1918.33c0,-26.446 21.471,-47.917 47.917,-47.917c26.446,0 47.917,21.471 47.917,47.917c-0,26.446 -21.471,47.916 -47.917,47.916c-26.446,0 -47.917,-21.47 -47.917,-47.916Z" style="fill:#b4b4b4;stroke:#c8c8c8;stroke-width:4.17px;"/><path d="M3474.54,991.669c0,-26.445 21.471,-47.916 47.917,-47.916c26.446,-0 47.916,21.471 47.916,47.916c0,26.446 -21.47,47.917 -47.916,47.917c-26.446,0 -47.917,-21.471 -47.917,-47.917Z" style="fill:#b4b4b4;stroke:#c8c8c8;stroke-width:4.17px;"/><path d="M3136.57,1418.93c0,-26.446 21.471,-47.917 47.917,-47.917c26.446,0 47.917,21.471 47.917,47.917c-0,26.446 -21.471,47.917 -47.917,47.917c-26.446,-0 -47.917,-21.471 -47.917,-47.917Z" style="fill:#b4b4b4;stroke:#c8c8c8;stroke-width:4.17px;"/><path d="M3470.6,612.711c-0,-26.446 21.47,-47.917 47.916,-47.917c26.446,0 47.917,21.471 47.917,47.917c0,26.446 -21.471,47.917 -47.917,47.917c-26.446,-0 -47.916,-21.471 -47.916,-47.917Z" style="fill:#b4b4b4;stroke:#c8c8c8;stroke-width:4.17px;"/><path d="M3470.6,1539.37c-0,-26.446 21.47,-47.917 47.916,-47.917c26.446,0 47.917,21.471 47.917,47.917c0,26.446 -21.471,47.917 -47.917,47.917c-26.446,-0 -47.916,-21.471 -47.916,-47.917Z" style="fill:#b4b4b4;stroke:#c8c8c8;stroke-width:4.17px;"/><path d="M4067.03,612.711c0,-26.446 21.471,-47.917 47.917,-47.917c26.446,0 47.917,21.471 47.917,47.917c-0,26.446 -21.471,47.917 -47.917,47.917c-26.446,-0 -47.917,-21.471 -47.917,-47.917Z" style="fill:#b4b4b4;stroke:#c8c8c8;stroke-width:4.17px;"/><path d="M3017.93,871.229c0,-26.446 21.471,-47.916 47.917,-47.916c26.446,-0 47.917,21.47 47.917,47.916c-0,26.446 -21.471,47.917 -47.917,47.917c-26.446,-0 -47.917,-21.471 -47.917,-47.917Z" style="fill:#b4b4b4;stroke:#c8c8c8;stroke-width:4.17px;"/><path d="M3017.93,1797.89c0,-26.445 21.471,-47.916 47.917,-47.916c26.446,-0 47.917,21.471 47.917,47.916c-0,26.446 -21.471,47.917 -47.917,47.917c-26.446,0 -47.917,-21.471 -47.917,-47.917Z" style="fill:#b4b4b4;stroke:#c8c8c8;stroke-width:4.17px;"/><path d="M3589.58,871.229c0,-26.446 21.471,-47.916 47.917,-47.916c26.446,-0 47.917,21.47 47.917,47.916c-0,26.446 -21.471,47.917 -47.917,47.917c-26.446,-0 -47.917,-21.471 -47.917,-47.917Z" style="fill:#b4b4b4;stroke:#c8c8c8;stroke-width:4.17px;"/><path d="M3018.5,492.063c0,-26.446 21.471,-47.917 47.917,-47.917c26.446,-0 47.916,21.471 47.916,47.917c0,26.445 -21.47,47.916 -47.916,47.916c-26.446,0 -47.917,-21.471 -47.917,-47.916Z" style="fill:#b4b4b4;stroke:#c8c8c8;stroke-width:4.17px;"/><path d="M3018.5,1418.72c0,-26.446 21.471,-47.917 47.917,-47.917c26.446,0 47.916,21.471 47.916,47.917c0,26.446 -21.47,47.916 -47.916,47.916c-26.446,0 -47.917,-21.47 -47.917,-47.916Z" style="fill:#b4b4b4;stroke:#c8c8c8;stroke-width:4.17px;"/><path d="M4182.06,492.271c0,-26.446 21.471,-47.917 47.917,-47.917c26.446,-0 47.917,21.471 47.917,47.917c-0,26.446 -21.471,47.916 -47.917,47.916c-26.446,0 -47.917,-21.47 -47.917,-47.916Z" style="fill:#b4b4b4;stroke:#c8c8c8;stroke-width:4.17px;"/><path d="M4182.06,1418.93c0,-26.446 21.471,-47.917 47.917,-47.917c26.446,0 47.917,21.471 47.917,47.917c-0,26.446 -21.471,47.917 -47.917,47.917c-26.446,-0 -47.917,-21.471 -47.917,-47.917Z" style="fill:#b4b4b4;stroke:#c8c8c8;stroke-width:4.17px;"/><path d="M2789,871.229c-0,-26.446 21.47,-47.916 47.916,-47.916c26.446,-0 47.917,21.47 47.917,47.916c0,26.446 -21.471,47.917 -47.917,47.917c-26.446,-0 -47.916,-21.471 -47.916,-47.917Z" style="fill:#b4b4b4;stroke:#c8c8c8;stroke-width:4.17px;"/><path d="M2789,1797.89c-0,-26.445 21.47,-47.916 47.916,-47.916c26.446,-0 47.917,21.471 47.917,47.916c0,26.446 -21.471,47.917 -47.917,47.917c-26.446,0 -47.916,-21.471 -47.916,-47.917Z" style="fill:#b4b4b4;stroke:#c8c8c8;stroke-width:4.17px;"/><path d="M3360.65,871.229c-0,-26.446 21.47,-47.916 47.916,-47.916c26.446,-0 47.917,21.47 47.917,47.916c-0,26.446 -21.471,47.917 -47.917,47.917c-26.446,-0 -47.916,-21.471 -47.916,-47.917Z" style="fill:#b4b4b4;stroke:#c8c8c8;stroke-width:4.17px;"/><path d="M3360.65,1797.89c-0,-26.445 21.47,-47.916 47.916,-47.916c26.446,-0 47.917,21.471 47.917,47.916c-0,26.446 -21.471,47.917 -47.917,47.917c-26.446,0 -47.916,-21.471 -47.916,-47.917Z" style="fill:#b4b4b4;stroke:#c8c8c8;stroke-width:4.17px;"/><path d="M2789.57,492.063c-0,-26.446 21.47,-47.917 47.916,-47.917c26.446,-0 47.917,21.471 47.917,47.917c-0,26.445 -21.471,47.916 -47.917,47.916c-26.446,0 -47.916,-21.471 -47.916,-47.916Z" style="fill:#b4b4b4;stroke:#c8c8c8;stroke-width:4.17px;"/><path d="M2789.57,1418.72c-0,-26.446 21.47,-47.917 47.916,-47.917c26.446,0 47.917,21.471 47.917,47.917c-0,26.446 -21.471,47.916 -47.917,47.916c-26.446,0 -47.916,-21.47 -47.916,-47.916Z" style="fill:#b4b4b4;stroke:#c8c8c8;stroke-width:4.17px;"/><path d="M3356.7,492.271c0,-26.446 21.471,-47.917 47.917,-47.917c26.446,-0 47.917,21.471 47.917,47.917c-0,26.446 -21.471,47.916 -47.917,47.916c-26.446,0 -47.917,-21.47 -47.917,-47.916Z" style="fill:#b4b4b4;stroke:#c8c8c8;stroke-width:4.17px;"/><path d="M3356.7,1418.93c0,-26.446 21.471,-47.917 47.917,-47.917c26.446,0 47.917,21.471 47.917,47.917c-0,26.446 -21.471,47.917 -47.917,47.917c-26.446,-0 -47.917,-21.471 -47.917,-47.917Z" style="fill:#b4b4b4;stroke:#c8c8c8;stroke-width:4.17px;"/><path d="M3953.13,492.271c-0,-26.446 21.471,-47.917 47.917,-47.917c26.445,-0 47.916,21.471 47.916,47.917c0,26.446 -21.471,47.916 -47.916,47.916c-26.446,0 -47.917,-21.47 -47.917,-47.916Z" style="fill:#b4b4b4;stroke:#c8c8c8;stroke-width:4.17px;"/><path d="M3953.13,1418.93c-0,-26.446 21.471,-47.917 47.917,-47.917c26.445,0 47.916,21.471 47.916,47.917c0,26.446 -21.471,47.917 -47.916,47.917c-26.446,-0 -47.917,-21.471 -47.917,-47.917Z" style="fill:#b4b4b4;stroke:#c8c8c8;stroke-width:4.17px;"/><path d="M2902.89,871.229c0,-26.446 21.471,-47.916 47.917,-47.916c26.446,-0 47.917,21.47 47.917,47.916c-0,26.446 -21.471,47.917 -47.917,47.917c-26.446,-0 -47.917,-21.471 -47.917,-47.917Z" style="fill:#b4b4b4;stroke:#c8c8c8;stroke-width:4.17px;"/><path d="M2902.89,1797.89c0,-26.445 21.471,-47.916 47.917,-47.916c26.446,-0 47.917,21.471 47.917,47.916c-0,26.446 -21.471,47.917 -47.917,47.917c-26.446,0 -47.917,-21.471 -47.917,-47.917Z" style="fill:#b4b4b4;stroke:#c8c8c8;stroke-width:4.17px;"/><path d="M3474.54,871.229c0,-26.446 21.471,-47.916 47.917,-47.916c26.446,-0 47.916,21.47 47.916,47.916c0,26.446 -21.47,47.917 -47.916,47.917c-26.446,-0 -47.917,-21.471 -47.917,-47.917Z" style="fill:#b4b4b4;stroke:#c8c8c8;stroke-width:4.17px;"/><path d="M2903.46,492.063c0,-26.446 21.471,-47.917 47.917,-47.917c26.446,-0 47.916,21.471 47.916,47.917c0,26.445 -21.47,47.916 -47.916,47.916c-26.446,0 -47.917,-21.471 -47.917,-47.916Z" style="fill:#b4b4b4;stroke:#c8c8c8;stroke-width:4.17px;"/><path d="M2903.46,1418.72c0,-26.446 21.471,-47.917 47.917,-47.917c26.446,0 47.916,21.471 47.916,47.917c0,26.446 -21.47,47.916 -47.916,47.916c-26.446,0 -47.917,-21.47 -47.917,-47.916Z" style="fill:#b4b4b4;stroke:#c8c8c8;stroke-width:4.17px;"/><path d="M3470.6,492.271c-0,-26.446 21.47,-47.917 47.916,-47.917c26.446,-0 47.917,21.471 47.917,47.917c0,26.446 -21.471,47.916 -47.917,47.916c-26.446,0 -47.916,-21.47 -47.916,-47.916Z" style="fill:#b4b4b4;stroke:#c8c8c8;stroke-width:4.17px;"/><path d="M3470.6,1418.93c-0,-26.446 21.47,-47.917 47.916,-47.917c26.446,0 47.917,21.471 47.917,47.917c0,26.446 -21.471,47.917 -47.917,47.917c-26.446,-0 -47.916,-21.471 -47.916,-47.917Z" style="fill:#b4b4b4;stroke:#c8c8c8;stroke-width:4.17px;"/><path d="M3588.75,1418.93c-0,-26.446 21.47,-47.917 47.916,-47.917c26.446,0 47.917,21.471 47.917,47.917c-0,26.446 -21.471,47.917 -47.917,47.917c-26.446,-0 -47.916,-21.471 -47.916,-47.917Z" style="fill:#b4b4b4;stroke:#c8c8c8;stroke-width:4.17px;"/><path d="M4067.03,492.271c0,-26.446 21.471,-47.917 47.917,-47.917c26.446,-0 47.917,21.471 47.917,47.917c-0,26.446 -21.471,47.916 -47.917,47.916c-26.446,0 -47.917,-21.47 -47.917,-47.916Z" style="fill:#b4b4b4;stroke:#c8c8c8;stroke-width:4.17px;"/><path d="M4067.03,1418.93c0,-26.446 21.471,-47.917 47.917,-47.917c26.446,0 47.917,21.471 47.917,47.917c-0,26.446 -21.471,47.917 -47.917,47.917c-26.446,-0 -47.917,-21.471 -47.917,-47.917Z" style="fill:#b4b4b4;stroke:#c8c8c8;stroke-width:4.17px;"/></g><path d="M1019.6,388.602c-0,-25.399 -20.62,-46.019 -46.018,-46.019l-828.326,0c-25.398,0 -46.018,20.62 -46.018,46.019l-0,1620.25c-0,25.398 20.62,46.018 46.018,46.018l828.326,0c25.398,0 46.018,-20.62 46.018,-46.018l-0,-1620.25Z" style="fill:none;stroke:#666;stroke-width:4.17px;stroke-dasharray:16.67,16.67,0,0;"/><path d="M2098.56,388.602c0,-25.399 -20.62,-46.019 -46.018,-46.019l-828.326,0c-25.398,0 -46.018,20.62 -46.018,46.019l0,1620.25c0,25.398 20.62,46.018 46.018,46.018l828.326,0c25.398,0 46.018,-20.62 46.018,-46.018l0,-1620.25Z" style="fill:none;stroke:#808080;stroke-opacity:0.4;stroke-width:4.17px;stroke-dasharray:16.67,16.67,0,0;"/><path d="M553.14,651.764c-0,-7.481 -6.075,-13.555 -13.556,-13.555l-244,-0c-7.482,-0 -13.556,6.074 -13.556,13.555l0,345.861c0,7.481 6.074,13.555 13.556,13.555l244,0c7.481,0 13.556,-6.074 13.556,-13.555l-0,-345.861Z" style="fill:none;stroke:#808080;stroke-width:4.17px;stroke-dasharray:16.67,16.67,0,0;"/><text x="454.703px" y="289.747px" style="font-family:'ArialMT', 'Arial', sans-serif;font-size:66.667px;fill:#808080;">Group</text><text x="87.171px" y="120.23px" style="font-family:'Menlo-Regular', 'Menlo', monospace;font-size:66.667px;fill:#666;">GraphLayoutType.Parallel</text><text x="302.732px" y="602.845px" style="font-family:'ArialMT', 'Arial', sans-serif;font-size:50px;fill:#808080;">Sub-group</text><g transform="matrix(4.16667,0,0,4.16667,-475.448,-34.651)"><text x="161.283px" y="113.954px" style="font-family:'Menlo-Bold', 'Menlo', monospace;font-weight:700;font-size:11px;fill:#808080;">subGroupsPerRow = 2</text><text x="293.734px" y="113.954px" style="font-family:'Helvetica';font-size:11px;fill:#808080;">(default: 1)</text></g><g transform="matrix(4.16667,0,0,4.16667,506.079,-250.352)"><text x="161.283px" y="113.954px" style="font-family:'Menlo-Bold', 'Menlo', monospace;font-weight:700;font-size:11px;fill:#808080;">layoutNod</text><text x="220.886px" y="113.954px" style="font-family:'Menlo-Bold', 'Menlo', monospace;font-weight:700;font-size:11px;fill:#808080;">e</text><text x="227.288px" y="113.954px" style="font-family:'Menlo-Bold', 'Menlo', monospace;font-weight:700;font-size:11px;fill:#808080;">Group</text><text x="263.457px" y="113.954px" style="font-family:'Helvetica';font-size:11px;fill:#808080;">accessor function deﬁnes groups</text><text x="161.283px" y="127.954px" style="font-family:'Menlo-Bold', 'Menlo', monospace;font-weight:700;font-size:11px;fill:#808080;">layoutNod</text><text x="220.886px" y="127.954px" style="font-family:'Menlo-Bold', 'Menlo', monospace;font-weight:700;font-size:11px;fill:#808080;">e</text><text x="227.288px" y="127.954px" style="font-family:'Menlo-Bold', 'Menlo', monospace;font-weight:700;font-size:11px;fill:#808080;">SubGroup</text><text x="283.325px" y="127.954px" style="font-family:'Helvetica';font-size:11px;fill:#808080;">— sub-groups</text></g><g transform="matrix(6.12323e-17,-1,1,6.12323e-17,-2034.49,3305.39)"><text x="1307.46px" y="3144.75px" style="font-family:'Menlo-Bold', 'Menlo', monospace;font-weight:700;font-size:45.833px;fill:#808080;">layoutParallelGroupSpacing</text></g><text x="2718.51px" y="1228.09px" style="font-family:'Menlo-Bold', 'Menlo', monospace;font-weight:700;font-size:45.833px;fill:#808080;">layoutParallelGroupSpacing</text><g transform="matrix(2.55135e-16,-4.16667,4.16667,2.55135e-16,-301.63,1732.17)"><text x="161.283px" y="113.954px" style="font-family:'Menlo-Bold', 'Menlo', monospace;font-weight:700;font-size:11px;fill:#808080;">nodesPerColumn = 3</text><text x="194.594px" y="126.954px" style="font-family:'Helvetica';font-size:11px;fill:#808080;">(default: 6)</text></g><path d="M160.676,479.563l789.03,-0" style="fill:none;stroke:#7b7a78;stroke-width:2.08px;"/><path d="M1050.85,1213.66l-31.25,15.625l31.25,15.625l-0,-31.25Z" style="fill:#7b7a78;"/><path d="M1146.94,1213.66l31.25,15.625l-31.25,15.625l0,-31.25Z" style="fill:#7b7a78;"/><path d="M1044.6,1229.29l108.592,0" style="fill:none;stroke:#7b7a78;stroke-width:2.08px;"/><path d="M3494.27,1183.02l-15.625,-31.25l-15.625,31.25l31.25,-0Z" style="fill:#7b7a78;"/><path d="M3494.27,1245.43l-15.625,31.25l-15.625,-31.25l31.25,-0Z" style="fill:#7b7a78;"/><path d="M3478.65,1176.77l-0,74.908" style="fill:none;stroke:#7b7a78;stroke-width:2.08px;"/><path d="M252.865,973.409l0,-297.429" style="fill:none;stroke:#7b7a78;stroke-width:2.08px;"/><path d="M2454.1,280.437c-24.045,0 -43.567,19.522 -43.567,43.567l0,784.2c0,24.045 19.522,43.567 43.567,43.567l1946.2,-0c24.045,-0 43.567,-19.522 43.567,-43.567l-0,-784.2c-0,-24.045 -19.522,-43.567 -43.567,-43.567l-1946.2,0Z" style="fill:none;stroke:#676767;stroke-width:4.17px;stroke-dasharray:16.67,16.67,0,0;"/><path d="M2449.44,1276.68c-21.475,-0 -38.91,17.434 -38.91,38.909l0,700.375c0,21.475 17.435,38.909 38.91,38.909l1948.13,0c21.475,0 38.91,-17.434 38.91,-38.909l0,-700.375c0,-21.475 -17.435,-38.909 -38.91,-38.909l-1948.13,-0Z" style="fill:none;stroke:#808080;stroke-opacity:0.4;stroke-width:4.17px;stroke-dasharray:16.67,16.67,0,0;"/><g transform="matrix(2.55135e-16,-4.16667,4.16667,2.55135e-16,2026.4,1752.92)"><text x="161.283px" y="113.954px" style="font-family:'Menlo-Bold', 'Menlo', monospace;font-weight:700;font-size:11px;fill:#808080;">subGroupsPerRow = 2</text><text x="293.734px" y="113.954px" style="font-family:'Helvetica';font-size:11px;fill:#808080;">(default: 1)</text></g><g transform="matrix(4.16667,1.02054e-15,-1.02054e-15,4.16667,2044.67,-126.764)"><text x="161.283px" y="113.954px" style="font-family:'Menlo-Bold', 'Menlo', monospace;font-weight:700;font-size:11px;fill:#808080;">nodesPerColumn = 3</text><text x="287.111px" y="113.954px" style="font-family:'Helvetica';font-size:11px;fill:#808080;">(default: 6)</text></g><path d="M2561.75,1064.21l0,-711.349" style="fill:none;stroke:#7b7a78;stroke-width:2.08px;"/><path d="M2233.11,2090.18l0,-1809.74" style="fill:none;stroke:#7b7a78;stroke-width:2.08px;stroke-dasharray:4.17,4.17,0,0;"/><path d="M2233.11,159.711l0,-103.294" style="fill:none;stroke:#7b7a78;stroke-width:2.08px;stroke-dasharray:4.17,4.17,0,0;"/><path d="M3114.33,373.298l-325.332,0" style="fill:none;stroke:#7b7a78;stroke-width:2.08px;"/><text x="2407.21px" y="121.851px" style="font-family:'Menlo-Regular', 'Menlo', monospace;font-size:66.667px;fill:#666;">GraphLayoutType.ParallelHorizontal</text><g transform="matrix(6.12323e-17,-1,1,6.12323e-17,410.591,3319.18)"><text x="2536.9px" y="1929.1px" style="font-family:'ArialMT', 'Arial', sans-serif;font-size:66.667px;fill:#808080;">Group</text></g><path d="M3165.34,413.426c0,-8.566 -6.954,-15.521 -15.52,-15.521l-400.203,0c-8.566,0 -15.52,6.955 -15.52,15.521l0,279.365c0,8.565 6.954,15.52 15.52,15.52l400.203,-0c8.566,-0 15.52,-6.955 15.52,-15.52l0,-279.365Z" style="fill:none;stroke:#808080;stroke-width:4.17px;stroke-dasharray:16.67,16.67,0,0;"/><g transform="matrix(6.12323e-17,-1,1,6.12323e-17,877.181,3535.32)"><text x="2878.26px" y="1803.88px" style="font-family:'ArialMT', 'Arial', sans-serif;font-size:50px;fill:#808080;">Sub-group</text></g><g transform="matrix(6.12323e-17,-1,1,6.12323e-17,-1212.37,2484.34)"><text x="1308px" y="2323.16px" style="font-family:'Helvetica';font-size:45.833px;fill:#808080;">calculated automatically by default</text></g><text x="3523.08px" y="1224.17px" style="font-family:'Helvetica';font-size:45.833px;fill:#808080;">calculated automatically by default</text></svg>